<svg width="1441" height="1440" viewBox="0 0 1441 1440" fill="none" xmlns="http://www.w3.org/2000/svg">
<g opacity="0.2">
<mask id="mask0_391_2316" style="mask-type:alpha" maskUnits="userSpaceOnUse" x="0" y="0" width="1441" height="1440">
<rect width="1441" height="1440" fill="url(#paint0_radial_391_2316)"/>
</mask>
<g mask="url(#mask0_391_2316)">
<g clip-path="url(#clip0_391_2316)">
<g clip-path="url(#clip1_391_2316)">
<line x1="144.5" x2="144.5" y2="1440" stroke="#FAF7EE"/>
<line x1="208.5" x2="208.5" y2="1440" stroke="#FAF7EE"/>
<line x1="272.5" x2="272.5" y2="1440" stroke="#FAF7EE"/>
<line x1="336.5" x2="336.5" y2="1440" stroke="#FAF7EE"/>
<line x1="400.5" x2="400.5" y2="1440" stroke="#FAF7EE"/>
<line x1="464.5" x2="464.5" y2="1440" stroke="#FAF7EE"/>
<line x1="528.5" x2="528.5" y2="1440" stroke="#FAF7EE"/>
<line x1="592.5" x2="592.5" y2="1440" stroke="#FAF7EE"/>
<line x1="656.5" x2="656.5" y2="1440" stroke="#FAF7EE"/>
<line x1="720.5" x2="720.5" y2="1440" stroke="#FAF7EE"/>
<line x1="784.5" x2="784.5" y2="1440" stroke="#FAF7EE"/>
<line x1="848.5" x2="848.5" y2="1440" stroke="#FAF7EE"/>
<line x1="912.5" x2="912.5" y2="1440" stroke="#FAF7EE"/>
<line x1="976.5" x2="976.5" y2="1440" stroke="#FAF7EE"/>
<line x1="1040.5" x2="1040.5" y2="1440" stroke="#FAF7EE"/>
<line x1="1104.5" x2="1104.5" y2="1440" stroke="#FAF7EE"/>
<line x1="1168.5" x2="1168.5" y2="1440" stroke="#FAF7EE"/>
<line x1="1232.5" x2="1232.5" y2="1440" stroke="#FAF7EE"/>
<line x1="1296.5" x2="1296.5" y2="1440" stroke="#FAF7EE"/>
</g>
<g clip-path="url(#clip2_391_2316)">
<line x1="-240" y1="63.5" x2="1680" y2="63.5" stroke="#FAF7EE"/>
<line x1="-240" y1="127.5" x2="1680" y2="127.5" stroke="#FAF7EE"/>
<line x1="-240" y1="191.5" x2="1680" y2="191.5" stroke="#FAF7EE"/>
<line x1="-240" y1="255.5" x2="1680" y2="255.5" stroke="#FAF7EE"/>
<line x1="-240" y1="319.5" x2="1680" y2="319.5" stroke="#FAF7EE"/>
<line x1="-240" y1="383.5" x2="1680" y2="383.5" stroke="#FAF7EE"/>
<line x1="-240" y1="447.5" x2="1680" y2="447.5" stroke="#FAF7EE"/>
<line x1="-240" y1="511.5" x2="1680" y2="511.5" stroke="#FAF7EE"/>
<line x1="-240" y1="575.5" x2="1680" y2="575.5" stroke="#FAF7EE"/>
<line x1="-240" y1="639.5" x2="1680" y2="639.5" stroke="#FAF7EE"/>
<line x1="-240" y1="703.5" x2="1680" y2="703.5" stroke="#FAF7EE"/>
<line x1="-240" y1="767.5" x2="1680" y2="767.5" stroke="#FAF7EE"/>
<line x1="-240" y1="831.5" x2="1680" y2="831.5" stroke="#FAF7EE"/>
<line x1="-240" y1="895.5" x2="1680" y2="895.5" stroke="#FAF7EE"/>
</g>
</g>
</g>
</g>
<defs>
<radialGradient id="paint0_radial_391_2316" cx="0" cy="0" r="1" gradientUnits="userSpaceOnUse" gradientTransform="translate(721 481) rotate(90) scale(653.5 751.026)">
<stop/>
<stop offset="0.953125" stop-opacity="0"/>
</radialGradient>
<clipPath id="clip0_391_2316">
<rect width="1280" height="1440" fill="white" transform="translate(80)"/>
</clipPath>
<clipPath id="clip1_391_2316">
<rect width="1280" height="1440" fill="white" transform="translate(80)"/>
</clipPath>
<clipPath id="clip2_391_2316">
<rect width="1920" height="960" fill="white" transform="translate(-240)"/>
</clipPath>
</defs>
</svg>
