<svg width="291" height="291" viewBox="0 0 291 291" fill="none" xmlns="http://www.w3.org/2000/svg">
<g clip-path="url(#clip0_1079_2666)">
<path d="M0 180.67V199.555L91.4633 291H110.33L0 180.67Z" fill="#C1C1C1"/>
<path d="M0 133.151V152.018L138.982 291H157.867L0 133.151Z" fill="#C1C1C1"/>
<path d="M0 228.207V247.074L43.9262 291H62.8111L0 228.207Z" fill="#C1C1C1"/>
<path d="M0 85.6137V104.499L186.519 291H205.386L0 85.6137Z" fill="#C1C1C1"/>
<path d="M291 15.274V0H275.726L291 15.274Z" fill="#C1C1C1"/>
<path d="M0 275.726V291H15.274L0 275.726Z" fill="#C1C1C1"/>
<path d="M9.44242 0H0V9.44242L281.576 291H291V281.576L9.44242 0Z" fill="#C1C1C1"/>
<path d="M152.018 0H133.151L291 157.867V138.982L152.018 0Z" fill="#C1C1C1"/>
<path d="M199.555 0H180.67L291 110.33V91.4633L199.555 0Z" fill="#C1C1C1"/>
<path d="M0 38.0947V56.9615L234.039 291H252.923L0 38.0947Z" fill="#C1C1C1"/>
<path d="M247.074 0H228.207L291 62.8111V43.9262L247.074 0Z" fill="#C1C1C1"/>
<path d="M56.9615 0H38.0947L291 252.923V234.039L56.9615 0Z" fill="#C1C1C1"/>
<path d="M104.499 0H85.6137L291 205.386V186.519L104.499 0Z" fill="#C1C1C1"/>
</g>
<defs>
<clipPath id="clip0_1079_2666">
<rect width="291" height="291" fill="white"/>
</clipPath>
</defs>
</svg>
