<svg width="626" height="473" viewBox="0 0 626 473" fill="none" xmlns="http://www.w3.org/2000/svg">
<g opacity="0.5">
<path d="M607.74 103.72L603.67 93.34C587.21 65.85 573.64 55.08 537.66 40.92C530.91 41.81 521.95 43.26 515.28 44.56C558.45 54.5 587.42 67.37 607.74 103.71" fill="#D9E81B"/>
<path d="M401.51 45.43C424.47 42.3 462.91 37.06 504.42 42.77C511.44 41.14 520.85 39.17 527.95 37.94C489.28 28.98 458.39 26.05 396.9 34.89C398.46 38.36 400 41.88 401.51 45.42" fill="#D9E81B"/>
<path d="M506.06 69.47C555.33 76.59 592.89 89.71 616 130.59C614.51 125.12 612.45 117.84 610.76 112.42C591.89 80.89 566.72 59.57 499.7 50.67C501.66 56.29 504.23 63.8 506.05 69.47" fill="#D9E81B"/>
<path d="M315.75 98.82C366.11 81.57 426.24 63.63 502.7 69.13C500.84 63.47 498.31 55.94 496.31 50.33C443.62 47.1 391.34 50.97 307.47 80.34C309.97 85.88 313.29 93.27 315.75 98.83" fill="#D9E81B"/>
<path d="M128.37 209.66C170.05 173.81 221.13 135.74 311.91 100.24C309.43 94.69 306.11 87.3 303.59 81.77C251.19 102.67 189.32 130.17 118.18 192.29C121.21 197.52 125.27 204.48 128.37 209.66Z" fill="#D9E81B"/>
<path d="M592.76 72.8701C594.93 76.4601 598.09 81.1001 599.96 84.8501L596.39 77.3701C593.51 71.8701 589.68 64.5301 586.64 59.1201L581.87 51.7001C585.66 58.6701 589.04 65.8601 592.76 72.8801" fill="#D9E81B"/>
<path d="M581.67 60.0901C584.49 63.2301 588.48 67.2301 591.06 70.5801C584.39 56.8401 584.27 56.5801 580.18 49.4101C577.37 46.2601 573.84 41.8601 570.81 38.9301C574.1 44.9901 578.46 53.1001 581.34 59.3601C581.44 59.5801 581.54 59.8901 581.68 60.0901" fill="#D9E81B"/>
<path d="M568.12 49.0901C571.55 51.7901 576.31 55.1601 579.55 58.1001C572.89 44.3601 572.76 44.1001 568.68 36.9401C565.26 34.2401 560.86 30.4101 557.27 27.9501C560.55 34.0101 564.89 42.1101 567.78 48.3601C567.88 48.5801 567.97 48.9001 568.12 49.0901Z" fill="#D9E81B"/>
<path d="M552.27 39.9C556.27 42.15 561.73 44.92 565.59 47.41C558.93 33.67 558.8 33.41 554.76 26.28C550.77 24.02 545.56 20.8 541.46 18.78C544.73 24.83 549.06 32.93 551.94 39.18C552.04 39.4 552.11 39.72 552.27 39.9Z" fill="#D9E81B"/>
<path d="M534.3 32.52C538.82 34.32 544.94 36.49 549.37 38.53C542.71 24.79 542.58 24.53 538.56 17.41C534.04 15.6 528.1 12.98 523.5 11.41C526.76 17.46 531.07 25.56 533.96 31.8C534.06 32.02 534.12 32.36 534.3 32.53" fill="#D9E81B"/>
<path d="M514.37 26.94C519.38 28.29 526.11 29.87 531.06 31.44C524.39 17.7 524.26 17.44 520.28 10.34C515.29 8.98998 508.67 6.97998 503.63 5.84998C510.72 19.1 510.85 19.36 514.38 26.94" fill="#D9E81B"/>
<path d="M492.68 23.2C498.12 24.09 505.41 25.08 510.82 26.19C504.16 12.45 504.03 12.19 500.07 5.08999C494.64 4.18999 487.42 2.79999 481.96 2.10999C489 15.35 489.14 15.61 492.67 23.21" fill="#D9E81B"/>
<path d="M469.39 21.2801C475.23 21.7201 483.02 22.1101 488.85 22.7501C482.19 9.01006 482.06 8.75006 478.15 1.66006C472.32 1.22006 464.56 0.440063 458.73 0.190063C465.72 13.4301 465.85 13.6801 469.4 21.2701" fill="#D9E81B"/>
<path d="M444.67 21.2C450.86 21.18 459.11 20.97 465.3 21.15C458.64 7.41002 458.51 7.15002 454.63 0.0500243C448.45 0.0600243 440.2 -0.0899757 434.03 0.110024C440.97 13.35 441.11 13.6 444.67 21.2Z" fill="#D9E81B"/>
<path d="M103.82 165.3C244.67 44.1701 385.43 24.3201 439.41 21.4001C432.74 7.66007 432.62 7.40007 428.78 0.320068C257.28 13.2001 137.35 105.08 93.75 143.99C99.95 157.54 100.07 157.8 103.82 165.31" fill="#D9E81B"/>
<path d="M387.32 47.31C390.74 46.65 394.14 46.04 397.53 45.47L393.14 35.52L382.91 37.38L387.32 47.31Z" fill="#D9E81B"/>
<path d="M374.48 49.97C377.94 49.21 381.39 48.49 384.82 47.81L380.4 37.87C376.96 38.55 373.5 39.27 370.03 40.03L374.48 49.97Z" fill="#D9E81B"/>
<path d="M361.47 53.02L371.93 50.54C370.47 47.2 368.99 43.89 367.5 40.62C364.02 41.4 360.52 42.23 357.01 43.1C358.51 46.38 360 49.69 361.48 53.03" fill="#D9E81B"/>
<path d="M348.34 56.44C351.88 55.47 355.41 54.54 358.92 53.66L354.43 43.73L343.83 46.53L348.34 56.44Z" fill="#D9E81B"/>
<path d="M335.09 60.27C338.66 59.19 342.22 58.16 345.77 57.17L341.25 47.25C337.7 48.24 334.13 49.28 330.55 50.36L335.1 60.27" fill="#D9E81B"/>
<path d="M321.71 64.49L332.46 61.06C330.96 57.73 329.45 54.43 327.93 51.16C324.35 52.26 320.75 53.4 317.14 54.58C318.67 57.85 320.19 61.15 321.71 64.48" fill="#D9E81B"/>
<path d="M308.26 69.09C311.88 67.8 315.49 66.56 319.09 65.36L314.5 55.47L303.65 59.22L308.26 69.09Z" fill="#D9E81B"/>
<path d="M294.74 74.1C298.37 72.71 302 71.36 305.62 70.05L301 60.17C297.37 61.48 293.73 62.83 290.09 64.23L294.74 74.1Z" fill="#D9E81B"/>
<path d="M281.15 79.5L292.07 75.12C290.52 71.81 288.98 68.52 287.43 65.26C283.78 66.68 280.13 68.13 276.47 69.63C278.02 72.89 279.58 76.18 281.14 79.49" fill="#D9E81B"/>
<path d="M267.54 85.3L278.49 80.6L273.8 70.75L262.82 75.45L267.54 85.3Z" fill="#D9E81B"/>
<path d="M253.9 91.47C257.56 89.76 261.22 88.09 264.87 86.47L260.14 76.63C256.47 78.26 252.81 79.93 249.14 81.64L253.89 91.47" fill="#D9E81B"/>
<path d="M240.34 98.02L251.22 92.73C249.63 89.44 248.05 86.16 246.48 82.91C246.38 82.96 246.28 83 246.18 83.05C242.61 84.74 239.07 86.46 235.56 88.2C237.14 91.45 238.73 94.72 240.33 98.02" fill="#D9E81B"/>
<path d="M227.08 104.81L237.72 99.33L232.92 89.52L222.26 95.02L227.08 104.81Z" fill="#D9E81B"/>
<path d="M214.12 111.82C217.55 109.91 221.01 108.03 224.5 106.17C222.88 102.89 221.28 99.62 219.69 96.37L209.27 102.05L214.12 111.81" fill="#D9E81B"/>
<path d="M201.48 119.08L211.61 113.23C209.98 109.96 208.36 106.7 206.77 103.46C203.35 105.39 199.96 107.34 196.61 109.31C198.21 112.55 199.84 115.8 201.48 119.08Z" fill="#D9E81B"/>
<path d="M189.19 126.53L199.05 120.51L194.16 110.76L184.27 116.79L189.19 126.53Z" fill="#D9E81B"/>
<path d="M177.22 134.16C180.38 132.09 183.58 130.04 186.82 128.01L181.9 118.28L172.29 124.46L177.23 134.17" fill="#D9E81B"/>
<path d="M165.61 141.99L174.92 135.68C173.25 132.43 171.6 129.19 169.99 125.97C166.84 128.06 163.73 130.16 160.65 132.28C162.28 135.5 163.93 138.74 165.61 141.99Z" fill="#D9E81B"/>
<path d="M154.36 149.97L163.38 143.53L158.39 133.84L149.36 140.3L154.36 149.97Z" fill="#D9E81B"/>
<path d="M143.49 158.1C146.36 155.9 149.26 153.72 152.21 151.55L147.2 141.88L138.47 148.46L143.5 158.1" fill="#D9E81B"/>
<path d="M132.99 166.39L141.39 159.72C139.68 156.5 138.01 153.28 136.37 150.07C133.52 152.28 130.71 154.51 127.94 156.75C129.59 159.96 131.27 163.17 132.99 166.39Z" fill="#D9E81B"/>
<path d="M122.89 174.79L130.98 168.02L125.92 158.39L117.81 165.18L122.89 174.79Z" fill="#D9E81B"/>
<path d="M113.2 183.3C115.74 181.01 118.33 178.73 120.96 176.46C119.23 173.25 117.54 170.04 115.88 166.84L108.1 173.72L113.2 183.3Z" fill="#D9E81B"/>
<path d="M113.51 183.87L108.1 173.72C69.3803 210.43 53.8803 229.7 32.7503 267.41C30.8703 277.88 28.7503 291.93 27.5703 302.52C40.3303 270.26 56.5003 236.91 113.51 183.86" fill="#D9E81B"/>
<path d="M27.5701 383.05C22.0001 367.15 15.0701 347.36 24.6801 311.89C25.3701 301.39 26.7201 287.42 28.1301 277.02C13.6701 313.46 8.74009 338.38 21.9201 373.45L27.5701 383.06" fill="#D9E81B"/>
<path d="M39.08 342.57C50.42 302.22 69.95 264.18 128.37 209.66C125.28 204.47 121.19 197.53 118.18 192.29C74.32 233.88 42.19 272.63 27.98 326.57C31.25 331.41 35.66 337.83 39.08 342.57Z" fill="#D9E81B"/>
<path d="M38.5 345.27C35.11 340.52 30.64 334.15 27.4 329.3C23.69 354.97 22.41 375.36 39.81 404.04L47.34 414.87L54.57 424.5C44.79 409.75 30 387.46 38.5 345.27Z" fill="#D9E81B"/>
<path d="M87.25 181.04C92.22 176.32 98.73 169.9 103.81 165.3C97.13 151.57 97 151.3 93.74 143.98C88.78 148.68 82.05 154.84 77.21 159.67C83.37 173.26 83.49 173.52 87.25 181.03" fill="#D9E81B"/>
<path d="M69.2102 200.27C73.6602 195.47 79.4702 188.95 84.0402 184.27C77.3602 170.53 77.2402 170.27 74.0102 162.9C69.5602 167.69 63.5102 173.96 59.2002 178.87C65.3202 192.5 65.4402 192.76 69.2102 200.27Z" fill="#D9E81B"/>
<path d="M53.3601 219.73C57.2601 214.87 62.3301 208.29 66.3701 203.55C59.6901 189.81 59.5701 189.55 56.3701 182.16C52.4601 187 47.1201 193.34 43.3701 198.31C49.4701 211.98 49.5801 212.24 53.3601 219.73Z" fill="#D9E81B"/>
<path d="M39.7803 239.25C43.1103 234.38 47.4103 227.78 50.9003 223.03C44.2203 209.29 44.0903 209.03 40.9203 201.6C37.5803 206.46 32.9803 212.82 29.8203 217.79C35.8803 231.5 36.0003 231.76 39.7803 239.25Z" fill="#D9E81B"/>
<path d="M28.5904 258.69C31.3204 253.84 34.8004 247.28 37.7104 242.54C31.0304 228.81 30.9004 228.55 27.7504 221.1C25.0104 225.93 21.1904 232.27 18.6504 237.22C24.6904 250.97 24.8004 251.24 28.5904 258.7" fill="#D9E81B"/>
<path d="M19.9202 277.93C22.0202 273.14 24.6502 266.66 26.9502 261.97C20.2702 248.23 20.1402 247.97 17.0102 240.47C14.9002 245.25 11.8902 251.53 9.99023 256.4C16.0102 270.2 16.1302 270.46 19.9202 277.92" fill="#D9E81B"/>
<path d="M13.8499 296.81C15.2999 292.11 17.0299 285.77 18.7099 281.16C12.0299 267.43 11.8999 267.16 8.78994 259.65C7.32994 264.34 5.15994 270.52 3.93994 275.29C9.94994 289.12 10.0599 289.38 13.8599 296.82" fill="#D9E81B"/>
<path d="M10.5003 315.21C11.2703 310.64 12.0603 304.48 13.0903 299.97C6.41033 286.24 6.28033 285.97 3.17033 278.41C2.39033 282.97 1.09033 289.02 0.590332 293.63C6.59033 307.51 6.71033 307.77 10.5103 315.21" fill="#D9E81B"/>
<path d="M9.98016 332.96C10.0402 328.55 9.86016 322.64 10.2102 318.25C3.53016 304.52 3.40016 304.26 0.290164 296.67C0.220164 301.08 -0.159836 306.95 0.070164 311.36C6.07016 325.27 6.18016 325.54 9.98016 332.96Z" fill="#D9E81B"/>
<path d="M10.2403 336.54C3.56031 322.81 3.43031 322.55 0.320312 314.93C1.62031 322.9 4.10031 333.45 6.57031 341.16L11.0603 351.75L16.0703 362.55L19.8203 370.06C16.6403 362.46 12.2503 352.15 11.2003 344C10.9103 341.76 10.8903 338.71 10.2403 336.55" fill="#D9E81B"/>
<path d="M31.0604 390.16L28.2004 384.63C26.3704 381.65 24.6004 378.62 22.8804 375.56L25.6404 380.91L26.0504 381.65L31.0504 390.16" fill="#D9E81B"/>
<path d="M31.8201 391.47C30.8901 389.96 29.9801 388.44 29.0801 386.9L30.6101 389.48L32.7501 393.01L31.8301 391.47" fill="#D9E81B"/>
<path d="M620.6 142.08L622.92 150.02L619.66 137.58L616.08 125.72L615.5 123.98C617.11 129.39 619.11 136.64 620.6 142.08Z" fill="#D9E81B"/>
</g>
</svg>
