<svg width="240" height="605" viewBox="0 0 240 605" fill="none" xmlns="http://www.w3.org/2000/svg">
<mask id="path-1-outside-1_1079_2537" maskUnits="userSpaceOnUse" x="13" y="10.1597" width="214" height="591" fill="black">
<rect fill="white" x="13" y="10.1597" width="214" height="591"/>
<path d="M225 59.9197C225 70.8797 223.12 80.4397 219.36 88.5997C215.68 96.8397 210.48 103.24 203.76 107.8C197.04 112.36 189.12 114.64 180 114.64C170.96 114.64 163.04 112.36 156.24 107.8C149.52 103.24 144.28 96.8397 140.52 88.5997C136.84 80.4397 135 70.8797 135 59.9197V12.1597L225 12.1597V59.9197ZM148.8 42.8797L162.6 28.9597V62.3197C162.6 66.7197 163.28 70.4797 164.64 73.5997C166.08 76.7997 168.08 79.2397 170.64 80.9197C173.28 82.5997 176.4 83.4397 180 83.4397C183.68 83.4397 186.8 82.5997 189.36 80.9197C191.92 79.2397 193.88 76.7997 195.24 73.5997C196.68 70.4797 197.4 66.7197 197.4 62.3197V28.9597L211.2 42.8797L148.8 42.8797Z"/>
<path d="M150.12 141.215H174.72V202.535H150.12L150.12 141.215ZM225 193.055L135 232.535V199.535L211.32 168.455V176.375L135 145.295V112.295L225 151.775V193.055Z"/>
<path d="M186.48 260.746V290.986C186.48 294.026 187.2 296.386 188.64 298.066C190.08 299.746 192.16 300.586 194.88 300.586C197.6 300.586 199.68 299.746 201.12 298.066C202.56 296.386 203.28 294.026 203.28 290.986V256.426L217.2 270.346H135V239.386H225L225 295.786C225 302.986 223.72 309.266 221.16 314.626C218.68 320.066 215.2 324.266 210.72 327.226C206.24 330.266 200.96 331.786 194.88 331.786C188.96 331.786 183.72 330.266 179.16 327.226C174.68 324.266 171.2 320.066 168.72 314.626C166.24 309.266 165 302.986 165 295.786V260.746H186.48ZM177.12 271.306V305.506L135 335.386V299.986L177.12 271.306Z"/>
<path d="M190.68 424.783H169.32V356.983H190.68V424.783ZM180 378.223L146.52 372.703L159.48 360.943V429.223H135V342.103L180 348.703L225 342.103V428.623H200.52V360.943L213.48 372.703L180 378.223Z"/>
<path d="M105 230.076C105 241.036 103.12 250.596 99.36 258.756C95.68 266.996 90.48 273.396 83.76 277.956C77.04 282.516 69.12 284.796 60 284.796C50.96 284.796 43.04 282.516 36.24 277.956C29.52 273.396 24.28 266.996 20.52 258.756C16.84 250.596 15 241.036 15 230.076L15 182.316H105V230.076ZM28.8 213.036L42.6 199.116L42.6 232.476C42.6 236.876 43.28 240.636 44.64 243.756C46.08 246.956 48.08 249.396 50.64 251.076C53.28 252.756 56.4 253.596 60 253.596C63.68 253.596 66.8 252.756 69.36 251.076C71.92 249.396 73.88 246.956 75.24 243.756C76.68 240.636 77.4 236.876 77.4 232.476V199.116L91.2 213.036H28.8Z"/>
<path d="M30.12 311.371H54.72L54.72 372.691H30.12L30.12 311.371ZM105 363.211L15 402.691L15 369.691L91.32 338.611V346.531L15 315.451L15 282.451L105 321.931L105 363.211Z"/>
<path d="M66.48 430.902L66.48 461.142C66.48 464.182 67.2 466.542 68.64 468.222C70.08 469.902 72.16 470.742 74.88 470.742C77.6 470.742 79.68 469.902 81.12 468.222C82.56 466.542 83.28 464.182 83.28 461.142V426.582L97.2 440.502H15L15 409.542H105V465.942C105 473.142 103.72 479.422 101.16 484.782C98.68 490.222 95.2 494.422 90.72 497.382C86.24 500.422 80.96 501.942 74.88 501.942C68.96 501.942 63.72 500.422 59.16 497.382C54.68 494.422 51.2 490.222 48.72 484.782C46.24 479.422 45 473.142 45 465.942L45 430.902H66.48ZM57.12 441.462V475.662L15 505.542L15 470.142L57.12 441.462Z"/>
<path d="M70.68 594.94H49.32V527.14H70.68L70.68 594.94ZM60 548.38L26.52 542.86L39.48 531.1L39.48 599.38H15L15 512.26L60 518.86L105 512.26V598.78H80.52V531.1L93.48 542.86L60 548.38Z"/>
</mask>
<path d="M225 59.9197C225 70.8797 223.12 80.4397 219.36 88.5997C215.68 96.8397 210.48 103.24 203.76 107.8C197.04 112.36 189.12 114.64 180 114.64C170.96 114.64 163.04 112.36 156.24 107.8C149.52 103.24 144.28 96.8397 140.52 88.5997C136.84 80.4397 135 70.8797 135 59.9197V12.1597L225 12.1597V59.9197ZM148.8 42.8797L162.6 28.9597V62.3197C162.6 66.7197 163.28 70.4797 164.64 73.5997C166.08 76.7997 168.08 79.2397 170.64 80.9197C173.28 82.5997 176.4 83.4397 180 83.4397C183.68 83.4397 186.8 82.5997 189.36 80.9197C191.92 79.2397 193.88 76.7997 195.24 73.5997C196.68 70.4797 197.4 66.7197 197.4 62.3197V28.9597L211.2 42.8797L148.8 42.8797Z" fill="#131314"/>
<path d="M150.12 141.215H174.72V202.535H150.12L150.12 141.215ZM225 193.055L135 232.535V199.535L211.32 168.455V176.375L135 145.295V112.295L225 151.775V193.055Z" fill="#131314"/>
<path d="M186.48 260.746V290.986C186.48 294.026 187.2 296.386 188.64 298.066C190.08 299.746 192.16 300.586 194.88 300.586C197.6 300.586 199.68 299.746 201.12 298.066C202.56 296.386 203.28 294.026 203.28 290.986V256.426L217.2 270.346H135V239.386H225L225 295.786C225 302.986 223.72 309.266 221.16 314.626C218.68 320.066 215.2 324.266 210.72 327.226C206.24 330.266 200.96 331.786 194.88 331.786C188.96 331.786 183.72 330.266 179.16 327.226C174.68 324.266 171.2 320.066 168.72 314.626C166.24 309.266 165 302.986 165 295.786V260.746H186.48ZM177.12 271.306V305.506L135 335.386V299.986L177.12 271.306Z" fill="#131314"/>
<path d="M190.68 424.783H169.32V356.983H190.68V424.783ZM180 378.223L146.52 372.703L159.48 360.943V429.223H135V342.103L180 348.703L225 342.103V428.623H200.52V360.943L213.48 372.703L180 378.223Z" fill="#131314"/>
<path d="M105 230.076C105 241.036 103.12 250.596 99.36 258.756C95.68 266.996 90.48 273.396 83.76 277.956C77.04 282.516 69.12 284.796 60 284.796C50.96 284.796 43.04 282.516 36.24 277.956C29.52 273.396 24.28 266.996 20.52 258.756C16.84 250.596 15 241.036 15 230.076L15 182.316H105V230.076ZM28.8 213.036L42.6 199.116L42.6 232.476C42.6 236.876 43.28 240.636 44.64 243.756C46.08 246.956 48.08 249.396 50.64 251.076C53.28 252.756 56.4 253.596 60 253.596C63.68 253.596 66.8 252.756 69.36 251.076C71.92 249.396 73.88 246.956 75.24 243.756C76.68 240.636 77.4 236.876 77.4 232.476V199.116L91.2 213.036H28.8Z" fill="#131314"/>
<path d="M30.12 311.371H54.72L54.72 372.691H30.12L30.12 311.371ZM105 363.211L15 402.691L15 369.691L91.32 338.611V346.531L15 315.451L15 282.451L105 321.931L105 363.211Z" fill="#131314"/>
<path d="M66.48 430.902L66.48 461.142C66.48 464.182 67.2 466.542 68.64 468.222C70.08 469.902 72.16 470.742 74.88 470.742C77.6 470.742 79.68 469.902 81.12 468.222C82.56 466.542 83.28 464.182 83.28 461.142V426.582L97.2 440.502H15L15 409.542H105V465.942C105 473.142 103.72 479.422 101.16 484.782C98.68 490.222 95.2 494.422 90.72 497.382C86.24 500.422 80.96 501.942 74.88 501.942C68.96 501.942 63.72 500.422 59.16 497.382C54.68 494.422 51.2 490.222 48.72 484.782C46.24 479.422 45 473.142 45 465.942L45 430.902H66.48ZM57.12 441.462V475.662L15 505.542L15 470.142L57.12 441.462Z" fill="#131314"/>
<path d="M70.68 594.94H49.32V527.14H70.68L70.68 594.94ZM60 548.38L26.52 542.86L39.48 531.1L39.48 599.38H15L15 512.26L60 518.86L105 512.26V598.78H80.52V531.1L93.48 542.86L60 548.38Z" fill="#131314"/>
<path d="M225 59.9197C225 70.8797 223.12 80.4397 219.36 88.5997C215.68 96.8397 210.48 103.24 203.76 107.8C197.04 112.36 189.12 114.64 180 114.64C170.96 114.64 163.04 112.36 156.24 107.8C149.52 103.24 144.28 96.8397 140.52 88.5997C136.84 80.4397 135 70.8797 135 59.9197V12.1597L225 12.1597V59.9197ZM148.8 42.8797L162.6 28.9597V62.3197C162.6 66.7197 163.28 70.4797 164.64 73.5997C166.08 76.7997 168.08 79.2397 170.64 80.9197C173.28 82.5997 176.4 83.4397 180 83.4397C183.68 83.4397 186.8 82.5997 189.36 80.9197C191.92 79.2397 193.88 76.7997 195.24 73.5997C196.68 70.4797 197.4 66.7197 197.4 62.3197V28.9597L211.2 42.8797L148.8 42.8797Z" stroke="#D9E81B" stroke-width="2.45099" mask="url(#path-1-outside-1_1079_2537)"/>
<path d="M150.12 141.215H174.72V202.535H150.12L150.12 141.215ZM225 193.055L135 232.535V199.535L211.32 168.455V176.375L135 145.295V112.295L225 151.775V193.055Z" stroke="#D9E81B" stroke-width="2.45099" mask="url(#path-1-outside-1_1079_2537)"/>
<path d="M186.48 260.746V290.986C186.48 294.026 187.2 296.386 188.64 298.066C190.08 299.746 192.16 300.586 194.88 300.586C197.6 300.586 199.68 299.746 201.12 298.066C202.56 296.386 203.28 294.026 203.28 290.986V256.426L217.2 270.346H135V239.386H225L225 295.786C225 302.986 223.72 309.266 221.16 314.626C218.68 320.066 215.2 324.266 210.72 327.226C206.24 330.266 200.96 331.786 194.88 331.786C188.96 331.786 183.72 330.266 179.16 327.226C174.68 324.266 171.2 320.066 168.72 314.626C166.24 309.266 165 302.986 165 295.786V260.746H186.48ZM177.12 271.306V305.506L135 335.386V299.986L177.12 271.306Z" stroke="#D9E81B" stroke-width="2.45099" mask="url(#path-1-outside-1_1079_2537)"/>
<path d="M190.68 424.783H169.32V356.983H190.68V424.783ZM180 378.223L146.52 372.703L159.48 360.943V429.223H135V342.103L180 348.703L225 342.103V428.623H200.52V360.943L213.48 372.703L180 378.223Z" stroke="#D9E81B" stroke-width="2.45099" mask="url(#path-1-outside-1_1079_2537)"/>
<path d="M105 230.076C105 241.036 103.12 250.596 99.36 258.756C95.68 266.996 90.48 273.396 83.76 277.956C77.04 282.516 69.12 284.796 60 284.796C50.96 284.796 43.04 282.516 36.24 277.956C29.52 273.396 24.28 266.996 20.52 258.756C16.84 250.596 15 241.036 15 230.076L15 182.316H105V230.076ZM28.8 213.036L42.6 199.116L42.6 232.476C42.6 236.876 43.28 240.636 44.64 243.756C46.08 246.956 48.08 249.396 50.64 251.076C53.28 252.756 56.4 253.596 60 253.596C63.68 253.596 66.8 252.756 69.36 251.076C71.92 249.396 73.88 246.956 75.24 243.756C76.68 240.636 77.4 236.876 77.4 232.476V199.116L91.2 213.036H28.8Z" stroke="#D9E81B" stroke-width="2.45099" mask="url(#path-1-outside-1_1079_2537)"/>
<path d="M30.12 311.371H54.72L54.72 372.691H30.12L30.12 311.371ZM105 363.211L15 402.691L15 369.691L91.32 338.611V346.531L15 315.451L15 282.451L105 321.931L105 363.211Z" stroke="#D9E81B" stroke-width="2.45099" mask="url(#path-1-outside-1_1079_2537)"/>
<path d="M66.48 430.902L66.48 461.142C66.48 464.182 67.2 466.542 68.64 468.222C70.08 469.902 72.16 470.742 74.88 470.742C77.6 470.742 79.68 469.902 81.12 468.222C82.56 466.542 83.28 464.182 83.28 461.142V426.582L97.2 440.502H15L15 409.542H105V465.942C105 473.142 103.72 479.422 101.16 484.782C98.68 490.222 95.2 494.422 90.72 497.382C86.24 500.422 80.96 501.942 74.88 501.942C68.96 501.942 63.72 500.422 59.16 497.382C54.68 494.422 51.2 490.222 48.72 484.782C46.24 479.422 45 473.142 45 465.942L45 430.902H66.48ZM57.12 441.462V475.662L15 505.542L15 470.142L57.12 441.462Z" stroke="#D9E81B" stroke-width="2.45099" mask="url(#path-1-outside-1_1079_2537)"/>
<path d="M70.68 594.94H49.32V527.14H70.68L70.68 594.94ZM60 548.38L26.52 542.86L39.48 531.1L39.48 599.38H15L15 512.26L60 518.86L105 512.26V598.78H80.52V531.1L93.48 542.86L60 548.38Z" stroke="#D9E81B" stroke-width="2.45099" mask="url(#path-1-outside-1_1079_2537)"/>
</svg>
