<svg width="96" height="364" viewBox="0 0 96 364" fill="none" xmlns="http://www.w3.org/2000/svg">
<circle cx="13.9208" cy="362.198" r="1.80198" transform="rotate(-90 13.9208 362.198)" fill="#B7B7B7"/>
<circle cx="13.9208" cy="344.178" r="1.80198" transform="rotate(-90 13.9208 344.178)" fill="#B7B7B7"/>
<circle cx="13.9208" cy="326.158" r="1.80198" transform="rotate(-90 13.9208 326.158)" fill="#B7B7B7"/>
<circle cx="13.9208" cy="308.139" r="1.80198" transform="rotate(-90 13.9208 308.139)" fill="#B7B7B7"/>
<circle cx="13.9208" cy="290.119" r="1.80198" transform="rotate(-90 13.9208 290.119)" fill="#B7B7B7"/>
<circle cx="13.9208" cy="272.099" r="1.80198" transform="rotate(-90 13.9208 272.099)" fill="#B7B7B7"/>
<circle cx="13.9208" cy="254.079" r="1.80198" transform="rotate(-90 13.9208 254.079)" fill="#B7B7B7"/>
<circle cx="13.9208" cy="236.059" r="1.80198" transform="rotate(-90 13.9208 236.059)" fill="#B7B7B7"/>
<circle cx="13.9208" cy="218.04" r="1.80198" transform="rotate(-90 13.9208 218.04)" fill="#B7B7B7"/>
<circle cx="13.9208" cy="200.02" r="1.80198" transform="rotate(-90 13.9208 200.02)" fill="#B7B7B7"/>
<circle cx="13.9208" cy="182" r="1.80198" transform="rotate(-90 13.9208 182)" fill="#B7B7B7"/>
<circle cx="13.9208" cy="163.98" r="1.80198" transform="rotate(-90 13.9208 163.98)" fill="#B7B7B7"/>
<circle cx="13.9208" cy="145.96" r="1.80198" transform="rotate(-90 13.9208 145.96)" fill="#B7B7B7"/>
<circle cx="13.9208" cy="127.941" r="1.80198" transform="rotate(-90 13.9208 127.941)" fill="#B7B7B7"/>
<circle cx="13.9208" cy="109.921" r="1.80198" transform="rotate(-90 13.9208 109.921)" fill="#B7B7B7"/>
<circle cx="13.9208" cy="91.901" r="1.80198" transform="rotate(-90 13.9208 91.901)" fill="#B7B7B7"/>
<circle cx="13.9208" cy="73.8812" r="1.80198" transform="rotate(-90 13.9208 73.8812)" fill="#B7B7B7"/>
<circle cx="13.9208" cy="55.8614" r="1.80198" transform="rotate(-90 13.9208 55.8614)" fill="#B7B7B7"/>
<circle cx="13.9208" cy="37.8416" r="1.80198" transform="rotate(-90 13.9208 37.8416)" fill="#B7B7B7"/>
<circle cx="13.9208" cy="19.8218" r="1.80198" transform="rotate(-90 13.9208 19.8218)" fill="#B7B7B7"/>
<circle cx="13.9208" cy="1.80202" r="1.80198" transform="rotate(-90 13.9208 1.80202)" fill="#B7B7B7"/>
<circle cx="31.9407" cy="362.198" r="1.80198" transform="rotate(-90 31.9407 362.198)" fill="#B7B7B7"/>
<circle cx="31.9407" cy="344.178" r="1.80198" transform="rotate(-90 31.9407 344.178)" fill="#B7B7B7"/>
<circle cx="31.9407" cy="326.158" r="1.80198" transform="rotate(-90 31.9407 326.158)" fill="#B7B7B7"/>
<circle cx="31.9407" cy="308.139" r="1.80198" transform="rotate(-90 31.9407 308.139)" fill="#B7B7B7"/>
<circle cx="31.9407" cy="290.119" r="1.80198" transform="rotate(-90 31.9407 290.119)" fill="#B7B7B7"/>
<circle cx="31.9407" cy="272.099" r="1.80198" transform="rotate(-90 31.9407 272.099)" fill="#B7B7B7"/>
<circle cx="31.9407" cy="254.079" r="1.80198" transform="rotate(-90 31.9407 254.079)" fill="#B7B7B7"/>
<circle cx="31.9407" cy="236.059" r="1.80198" transform="rotate(-90 31.9407 236.059)" fill="#B7B7B7"/>
<circle cx="31.9407" cy="218.04" r="1.80198" transform="rotate(-90 31.9407 218.04)" fill="#B7B7B7"/>
<circle cx="31.9407" cy="200.02" r="1.80198" transform="rotate(-90 31.9407 200.02)" fill="#B7B7B7"/>
<circle cx="31.9407" cy="182" r="1.80198" transform="rotate(-90 31.9407 182)" fill="#B7B7B7"/>
<circle cx="31.9407" cy="163.98" r="1.80198" transform="rotate(-90 31.9407 163.98)" fill="#B7B7B7"/>
<circle cx="31.9407" cy="145.96" r="1.80198" transform="rotate(-90 31.9407 145.96)" fill="#B7B7B7"/>
<circle cx="31.9407" cy="127.941" r="1.80198" transform="rotate(-90 31.9407 127.941)" fill="#B7B7B7"/>
<circle cx="31.9407" cy="109.921" r="1.80198" transform="rotate(-90 31.9407 109.921)" fill="#B7B7B7"/>
<circle cx="31.9407" cy="91.901" r="1.80198" transform="rotate(-90 31.9407 91.901)" fill="#B7B7B7"/>
<circle cx="31.9407" cy="73.8812" r="1.80198" transform="rotate(-90 31.9407 73.8812)" fill="#B7B7B7"/>
<circle cx="31.9407" cy="55.8614" r="1.80198" transform="rotate(-90 31.9407 55.8614)" fill="#B7B7B7"/>
<circle cx="31.9407" cy="37.8416" r="1.80198" transform="rotate(-90 31.9407 37.8416)" fill="#B7B7B7"/>
<circle cx="31.9407" cy="19.8218" r="1.80198" transform="rotate(-90 31.9407 19.8218)" fill="#B7B7B7"/>
<circle cx="31.9407" cy="1.80202" r="1.80198" transform="rotate(-90 31.9407 1.80202)" fill="#B7B7B7"/>
<circle cx="49.9604" cy="362.198" r="1.80198" transform="rotate(-90 49.9604 362.198)" fill="#B7B7B7"/>
<circle cx="49.9604" cy="344.178" r="1.80198" transform="rotate(-90 49.9604 344.178)" fill="#B7B7B7"/>
<circle cx="49.9604" cy="326.158" r="1.80198" transform="rotate(-90 49.9604 326.158)" fill="#B7B7B7"/>
<circle cx="49.9604" cy="308.139" r="1.80198" transform="rotate(-90 49.9604 308.139)" fill="#B7B7B7"/>
<circle cx="49.9604" cy="290.119" r="1.80198" transform="rotate(-90 49.9604 290.119)" fill="#B7B7B7"/>
<circle cx="49.9604" cy="272.099" r="1.80198" transform="rotate(-90 49.9604 272.099)" fill="#B7B7B7"/>
<circle cx="49.9604" cy="254.079" r="1.80198" transform="rotate(-90 49.9604 254.079)" fill="#B7B7B7"/>
<circle cx="49.9604" cy="236.059" r="1.80198" transform="rotate(-90 49.9604 236.059)" fill="#B7B7B7"/>
<circle cx="49.9604" cy="218.04" r="1.80198" transform="rotate(-90 49.9604 218.04)" fill="#B7B7B7"/>
<circle cx="49.9604" cy="200.02" r="1.80198" transform="rotate(-90 49.9604 200.02)" fill="#B7B7B7"/>
<circle cx="49.9604" cy="182" r="1.80198" transform="rotate(-90 49.9604 182)" fill="#B7B7B7"/>
<circle cx="49.9604" cy="163.98" r="1.80198" transform="rotate(-90 49.9604 163.98)" fill="#B7B7B7"/>
<circle cx="49.9604" cy="145.96" r="1.80198" transform="rotate(-90 49.9604 145.96)" fill="#B7B7B7"/>
<circle cx="49.9604" cy="127.941" r="1.80198" transform="rotate(-90 49.9604 127.941)" fill="#B7B7B7"/>
<circle cx="49.9604" cy="109.921" r="1.80198" transform="rotate(-90 49.9604 109.921)" fill="#B7B7B7"/>
<circle cx="49.9604" cy="91.901" r="1.80198" transform="rotate(-90 49.9604 91.901)" fill="#B7B7B7"/>
<circle cx="49.9604" cy="73.8812" r="1.80198" transform="rotate(-90 49.9604 73.8812)" fill="#B7B7B7"/>
<circle cx="49.9604" cy="55.8614" r="1.80198" transform="rotate(-90 49.9604 55.8614)" fill="#B7B7B7"/>
<circle cx="49.9604" cy="37.8416" r="1.80198" transform="rotate(-90 49.9604 37.8416)" fill="#B7B7B7"/>
<circle cx="49.9604" cy="19.8218" r="1.80198" transform="rotate(-90 49.9604 19.8218)" fill="#B7B7B7"/>
<circle cx="49.9604" cy="1.80202" r="1.80198" transform="rotate(-90 49.9604 1.80202)" fill="#B7B7B7"/>
<circle cx="67.9802" cy="362.198" r="1.80198" transform="rotate(-90 67.9802 362.198)" fill="#B7B7B7"/>
<circle cx="67.9802" cy="344.178" r="1.80198" transform="rotate(-90 67.9802 344.178)" fill="#B7B7B7"/>
<circle cx="67.9802" cy="326.158" r="1.80198" transform="rotate(-90 67.9802 326.158)" fill="#B7B7B7"/>
<circle cx="67.9802" cy="308.139" r="1.80198" transform="rotate(-90 67.9802 308.139)" fill="#B7B7B7"/>
<circle cx="67.9802" cy="290.119" r="1.80198" transform="rotate(-90 67.9802 290.119)" fill="#B7B7B7"/>
<circle cx="67.9802" cy="272.099" r="1.80198" transform="rotate(-90 67.9802 272.099)" fill="#B7B7B7"/>
<circle cx="67.9802" cy="254.079" r="1.80198" transform="rotate(-90 67.9802 254.079)" fill="#B7B7B7"/>
<circle cx="67.9802" cy="236.059" r="1.80198" transform="rotate(-90 67.9802 236.059)" fill="#B7B7B7"/>
<circle cx="67.9802" cy="218.04" r="1.80198" transform="rotate(-90 67.9802 218.04)" fill="#B7B7B7"/>
<circle cx="67.9802" cy="200.02" r="1.80198" transform="rotate(-90 67.9802 200.02)" fill="#B7B7B7"/>
<circle cx="67.9802" cy="182" r="1.80198" transform="rotate(-90 67.9802 182)" fill="#B7B7B7"/>
<circle cx="67.9802" cy="163.98" r="1.80198" transform="rotate(-90 67.9802 163.98)" fill="#B7B7B7"/>
<circle cx="67.9802" cy="145.96" r="1.80198" transform="rotate(-90 67.9802 145.96)" fill="#B7B7B7"/>
<circle cx="67.9802" cy="127.941" r="1.80198" transform="rotate(-90 67.9802 127.941)" fill="#B7B7B7"/>
<circle cx="67.9802" cy="109.921" r="1.80198" transform="rotate(-90 67.9802 109.921)" fill="#B7B7B7"/>
<circle cx="67.9802" cy="91.901" r="1.80198" transform="rotate(-90 67.9802 91.901)" fill="#B7B7B7"/>
<circle cx="67.9802" cy="73.8812" r="1.80198" transform="rotate(-90 67.9802 73.8812)" fill="#B7B7B7"/>
<circle cx="67.9802" cy="55.8614" r="1.80198" transform="rotate(-90 67.9802 55.8614)" fill="#B7B7B7"/>
<circle cx="67.9802" cy="37.8416" r="1.80198" transform="rotate(-90 67.9802 37.8416)" fill="#B7B7B7"/>
<circle cx="67.9802" cy="19.8218" r="1.80198" transform="rotate(-90 67.9802 19.8218)" fill="#B7B7B7"/>
<circle cx="67.9802" cy="1.80202" r="1.80198" transform="rotate(-90 67.9802 1.80202)" fill="#B7B7B7"/>
<circle cx="86" cy="362.198" r="1.80198" transform="rotate(-90 86 362.198)" fill="#B7B7B7"/>
<circle cx="86" cy="344.178" r="1.80198" transform="rotate(-90 86 344.178)" fill="#B7B7B7"/>
<circle cx="86" cy="326.158" r="1.80198" transform="rotate(-90 86 326.158)" fill="#B7B7B7"/>
<circle cx="86" cy="308.139" r="1.80198" transform="rotate(-90 86 308.139)" fill="#B7B7B7"/>
<circle cx="86" cy="290.119" r="1.80198" transform="rotate(-90 86 290.119)" fill="#B7B7B7"/>
<circle cx="86" cy="272.099" r="1.80198" transform="rotate(-90 86 272.099)" fill="#B7B7B7"/>
<circle cx="86" cy="254.079" r="1.80198" transform="rotate(-90 86 254.079)" fill="#B7B7B7"/>
<circle cx="86" cy="236.059" r="1.80198" transform="rotate(-90 86 236.059)" fill="#B7B7B7"/>
<circle cx="86" cy="218.04" r="1.80198" transform="rotate(-90 86 218.04)" fill="#B7B7B7"/>
<circle cx="86" cy="200.02" r="1.80198" transform="rotate(-90 86 200.02)" fill="#B7B7B7"/>
<circle cx="86" cy="182" r="1.80198" transform="rotate(-90 86 182)" fill="#B7B7B7"/>
<circle cx="86" cy="163.98" r="1.80198" transform="rotate(-90 86 163.98)" fill="#B7B7B7"/>
<circle cx="86" cy="145.96" r="1.80198" transform="rotate(-90 86 145.96)" fill="#B7B7B7"/>
<circle cx="86" cy="127.941" r="1.80198" transform="rotate(-90 86 127.941)" fill="#B7B7B7"/>
<circle cx="86" cy="109.921" r="1.80198" transform="rotate(-90 86 109.921)" fill="#B7B7B7"/>
<circle cx="86" cy="91.901" r="1.80198" transform="rotate(-90 86 91.901)" fill="#B7B7B7"/>
<circle cx="86" cy="73.8812" r="1.80198" transform="rotate(-90 86 73.8812)" fill="#B7B7B7"/>
<circle cx="86" cy="55.8614" r="1.80198" transform="rotate(-90 86 55.8614)" fill="#B7B7B7"/>
<circle cx="86" cy="37.8416" r="1.80198" transform="rotate(-90 86 37.8416)" fill="#B7B7B7"/>
<circle cx="86" cy="19.8218" r="1.80198" transform="rotate(-90 86 19.8218)" fill="#B7B7B7"/>
<circle cx="86" cy="1.80202" r="1.80198" transform="rotate(-90 86 1.80202)" fill="#B7B7B7"/>
</svg>
