<svg width="565" height="198" viewBox="0 0 565 198" fill="none" xmlns="http://www.w3.org/2000/svg">
<mask id="path-1-outside-1_678_18365" maskUnits="userSpaceOnUse" x="-1" y="-1.17236" width="568" height="200" fill="black">
<rect fill="white" x="-1" y="-1.17236" width="568" height="200"/>
<path d="M40.8733 2.26047C50.1975 2.26047 58.3306 3.85987 65.2727 7.05868C72.2829 10.1894 77.7276 14.6133 81.6071 20.3303C85.4865 26.0473 87.4262 32.7852 87.4262 40.5441C87.4262 48.2348 85.4865 54.9727 81.6071 60.7578C77.7276 66.4748 72.2829 70.9327 65.2727 74.1315C58.3306 77.2623 50.1975 78.8276 40.8733 78.8276L0.241676 78.8276L0.241676 2.26047L40.8733 2.26047ZM26.3766 67.0873L14.5342 55.347L42.9151 55.347C46.6584 55.347 49.8572 54.7685 52.5115 53.6115C55.2339 52.3864 57.3097 50.6849 58.739 48.507C60.1682 46.2611 60.8829 43.6067 60.8829 40.5441C60.8829 37.4133 60.1682 34.759 58.739 32.5811C57.3097 30.4032 55.2339 28.7357 52.5115 27.5787C49.8572 26.3536 46.6584 25.7411 42.9151 25.7411L14.5342 25.7411L26.3766 14.0008L26.3766 67.0873ZM139.708 47.1799V30.9476L178.502 78.8276H146.14L123.272 48.507H136.543L113.471 78.8276H81.5169L120.617 30.9476L120.617 47.1799L83.4566 2.26047L116.432 2.26047L137.054 29.5184H123.782L143.996 2.26047L176.562 2.26047L139.708 47.1799ZM249.566 58.8181C249.566 63.7184 248.035 67.802 244.972 71.0688C241.909 74.2676 237.621 76.6838 232.109 78.3172C226.664 79.8826 220.266 80.6652 212.916 80.6652C205.361 80.6652 198.691 79.7805 192.906 78.0109C187.189 76.1733 182.663 73.6211 179.328 70.3542C176.061 67.0873 174.326 63.276 174.122 58.9202H200.461C200.937 60.2133 201.754 61.3023 202.911 62.187C204.068 63.0038 205.565 63.6503 207.403 64.1267C209.309 64.5351 211.623 64.7393 214.345 64.7393C217.612 64.7393 220.096 64.433 221.798 63.8205C223.499 63.1399 224.35 62.2211 224.35 61.0641C224.35 59.907 223.635 59.0903 222.206 58.6139C220.777 58.1375 218.463 57.7972 215.264 57.593L205.667 56.9805C198.249 56.5041 192.328 55.5512 187.904 54.122C183.548 52.6247 180.417 50.6169 178.512 48.0987C176.606 45.5805 175.653 42.5518 175.653 39.0127C175.653 34.3166 177.116 30.4372 180.043 27.3745C183.038 24.3118 187.189 22.0318 192.498 20.5345C197.806 19.0372 204 18.2885 211.078 18.2885C218.02 18.2885 224.18 19.1733 229.556 20.9429C234.933 22.6443 239.255 25.0605 242.522 28.1912C245.789 31.322 247.694 34.9632 248.239 39.1148L221.9 39.1148C221.559 37.8897 220.879 36.8348 219.858 35.95C218.837 35.0652 217.51 34.3846 215.876 33.9082C214.243 33.4318 212.269 33.1936 209.955 33.1936C206.824 33.1936 204.544 33.5679 203.115 34.3166C201.686 34.9972 200.971 35.916 200.971 37.073C200.971 38.162 201.414 38.9447 202.298 39.4211C203.183 39.8294 204.919 40.1017 207.505 40.2378L220.368 41.0545C227.719 41.4629 233.504 42.4157 237.724 43.913C242.011 45.3423 245.04 47.282 246.809 49.7321C248.647 52.1823 249.566 55.2109 249.566 58.8181ZM257.132 20.1261L283.062 20.1261V34.6229L282.042 37.4814V56.8784L283.062 62.4933V95.6724H257.132V20.1261ZM275.406 49.5279C276.086 43.1303 277.754 37.6175 280.408 32.9894C283.13 28.2933 286.67 24.6861 291.025 22.1679C295.381 19.5817 300.316 18.2885 305.828 18.2885C311.613 18.2885 316.65 19.5817 320.938 22.1679C325.225 24.7542 328.56 28.3954 330.942 33.0915C333.393 37.7876 334.618 43.2664 334.618 49.5279C334.618 55.7214 333.393 61.1661 330.942 65.8623C328.56 70.5584 325.225 74.1996 320.938 76.7858C316.65 79.3721 311.613 80.6652 305.828 80.6652C300.248 80.6652 295.279 79.3721 290.923 76.7858C286.636 74.1996 283.165 70.5924 280.51 65.9644C277.856 61.2682 276.154 55.7894 275.406 49.5279ZM308.483 49.5279C308.483 47.282 308.006 45.2742 307.053 43.5046C306.169 41.7351 304.876 40.3399 303.174 39.319C301.541 38.2981 299.635 37.7876 297.457 37.7876C295.211 37.7876 293.033 38.2981 290.923 39.319C288.813 40.3399 286.976 41.7351 285.41 43.5046C283.845 45.2742 282.722 47.282 282.042 49.5279C282.722 51.7739 283.845 53.7817 285.41 55.5512C286.976 57.2527 288.813 58.6139 290.923 59.6348C293.033 60.6557 295.211 61.1661 297.457 61.1661C299.635 61.1661 301.541 60.6557 303.174 59.6348C304.876 58.6139 306.169 57.2527 307.053 55.5512C308.006 53.7817 308.483 51.7739 308.483 49.5279ZM394.032 78.8276L391.072 58.1035L394.032 49.5279L391.072 41.0545L394.032 20.1261L420.984 20.1261L416.9 49.4258L420.984 78.8276H394.032ZM399.443 49.5279C398.762 55.7894 397.061 61.2682 394.338 65.9644C391.684 70.5924 388.179 74.1996 383.823 76.7858C379.535 79.3721 374.601 80.6652 369.02 80.6652C363.303 80.6652 358.267 79.3721 353.911 76.7858C349.623 74.1996 346.254 70.5584 343.804 65.8623C341.422 61.1661 340.231 55.7214 340.231 49.5279C340.231 43.2664 341.422 37.7876 343.804 33.0915C346.254 28.3954 349.623 24.7542 353.911 22.1679C358.267 19.5817 363.303 18.2885 369.02 18.2885C374.601 18.2885 379.535 19.5817 383.823 22.1679C388.179 24.6861 391.718 28.2933 394.441 32.9894C397.163 37.6175 398.83 43.1303 399.443 49.5279ZM366.366 49.5279C366.366 51.7739 366.808 53.7817 367.693 55.5512C368.646 57.2527 369.939 58.6139 371.572 59.6348C373.274 60.6557 375.214 61.1661 377.392 61.1661C379.638 61.1661 381.815 60.6557 383.925 59.6348C386.035 58.6139 387.873 57.2527 389.438 55.5512C391.072 53.7817 392.195 51.7739 392.807 49.5279C392.195 47.282 391.072 45.2742 389.438 43.5046C387.873 41.7351 386.035 40.3399 383.925 39.319C381.815 38.2981 379.638 37.7876 377.392 37.7876C375.214 37.7876 373.274 38.2981 371.572 39.319C369.939 40.3399 368.646 41.7351 367.693 43.5046C366.808 45.2742 366.366 47.282 366.366 49.5279ZM426.452 20.1261L452.995 20.1261L456.466 40.8503V78.8276H430.536V40.5441L426.452 20.1261ZM482.397 18.9011V40.8503C480.083 40.442 478.007 40.1697 476.17 40.0336C474.332 39.8294 472.699 39.7273 471.269 39.7273C468.683 39.7273 466.267 40.2038 464.021 41.1566C461.775 42.0414 459.937 43.6748 458.508 46.0569C457.147 48.439 456.466 51.842 456.466 56.2658L451.872 50.5488C452.553 46.3291 453.404 42.3136 454.425 38.5023C455.514 34.6229 456.943 31.1858 458.712 28.1912C460.482 25.1285 462.728 22.7124 465.45 20.9429C468.173 19.1733 471.576 18.2885 475.659 18.2885C476.68 18.2885 477.735 18.3566 478.824 18.4927C479.913 18.5608 481.104 18.6969 482.397 18.9011ZM514.858 58.716L507.915 56.47L537.215 20.1261L563.554 20.1261L511.795 78.8276H488.927V0.218676L514.858 0.218676V58.716ZM520.472 50.4467L540.482 37.6855L564.984 78.8276H536.194L520.472 50.4467ZM40.8733 104.26C50.1975 104.26 58.3306 105.86 65.2727 109.059C72.2829 112.189 77.7276 116.613 81.6071 122.33C85.4865 128.047 87.4262 134.785 87.4262 142.544C87.4262 150.235 85.4865 156.973 81.6071 162.758C77.7276 168.475 72.2829 172.933 65.2727 176.132C58.3306 179.262 50.1975 180.828 40.8733 180.828H0.241676L0.241676 104.26L40.8733 104.26ZM26.3766 169.087L14.5342 157.347H42.9151C46.6584 157.347 49.8572 156.769 52.5115 155.612C55.2339 154.386 57.3097 152.685 58.739 150.507C60.1682 148.261 60.8829 145.607 60.8829 142.544C60.8829 139.413 60.1682 136.759 58.739 134.581C57.3097 132.403 55.2339 130.736 52.5115 129.579C49.8572 128.354 46.6584 127.741 42.9151 127.741H14.5342L26.3766 116.001L26.3766 169.087ZM139.708 149.18V132.948L178.502 180.828H146.14L123.272 150.507H136.543L113.471 180.828L81.5169 180.828L120.617 132.948V149.18L83.4566 104.26H116.432L137.054 131.518H123.782L143.996 104.26H176.562L139.708 149.18ZM249.566 160.818C249.566 165.718 248.035 169.802 244.972 173.069C241.909 176.268 237.621 178.684 232.109 180.317C226.664 181.883 220.266 182.665 212.916 182.665C205.361 182.665 198.691 181.78 192.906 180.011C187.189 178.173 182.663 175.621 179.328 172.354C176.061 169.087 174.326 165.276 174.122 160.92H200.461C200.937 162.213 201.754 163.302 202.911 164.187C204.068 165.004 205.565 165.65 207.403 166.127C209.309 166.535 211.623 166.739 214.345 166.739C217.612 166.739 220.096 166.433 221.798 165.82C223.499 165.14 224.35 164.221 224.35 163.064C224.35 161.907 223.635 161.09 222.206 160.614C220.777 160.137 218.463 159.797 215.264 159.593L205.667 158.98C198.249 158.504 192.328 157.551 187.904 156.122C183.548 154.625 180.417 152.617 178.512 150.099C176.606 147.58 175.653 144.552 175.653 141.013C175.653 136.317 177.116 132.437 180.043 129.375C183.038 126.312 187.189 124.032 192.498 122.534C197.806 121.037 204 120.289 211.078 120.289C218.02 120.289 224.18 121.173 229.556 122.943C234.933 124.644 239.255 127.06 242.522 130.191C245.789 133.322 247.694 136.963 248.239 141.115H221.9C221.559 139.89 220.879 138.835 219.858 137.95C218.837 137.065 217.51 136.385 215.876 135.908C214.243 135.432 212.269 135.194 209.955 135.194C206.824 135.194 204.544 135.568 203.115 136.317C201.686 136.997 200.971 137.916 200.971 139.073C200.971 140.162 201.414 140.945 202.298 141.421C203.183 141.829 204.919 142.102 207.505 142.238L220.368 143.055C227.719 143.463 233.504 144.416 237.724 145.913C242.011 147.342 245.04 149.282 246.809 151.732C248.647 154.182 249.566 157.211 249.566 160.818ZM257.132 122.126L283.062 122.126V136.623L282.042 139.481V158.878L283.062 164.493L283.062 197.672L257.132 197.672L257.132 122.126ZM275.406 151.528C276.086 145.13 277.754 139.617 280.408 134.989C283.13 130.293 286.67 126.686 291.025 124.168C295.381 121.582 300.316 120.289 305.828 120.289C311.613 120.289 316.65 121.582 320.938 124.168C325.225 126.754 328.56 130.395 330.942 135.092C333.393 139.788 334.618 145.266 334.618 151.528C334.618 157.721 333.393 163.166 330.942 167.862C328.56 172.558 325.225 176.2 320.938 178.786C316.65 181.372 311.613 182.665 305.828 182.665C300.248 182.665 295.279 181.372 290.923 178.786C286.636 176.2 283.165 172.592 280.51 167.964C277.856 163.268 276.154 157.789 275.406 151.528ZM308.483 151.528C308.483 149.282 308.006 147.274 307.053 145.505C306.169 143.735 304.876 142.34 303.174 141.319C301.541 140.298 299.635 139.788 297.457 139.788C295.211 139.788 293.033 140.298 290.923 141.319C288.813 142.34 286.976 143.735 285.41 145.505C283.845 147.274 282.722 149.282 282.042 151.528C282.722 153.774 283.845 155.782 285.41 157.551C286.976 159.253 288.813 160.614 290.923 161.635C293.033 162.656 295.211 163.166 297.457 163.166C299.635 163.166 301.541 162.656 303.174 161.635C304.876 160.614 306.169 159.253 307.053 157.551C308.006 155.782 308.483 153.774 308.483 151.528ZM394.032 180.828L391.072 160.103L394.032 151.528L391.072 143.055L394.032 122.126H420.984L416.9 151.426L420.984 180.828H394.032ZM399.443 151.528C398.762 157.789 397.061 163.268 394.338 167.964C391.684 172.592 388.179 176.2 383.823 178.786C379.535 181.372 374.601 182.665 369.02 182.665C363.303 182.665 358.267 181.372 353.911 178.786C349.623 176.2 346.254 172.558 343.804 167.862C341.422 163.166 340.231 157.721 340.231 151.528C340.231 145.266 341.422 139.788 343.804 135.092C346.254 130.395 349.623 126.754 353.911 124.168C358.267 121.582 363.303 120.289 369.02 120.289C374.601 120.289 379.535 121.582 383.823 124.168C388.179 126.686 391.718 130.293 394.441 134.989C397.163 139.617 398.83 145.13 399.443 151.528ZM366.366 151.528C366.366 153.774 366.808 155.782 367.693 157.551C368.646 159.253 369.939 160.614 371.572 161.635C373.274 162.656 375.214 163.166 377.392 163.166C379.638 163.166 381.815 162.656 383.925 161.635C386.035 160.614 387.873 159.253 389.438 157.551C391.072 155.782 392.195 153.774 392.807 151.528C392.195 149.282 391.072 147.274 389.438 145.505C387.873 143.735 386.035 142.34 383.925 141.319C381.815 140.298 379.638 139.788 377.392 139.788C375.214 139.788 373.274 140.298 371.572 141.319C369.939 142.34 368.646 143.735 367.693 145.505C366.808 147.274 366.366 149.282 366.366 151.528ZM426.452 122.126L452.995 122.126L456.466 142.85L456.466 180.828L430.536 180.828L430.536 142.544L426.452 122.126ZM482.397 120.901V142.85C480.083 142.442 478.007 142.17 476.17 142.034C474.332 141.829 472.699 141.727 471.269 141.727C468.683 141.727 466.267 142.204 464.021 143.157C461.775 144.041 459.937 145.675 458.508 148.057C457.147 150.439 456.466 153.842 456.466 158.266L451.872 152.549C452.553 148.329 453.404 144.314 454.425 140.502C455.514 136.623 456.943 133.186 458.712 130.191C460.482 127.129 462.728 124.712 465.45 122.943C468.173 121.173 471.576 120.289 475.659 120.289C476.68 120.289 477.735 120.357 478.824 120.493C479.913 120.561 481.104 120.697 482.397 120.901ZM514.858 160.716L507.915 158.47L537.215 122.126H563.554L511.795 180.828H488.927L488.927 102.219H514.858V160.716ZM520.472 152.447L540.482 139.686L564.984 180.828H536.194L520.472 152.447Z"/>
</mask>
<path d="M65.2727 7.05868L64.8364 8.00564L64.8476 8.01064L65.2727 7.05868ZM81.6071 20.3303L82.4698 19.7449L81.6071 20.3303ZM81.6071 60.7578L82.4698 61.3432L82.473 61.3385L81.6071 60.7578ZM65.2727 74.1315L65.7013 75.0819L65.7055 75.08L65.2727 74.1315ZM0.241676 78.8276H-0.800909V79.8702H0.241676V78.8276ZM0.241676 2.26047V1.21788L-0.800909 1.21788V2.26047L0.241676 2.26047ZM26.3766 67.0873L25.6426 67.8277L27.4192 69.589V67.0873H26.3766ZM14.5342 55.347V54.3045H12.0017L13.8002 56.0874L14.5342 55.347ZM52.5115 53.6115L52.9282 54.5673L52.9394 54.5623L52.5115 53.6115ZM58.739 48.507L59.6106 49.0791L59.6147 49.0729L59.6186 49.0668L58.739 48.507ZM58.739 32.5811L57.8673 33.1531V33.1531L58.739 32.5811ZM52.5115 27.5787L52.0746 28.5253L52.0891 28.532L52.1037 28.5382L52.5115 27.5787ZM14.5342 25.7411L13.8002 25.0007L12.0017 26.7836H14.5342V25.7411ZM26.3766 14.0008L27.4192 14.0008L27.4192 11.4991L25.6426 13.2604L26.3766 14.0008ZM40.8733 3.30305C50.0793 3.30305 58.0578 4.8821 64.8364 8.00558L65.709 6.11178C58.6035 2.83764 50.3157 1.21788 40.8733 1.21788V3.30305ZM64.8476 8.01064C71.7009 11.0714 76.9857 15.3767 80.7443 20.9157L82.4698 19.7449C78.4696 13.8499 72.8648 9.30749 65.6979 6.10672L64.8476 8.01064ZM80.7443 20.9157C84.4924 26.4392 86.3836 32.9674 86.3836 40.5441H88.4687C88.4687 32.6031 86.4805 25.6555 82.4698 19.7449L80.7443 20.9157ZM86.3836 40.5441C86.3836 48.0504 84.4935 54.5815 80.7411 60.1771L82.473 61.3385C86.4794 55.3639 88.4687 48.4192 88.4687 40.5441H86.3836ZM80.7443 60.1724C76.9843 65.7135 71.6968 70.0541 64.8399 73.183L65.7055 75.08C72.8689 71.8113 78.471 67.2361 82.4698 61.3432L80.7443 60.1724ZM64.8441 73.1811C58.0634 76.2391 50.0821 77.785 40.8733 77.785V79.8702C50.3129 79.8702 58.5978 78.2855 65.7013 75.0819L64.8441 73.1811ZM40.8733 77.785L0.241676 77.785V79.8702L40.8733 79.8702V77.785ZM1.28426 78.8276L1.28426 2.26047L-0.800909 2.26047L-0.800909 78.8276H1.28426ZM0.241676 3.30305L40.8733 3.30305V1.21788L0.241676 1.21788V3.30305ZM27.1106 66.3469L15.2682 54.6066L13.8002 56.0874L25.6426 67.8277L27.1106 66.3469ZM14.5342 56.3896L42.9151 56.3896L42.9151 54.3045L14.5342 54.3045V56.3896ZM42.9151 56.3896C46.7616 56.3896 50.11 55.7957 52.9281 54.5673L52.0949 52.6558C49.6045 53.7414 46.5552 54.3045 42.9151 54.3045L42.9151 56.3896ZM52.9394 54.5623C55.8157 53.2679 58.0573 51.4461 59.6106 49.0791L57.8673 47.935C56.5622 49.9238 54.6522 51.5049 52.0837 52.6608L52.9394 54.5623ZM59.6186 49.0668C61.1696 46.6295 61.9255 43.7745 61.9255 40.5441L59.8403 40.5441C59.8403 43.439 59.1669 45.8926 57.8594 47.9473L59.6186 49.0668ZM61.9255 40.5441C61.9255 37.2516 61.1722 34.3886 59.6106 32.009L57.8673 33.1531C59.1643 35.1294 59.8403 37.575 59.8403 40.5441L61.9255 40.5441ZM59.6106 32.009C58.0536 29.6364 55.8047 27.8454 52.9193 26.6192L52.1037 28.5382C54.6631 29.6259 56.5659 31.1699 57.8673 33.1531L59.6106 32.009ZM52.9484 26.6321C50.1244 25.3286 46.7685 24.6985 42.9151 24.6985V26.7836C46.5483 26.7836 49.59 27.3786 52.0746 28.5253L52.9484 26.6321ZM42.9151 24.6985L14.5342 24.6985V26.7836L42.9151 26.7836V24.6985ZM15.2682 26.4815L27.1106 14.7412L25.6426 13.2604L13.8002 25.0007L15.2682 26.4815ZM25.334 14.0008L25.334 67.0873H27.4192L27.4192 14.0008L25.334 14.0008ZM139.708 47.1799H138.665V50.0943L140.514 47.8412L139.708 47.1799ZM139.708 30.9476L140.518 30.2913L138.665 28.0047V30.9476H139.708ZM178.502 78.8276V79.8702H180.689L179.312 78.1713L178.502 78.8276ZM146.14 78.8276L145.307 79.4554L145.62 79.8702H146.14V78.8276ZM123.272 48.507V47.4645H121.179L122.439 49.1348L123.272 48.507ZM136.543 48.507L137.373 49.1384L138.647 47.4645H136.543V48.507ZM113.471 78.8276V79.8702H113.988L114.301 79.459L113.471 78.8276ZM81.5169 78.8276L80.7094 78.1682L79.3195 79.8702H81.5169V78.8276ZM120.617 30.9476H121.66V28.0226L119.81 30.2882L120.617 30.9476ZM120.617 47.1799L119.814 47.8444L121.66 50.0758V47.1799H120.617ZM83.4566 2.26047V1.21788H81.241L82.6533 2.92503L83.4566 2.26047ZM116.432 2.26047L117.263 1.63143L116.95 1.21788H116.432V2.26047ZM137.054 29.5184V30.561H139.15L137.885 28.8893L137.054 29.5184ZM123.782 29.5184L122.945 28.8974L121.711 30.561H123.782V29.5184ZM143.996 2.26047V1.21788H143.471L143.158 1.63944L143.996 2.26047ZM176.562 2.26047L177.368 2.92177L178.766 1.21788H176.562V2.26047ZM140.751 47.1799V30.9476H138.665V47.1799H140.751ZM138.898 31.604L177.692 79.484L179.312 78.1713L140.518 30.2913L138.898 31.604ZM178.502 77.785H146.14L146.14 79.8702H178.502L178.502 77.785ZM146.972 78.1998L124.104 47.8792L122.439 49.1348L145.307 79.4554L146.972 78.1998ZM123.272 49.5496H136.543V47.4645H123.272V49.5496ZM135.714 47.8757L112.641 78.1963L114.301 79.459L137.373 49.1384L135.714 47.8757ZM113.471 77.785H81.5169V79.8702H113.471V77.785ZM82.3244 79.4871L121.425 31.6071L119.81 30.2882L80.7094 78.1682L82.3244 79.4871ZM119.575 30.9476L119.575 47.1799H121.66L121.66 30.9476H119.575ZM121.421 46.5153L84.2599 1.5959L82.6533 2.92503L119.814 47.8444L121.421 46.5153ZM83.4566 3.30305L116.432 3.30305V1.21788L83.4566 1.21788V3.30305ZM115.6 2.8895L136.222 30.1474L137.885 28.8893L117.263 1.63143L115.6 2.8895ZM137.054 28.4758H123.782V30.561H137.054V28.4758ZM124.619 30.1394L144.833 2.88149L143.158 1.63944L122.945 28.8974L124.619 30.1394ZM143.996 3.30305L176.562 3.30305V1.21788L143.996 1.21788V3.30305ZM175.756 1.59916L138.902 46.5186L140.514 47.8412L177.368 2.92177L175.756 1.59916ZM244.972 71.0688L245.725 71.7899L245.732 71.7819L244.972 71.0688ZM232.109 78.3172L232.397 79.3192L232.405 79.3168L232.109 78.3172ZM192.906 78.0109L192.587 79.0035L192.594 79.0058L192.601 79.0079L192.906 78.0109ZM179.328 70.3542L178.591 71.0915L178.599 71.099L179.328 70.3542ZM174.122 58.9202V57.8776H173.029L173.08 58.969L174.122 58.9202ZM200.461 58.9202L201.439 58.5597L201.188 57.8776H200.461V58.9202ZM202.911 62.187L202.278 63.0152L202.293 63.0273L202.31 63.0388L202.911 62.187ZM207.403 64.1267L207.141 65.136L207.163 65.1415L207.184 65.1462L207.403 64.1267ZM221.798 63.8205L222.151 64.8014L222.168 64.7953L222.185 64.7885L221.798 63.8205ZM222.206 58.6139L222.536 57.6248L222.206 58.6139ZM215.264 57.593L215.197 58.6335L215.264 57.593ZM205.667 56.9805L205.601 58.0209L205.601 58.0209L205.667 56.9805ZM187.904 54.122L187.565 55.1079L187.574 55.1111L187.583 55.1141L187.904 54.122ZM178.512 48.0987L179.343 47.4695V47.4695L178.512 48.0987ZM180.043 27.3745L179.297 26.6456L179.289 26.6542L180.043 27.3745ZM192.498 20.5345L192.781 21.5379L192.498 20.5345ZM229.556 20.9429L229.23 21.9333L229.242 21.9369L229.556 20.9429ZM242.522 28.1912L241.8 28.944L242.522 28.1912ZM248.239 39.1148V40.1574H249.427L249.272 38.9792L248.239 39.1148ZM221.9 39.1148L220.895 39.3938L221.107 40.1574H221.9V39.1148ZM219.858 35.95L220.541 35.1622L219.858 35.95ZM215.876 33.9082L216.168 32.9073L215.876 33.9082ZM203.115 34.3166L203.563 35.2579L203.581 35.2494L203.599 35.2401L203.115 34.3166ZM202.298 39.4211L201.804 40.339L201.832 40.3542L201.862 40.3677L202.298 39.4211ZM207.505 40.2378L207.571 39.1972L207.56 39.1966L207.505 40.2378ZM220.368 41.0545L220.302 42.095L220.31 42.0955L220.368 41.0545ZM237.724 43.913L237.375 44.8956L237.384 44.8989L237.394 44.9021L237.724 43.913ZM246.809 49.7321L245.964 50.3425L245.97 50.3501L245.975 50.3577L246.809 49.7321ZM248.523 58.8181C248.523 63.4807 247.075 67.3011 244.211 70.3558L245.732 71.7819C248.994 68.3028 250.608 63.956 250.608 58.8181H248.523ZM244.219 70.3478C241.314 73.3821 237.202 75.7207 231.812 77.3176L232.405 79.3168C238.041 77.6468 242.505 75.1532 245.725 71.7899L244.219 70.3478ZM231.821 77.3152C226.492 78.847 220.196 79.6227 212.916 79.6227V81.7078C220.336 81.7078 226.835 80.9181 232.397 79.3192L231.821 77.3152ZM212.916 79.6227C205.44 79.6227 198.876 78.7468 193.211 77.0139L192.601 79.0079C198.506 80.8141 205.282 81.7078 212.916 81.7078V79.6227ZM193.225 77.0183C187.62 75.2166 183.249 72.7352 180.058 69.6094L178.599 71.099C182.078 74.5069 186.759 77.13 192.587 79.0035L193.225 77.0183ZM180.066 69.617C176.97 66.5217 175.354 62.9514 175.163 58.8714L173.08 58.969C173.297 63.6006 175.153 67.6529 178.591 71.0914L180.066 69.617ZM174.122 59.9628H200.461V57.8776H174.122V59.9628ZM199.483 59.2806C200.031 60.77 200.973 62.0175 202.278 63.0152L203.544 61.3589C202.535 60.587 201.843 59.6567 201.439 58.5597L199.483 59.2806ZM202.31 63.0388C203.598 63.9481 205.221 64.6381 207.141 65.136L207.665 63.1175C205.91 62.6626 204.538 62.0594 203.512 61.3353L202.31 63.0388ZM207.184 65.1462C209.184 65.5746 211.576 65.7819 214.345 65.7819V63.6967C211.669 63.6967 209.433 63.4956 207.621 63.1073L207.184 65.1462ZM214.345 65.7819C217.651 65.7819 220.279 65.4752 222.151 64.8014L221.444 62.8395C219.913 63.3908 217.572 63.6967 214.345 63.6967V65.7819ZM222.185 64.7885C224.02 64.0544 225.392 62.8727 225.392 61.0641H223.307C223.307 61.5694 222.978 62.2253 221.41 62.8525L222.185 64.7885ZM225.392 61.0641C225.392 60.2512 225.134 59.5089 224.598 58.8972C224.081 58.3054 223.361 57.8999 222.536 57.6248L221.876 59.603C222.48 59.8043 222.832 60.0453 223.029 60.2703C223.209 60.4754 223.307 60.7199 223.307 61.0641H225.392ZM222.536 57.6248C220.97 57.103 218.542 56.7575 215.33 56.5525L215.197 58.6335C218.384 58.8369 220.583 59.1719 221.876 59.603L222.536 57.6248ZM215.33 56.5525L205.734 55.94L205.601 58.0209L215.197 58.6335L215.33 56.5525ZM205.734 55.94C198.357 55.4663 192.532 54.5216 188.224 53.1299L187.583 55.1141C192.123 56.5808 198.141 57.5418 205.601 58.0209L205.734 55.94ZM188.243 53.136C183.998 51.6767 181.078 49.7629 179.343 47.4695L177.68 48.7278C179.756 51.4709 183.098 53.5726 187.565 55.1079L188.243 53.136ZM179.343 47.4695C177.591 45.1541 176.696 42.3535 176.696 39.0127H174.61C174.61 42.7501 175.621 46.0068 177.68 48.7278L179.343 47.4695ZM176.696 39.0127C176.696 34.5532 178.076 30.9417 180.797 28.0948L179.289 26.6542C176.156 29.9327 174.61 34.08 174.61 39.0127H176.696ZM180.788 28.1034C183.624 25.2034 187.598 22.9997 192.781 21.5379L192.215 19.5311C186.78 21.0639 182.451 23.4202 179.297 26.6456L180.788 28.1034ZM192.781 21.5379C197.976 20.0727 204.07 19.3311 211.078 19.3311V17.2459C203.93 17.2459 197.637 18.0016 192.215 19.5311L192.781 21.5379ZM211.078 19.3311C217.934 19.3311 223.98 20.2051 229.23 21.9332L229.882 19.9525C224.38 18.1415 218.107 17.2459 211.078 17.2459V19.3311ZM229.242 21.9369C234.503 23.6018 238.674 25.9476 241.8 28.944L243.243 27.4385C239.836 24.1734 235.363 21.6869 229.871 19.9489L229.242 21.9369ZM241.8 28.944C244.911 31.9247 246.694 35.3535 247.205 39.2504L249.272 38.9792C248.695 34.5728 246.667 30.7192 243.243 27.4385L241.8 28.944ZM248.239 38.0722L221.9 38.0722V40.1574L248.239 40.1574V38.0722ZM222.904 38.8358C222.506 37.4005 221.706 36.1724 220.541 35.1622L219.175 36.7379C220.051 37.4972 220.613 38.3789 220.895 39.3938L222.904 38.8358ZM220.541 35.1622C219.381 34.157 217.91 33.4152 216.168 32.9073L215.584 34.9091C217.11 35.3541 218.293 35.9735 219.175 36.7379L220.541 35.1622ZM216.168 32.9073C214.413 32.3954 212.335 32.151 209.955 32.151V34.2362C212.203 34.2362 214.073 34.4683 215.584 34.9091L216.168 32.9073ZM209.955 32.151C206.786 32.151 204.294 32.5224 202.631 33.393L203.599 35.2401C204.795 34.6135 206.863 34.2362 209.955 34.2362V32.151ZM202.667 33.3753C201.031 34.1544 199.929 35.3657 199.929 37.073H202.014C202.014 36.4663 202.341 35.84 203.563 35.2579L202.667 33.3753ZM199.929 37.073C199.929 37.7594 200.069 38.412 200.395 38.9897C200.725 39.572 201.21 40.0189 201.804 40.339L202.793 38.5031C202.503 38.3469 202.324 38.1641 202.211 37.9637C202.095 37.7588 202.014 37.4755 202.014 37.073H199.929ZM201.862 40.3677C202.435 40.6323 203.202 40.8204 204.102 40.9615C205.018 41.1051 206.136 41.2098 207.45 41.2789L207.56 39.1966C206.287 39.1297 205.245 39.0302 204.425 38.9015C203.589 38.7704 203.047 38.6182 202.735 38.4744L201.862 40.3677ZM207.439 41.2783L220.302 42.095L220.434 40.014L207.571 39.1973L207.439 41.2783ZM220.31 42.0955C227.617 42.5014 233.289 43.4459 237.375 44.8956L238.072 42.9304C233.718 41.3855 227.821 40.4243 220.426 40.0135L220.31 42.0955ZM237.394 44.9021C241.572 46.2947 244.372 48.1376 245.964 50.3425L247.655 49.1217C245.708 46.4263 242.451 44.3899 238.053 42.9239L237.394 44.9021ZM245.975 50.3577C247.655 52.5968 248.523 55.395 248.523 58.8181H250.608C250.608 55.0268 249.639 51.7678 247.644 49.1066L245.975 50.3577ZM257.132 20.1261V19.0836H256.089V20.1261H257.132ZM283.062 20.1261H284.105V19.0836H283.062V20.1261ZM283.062 34.6229L284.044 34.9735L284.105 34.8034V34.6229H283.062ZM282.042 37.4814L281.06 37.1307L280.999 37.3008V37.4814L282.042 37.4814ZM282.042 56.8784H280.999V56.9724L281.016 57.0649L282.042 56.8784ZM283.062 62.4933H284.105V62.3993L284.088 62.3068L283.062 62.4933ZM283.062 95.6724V96.715H284.105V95.6724H283.062ZM257.132 95.6724H256.089V96.715H257.132V95.6724ZM275.406 49.5279L274.369 49.4176L274.357 49.5348L274.371 49.6517L275.406 49.5279ZM280.408 32.9894L279.506 32.4665L279.504 32.4707L280.408 32.9894ZM291.025 22.1679L291.547 23.0706L291.558 23.0644L291.025 22.1679ZM320.938 22.1679L320.399 23.0607L320.938 22.1679ZM330.942 33.0915L330.013 33.5632L330.018 33.5738L330.942 33.0915ZM330.942 65.8623L330.018 65.38L330.013 65.3906L330.942 65.8623ZM320.938 76.7858L320.399 75.8931L320.938 76.7858ZM290.923 76.7858L290.385 77.6786L290.391 77.6823L290.923 76.7858ZM280.51 65.9644L279.603 66.4774L279.606 66.4831L280.51 65.9644ZM307.053 43.5047L306.121 43.9709L306.128 43.985L306.135 43.9989L307.053 43.5047ZM303.174 39.319L302.621 40.2031L302.63 40.2081L302.638 40.213L303.174 39.319ZM290.923 39.319L290.469 38.3805L290.923 39.319ZM285.41 43.5047L284.63 42.8139L285.41 43.5047ZM282.042 49.5279L281.044 49.2256L280.952 49.5279L281.044 49.8303L282.042 49.5279ZM285.41 55.5512L284.63 56.242L284.636 56.2496L284.643 56.2571L285.41 55.5512ZM290.923 59.6348L290.469 60.5733L290.923 59.6348ZM303.174 59.6348L302.638 58.7408L302.63 58.7457L302.621 58.7507L303.174 59.6348ZM307.053 55.5512L306.135 55.0569L306.132 55.0635L306.128 55.0702L307.053 55.5512ZM257.132 21.1687L283.062 21.1687V19.0836L257.132 19.0836V21.1687ZM282.02 20.1261V34.6229H284.105V20.1261H282.02ZM282.081 34.2722L281.06 37.1307L283.023 37.832L284.044 34.9735L282.081 34.2722ZM280.999 37.4814V56.8784H283.084V37.4814L280.999 37.4814ZM281.016 57.0649L282.037 62.6798L284.088 62.3068L283.067 56.6919L281.016 57.0649ZM282.02 62.4933V95.6724H284.105V62.4933H282.02ZM283.062 94.6298H257.132V96.715H283.062V94.6298ZM258.174 95.6724V20.1261H256.089V95.6724H258.174ZM276.442 49.6382C277.111 43.3554 278.743 37.9876 281.312 33.5081L279.504 32.4707C276.764 37.2473 275.062 42.9052 274.369 49.4176L276.442 49.6382ZM281.31 33.5123C283.949 28.961 287.361 25.4904 291.547 23.0705L290.504 21.2653C285.978 23.8819 282.312 27.6256 279.506 32.4665L281.31 33.5123ZM291.558 23.0644C295.738 20.5821 300.486 19.3311 305.828 19.3311V17.2459C300.145 17.2459 295.024 18.5812 290.493 21.2715L291.558 23.0644ZM305.828 19.3311C311.454 19.3311 316.298 20.5868 320.399 23.0607L321.476 21.2752C317.002 18.5765 311.773 17.2459 305.828 17.2459V19.3311ZM320.399 23.0607C324.511 25.5407 327.714 29.0319 330.013 33.5632L331.872 32.6199C329.407 27.7589 325.94 23.9677 321.476 21.2752L320.399 23.0607ZM330.018 33.5738C332.378 38.0961 333.575 43.4039 333.575 49.5279H335.66C335.66 43.129 334.408 37.4791 331.867 32.6092L330.018 33.5738ZM333.575 49.5279C333.575 55.5819 332.378 60.8561 330.018 65.38L331.867 66.3445C334.407 61.4762 335.66 55.8609 335.66 49.5279H333.575ZM330.013 65.3906C327.714 69.9219 324.511 73.4131 320.399 75.8931L321.476 77.6786C325.94 74.9861 329.407 71.1949 331.872 66.3339L330.013 65.3906ZM320.399 75.8931C316.298 78.3669 311.454 79.6227 305.828 79.6227V81.7078C311.773 81.7078 317.002 80.3773 321.476 77.6786L320.399 75.8931ZM305.828 79.6227C300.415 79.6227 295.634 78.3705 291.456 75.8894L290.391 77.6823C294.924 80.3738 300.08 81.7078 305.828 81.7078V79.6227ZM291.462 75.8931C287.336 73.4044 283.987 69.9304 281.415 65.4457L279.606 66.4831C282.342 71.2545 285.935 74.9948 290.385 77.6786L291.462 75.8931ZM281.418 65.4513C278.842 60.8938 277.176 55.5516 276.441 49.4042L274.371 49.6517C275.133 56.0273 276.87 61.6427 279.603 66.4774L281.418 65.4513ZM309.525 49.5279C309.525 47.13 309.015 44.949 307.971 43.0104L306.135 43.9989C306.997 45.5994 307.44 47.4339 307.44 49.5279H309.525ZM307.986 43.0384C307.012 41.0909 305.581 39.5476 303.71 38.425L302.638 40.213C304.17 41.1322 305.325 42.3793 306.121 43.9709L307.986 43.0384ZM303.727 38.4349C301.907 37.2973 299.804 36.745 297.457 36.745V38.8302C299.466 38.8302 301.175 39.2988 302.621 40.2031L303.727 38.4349ZM297.457 36.745C295.047 36.745 292.714 37.2942 290.469 38.3805L291.377 40.2575C293.352 39.302 295.375 38.8302 297.457 38.8302V36.745ZM290.469 38.3805C288.234 39.462 286.286 40.9418 284.63 42.8139L286.191 44.1954C287.666 42.5284 289.393 41.2178 291.377 40.2575L290.469 38.3805ZM284.63 42.8139C282.966 44.695 281.768 46.835 281.044 49.2256L283.039 49.8303C283.676 47.7289 284.725 45.8534 286.191 44.1954L284.63 42.8139ZM281.044 49.8303C281.768 52.2208 282.966 54.3609 284.63 56.242L286.191 54.8604C284.725 53.2025 283.676 51.327 283.039 49.2256L281.044 49.8303ZM284.643 56.2571C286.299 58.0565 288.243 59.4961 290.469 60.5733L291.377 58.6963C289.384 57.7318 287.653 56.4489 286.178 54.8453L284.643 56.2571ZM290.469 60.5733C292.714 61.6596 295.047 62.2087 297.457 62.2087V60.1236C295.375 60.1236 293.352 59.6518 291.377 58.6963L290.469 60.5733ZM297.457 62.2087C299.804 62.2087 301.907 61.6564 303.727 60.5189L302.621 58.7507C301.175 59.655 299.466 60.1236 297.457 60.1236V62.2087ZM303.71 60.5288C305.571 59.4124 307.002 57.9108 307.978 56.0322L306.128 55.0702C305.336 56.5947 304.18 57.8154 302.638 58.7408L303.71 60.5288ZM307.971 56.0455C309.015 54.1069 309.525 51.9258 309.525 49.5279H307.44C307.44 51.622 306.997 53.4565 306.135 55.0569L307.971 56.0455ZM394.032 78.8276L393 78.9751L393.128 79.8702H394.032V78.8276ZM391.072 58.1035L390.086 57.7632L390.004 58.0014L390.039 58.2509L391.072 58.1035ZM394.032 49.5279L395.018 49.8682L395.136 49.5259L395.016 49.184L394.032 49.5279ZM391.072 41.0545L390.039 40.9085L390.004 41.1593L390.087 41.3984L391.072 41.0545ZM394.032 20.1261V19.0836H393.127L393 19.9801L394.032 20.1261ZM420.984 20.1261L422.016 20.2701L422.182 19.0836H420.984V20.1261ZM416.9 49.4258L415.868 49.2819L415.848 49.4256L415.868 49.5693L416.9 49.4258ZM420.984 78.8276V79.8702H422.181L422.016 78.6842L420.984 78.8276ZM399.443 49.5279L400.479 49.6406L400.491 49.5346L400.481 49.4286L399.443 49.5279ZM394.338 65.9644L393.436 65.4415L393.434 65.4457L394.338 65.9644ZM383.823 76.7858L383.291 75.8894L383.285 75.8931L383.823 76.7858ZM353.911 76.7858L353.372 77.6786L353.379 77.6823L353.911 76.7858ZM343.804 65.8623L342.874 66.3339L342.88 66.3445L343.804 65.8623ZM343.804 33.0915L342.88 32.6092L342.874 32.6199L343.804 33.0915ZM353.911 22.1679L353.379 21.2714L353.372 21.2752L353.911 22.1679ZM383.823 22.1679L383.285 23.0607L383.293 23.0657L383.301 23.0705L383.823 22.1679ZM394.441 32.9894L393.539 33.5123L393.542 33.518L394.441 32.9894ZM367.693 55.5512L366.761 56.0175L366.771 56.0393L366.783 56.0606L367.693 55.5512ZM371.572 59.6348L371.02 60.5189L371.028 60.5239L371.036 60.5288L371.572 59.6348ZM383.925 59.6348L384.379 60.5733L383.925 59.6348ZM389.438 55.5512L388.672 54.844L388.671 54.8453L389.438 55.5512ZM392.807 49.5279L393.813 49.8023L393.888 49.5279L393.813 49.2536L392.807 49.5279ZM389.438 43.5047L388.657 44.1954L388.665 44.2037L388.672 44.2118L389.438 43.5047ZM383.925 39.319L384.379 38.3805L383.925 39.319ZM371.572 39.319L371.036 38.425L371.028 38.4298L371.02 38.4349L371.572 39.319ZM367.693 43.5047L366.775 43.0104L366.768 43.0243L366.761 43.0384L367.693 43.5047ZM395.064 78.6802L392.104 57.956L390.039 58.2509L393 78.9751L395.064 78.6802ZM392.057 58.4437L395.018 49.8682L393.047 49.1877L390.086 57.7632L392.057 58.4437ZM395.016 49.184L392.056 40.7106L390.087 41.3984L393.048 49.8718L395.016 49.184ZM392.104 41.2005L395.064 20.2722L393 19.9801L390.039 40.9085L392.104 41.2005ZM394.032 21.1687L420.984 21.1687V19.0836L394.032 19.0836V21.1687ZM419.951 19.9822L415.868 49.2819L417.933 49.5698L422.016 20.2701L419.951 19.9822ZM415.868 49.5693L419.951 78.9711L422.016 78.6842L417.933 49.2824L415.868 49.5693ZM420.984 77.785H394.032V79.8702H420.984V77.785ZM398.406 49.4153C397.739 55.5551 396.075 60.8898 393.436 65.4415L395.24 66.4872C398.047 61.6467 399.786 56.0237 400.479 49.6406L398.406 49.4153ZM393.434 65.4457C390.864 69.9264 387.484 73.3998 383.291 75.8894L384.355 77.6823C388.874 74.9994 392.504 71.2584 395.243 66.483L393.434 65.4457ZM383.285 75.8931C379.178 78.3704 374.434 79.6227 369.02 79.6227V81.7078C374.769 81.7078 379.893 80.3738 384.362 77.6786L383.285 75.8931ZM369.02 79.6227C363.466 79.6227 358.618 78.3682 354.443 75.8894L353.379 77.6823C357.916 80.3761 363.141 81.7078 369.02 81.7078V79.6227ZM354.449 75.8931C350.335 73.4114 347.095 69.9167 344.728 65.38L342.88 66.3445C345.413 71.2001 348.911 74.9877 353.372 77.6786L354.449 75.8931ZM344.734 65.3906C342.438 60.8643 341.274 55.5863 341.274 49.5279H339.188C339.188 55.8565 340.406 61.4679 342.874 66.3339L344.734 65.3906ZM341.274 49.5279C341.274 43.3995 342.439 38.0879 344.734 33.5632L342.874 32.6199C340.405 37.4873 339.188 43.1333 339.188 49.5279H341.274ZM344.728 33.5738C347.095 29.0371 350.335 25.5423 354.449 23.0607L353.372 21.2752C348.911 23.9661 345.413 27.7537 342.88 32.6092L344.728 33.5738ZM354.443 23.0644C358.618 20.5856 363.466 19.3311 369.02 19.3311V17.2459C363.141 17.2459 357.916 18.5777 353.379 21.2715L354.443 23.0644ZM369.02 19.3311C374.434 19.3311 379.178 20.5834 383.285 23.0607L384.362 21.2752C379.893 18.58 374.769 17.2459 369.02 17.2459V19.3311ZM383.301 23.0705C387.487 25.4904 390.9 28.961 393.539 33.5123L395.342 32.4665C392.536 27.6256 388.871 23.8819 384.345 21.2653L383.301 23.0705ZM393.542 33.518C396.173 37.9916 397.804 43.3518 398.405 49.6273L400.481 49.4286C399.857 42.9088 398.152 37.2434 395.339 32.4608L393.542 33.518ZM365.323 49.5279C365.323 51.9137 365.794 54.0847 366.761 56.0175L368.626 55.085C367.822 53.4787 367.408 51.6341 367.408 49.5279H365.323ZM366.783 56.0606C367.821 57.9131 369.236 59.4039 371.02 60.5189L372.125 58.7507C370.642 57.8239 369.471 56.5924 368.603 55.0418L366.783 56.0606ZM371.036 60.5288C372.915 61.6563 375.044 62.2087 377.392 62.2087V60.1236C375.384 60.1236 373.633 59.6551 372.109 58.7408L371.036 60.5288ZM377.392 62.2087C379.802 62.2087 382.134 61.6596 384.379 60.5733L383.471 58.6963C381.497 59.6518 379.473 60.1236 377.392 60.1236V62.2087ZM384.379 60.5733C386.606 59.4961 388.55 58.0565 390.205 56.2571L388.671 54.8453C387.196 56.4489 385.465 57.7318 383.471 58.6963L384.379 60.5733ZM390.204 56.2584C391.947 54.3703 393.155 52.2153 393.813 49.8023L391.801 49.2536C391.234 51.3325 390.196 53.1931 388.672 54.8441L390.204 56.2584ZM393.813 49.2536C393.155 46.8405 391.947 44.6856 390.204 42.7975L388.672 44.2118C390.196 45.8628 391.234 47.7234 391.801 49.8023L393.813 49.2536ZM390.219 42.8139C388.563 40.9418 386.615 39.462 384.379 38.3805L383.471 40.2575C385.456 41.2178 387.183 42.5284 388.657 44.1954L390.219 42.8139ZM384.379 38.3805C382.134 37.2942 379.802 36.745 377.392 36.745V38.8302C379.473 38.8302 381.497 39.302 383.471 40.2575L384.379 38.3805ZM377.392 36.745C375.044 36.745 372.915 37.2975 371.036 38.425L372.109 40.213C373.633 39.2987 375.384 38.8302 377.392 38.8302V36.745ZM371.02 38.4349C369.226 39.556 367.81 41.0885 366.775 43.0104L368.611 43.9989C369.482 42.3817 370.652 41.1237 372.125 40.2031L371.02 38.4349ZM366.761 43.0384C365.794 44.9712 365.323 47.1421 365.323 49.5279H367.408C367.408 47.4218 367.822 45.5772 368.626 43.9709L366.761 43.0384ZM426.452 20.1261V19.0836H425.18L425.43 20.3306L426.452 20.1261ZM452.995 20.1261L454.024 19.9539L453.878 19.0836H452.995V20.1261ZM456.466 40.8503H457.509V40.7636L457.495 40.6781L456.466 40.8503ZM456.466 78.8276V79.8702H457.509V78.8276H456.466ZM430.536 78.8276H429.493V79.8702H430.536V78.8276ZM430.536 40.5441H431.578V40.4408L431.558 40.3396L430.536 40.5441ZM482.397 18.9011H483.44V18.0102L482.56 17.8712L482.397 18.9011ZM482.397 40.8503L482.216 41.877L483.44 42.093V40.8503H482.397ZM476.17 40.0336L476.055 41.0698L476.074 41.0719L476.093 41.0733L476.17 40.0336ZM464.021 41.1566L464.403 42.1266L464.416 42.1217L464.428 42.1164L464.021 41.1566ZM458.508 46.0569L457.614 45.5205L457.608 45.53L457.603 45.5396L458.508 46.0569ZM456.466 56.2658L455.654 56.9189L457.509 59.2277V56.2658H456.466ZM451.872 50.5488L450.843 50.3828L450.769 50.8405L451.06 51.2019L451.872 50.5488ZM454.425 38.5023L453.421 38.2205L453.417 38.2325L454.425 38.5023ZM458.712 28.1912L459.61 28.7216L459.615 28.7128L458.712 28.1912ZM465.45 20.9429L466.018 21.817L465.45 20.9429ZM478.824 18.4927L478.695 19.5272L478.727 19.5312L478.759 19.5333L478.824 18.4927ZM426.452 21.1687L452.995 21.1687V19.0836L426.452 19.0836V21.1687ZM451.967 20.2984L455.438 41.0225L457.495 40.6781L454.024 19.9539L451.967 20.2984ZM455.424 40.8503V78.8276H457.509V40.8503H455.424ZM456.466 77.785H430.536V79.8702H456.466V77.785ZM431.578 78.8276V40.5441H429.493V78.8276H431.578ZM431.558 40.3396L427.474 19.9217L425.43 20.3306L429.513 40.7485L431.558 40.3396ZM481.355 18.9011V40.8503H483.44V18.9011H481.355ZM482.578 39.8236C480.239 39.4107 478.127 39.1332 476.247 38.9939L476.093 41.0733C477.887 41.2063 479.927 41.4732 482.216 41.877L482.578 39.8236ZM476.285 38.9974C474.419 38.7901 472.746 38.6847 471.269 38.6847V40.7699C472.651 40.7699 474.245 40.8687 476.055 41.0698L476.285 38.9974ZM471.269 38.6847C468.552 38.6847 465.996 39.1861 463.614 40.1968L464.428 42.1164C466.538 41.2214 468.814 40.7699 471.269 40.7699V38.6847ZM463.639 40.1866C461.148 41.1679 459.143 42.9724 457.614 45.5205L459.402 46.5933C460.732 44.3772 462.402 42.9148 464.403 42.1266L463.639 40.1866ZM457.603 45.5396C456.113 48.1478 455.424 51.7604 455.424 56.2658H457.509C457.509 51.9236 458.181 48.7302 459.413 46.5742L457.603 45.5396ZM457.279 55.6128L452.685 49.8958L451.06 51.2019L455.654 56.9189L457.279 55.6128ZM452.902 50.7148C453.577 46.5272 454.421 42.5465 455.432 38.772L453.417 38.2325C452.387 42.0807 451.529 46.131 450.843 50.3828L452.902 50.7148ZM455.428 38.784C456.497 34.9783 457.893 31.6272 459.61 28.7216L457.815 27.6608C455.993 30.7445 454.53 34.2674 453.421 38.2205L455.428 38.784ZM459.615 28.7128C461.31 25.7794 463.446 23.4892 466.018 21.817L464.882 20.0687C462.01 21.9356 459.654 24.4777 457.81 27.6696L459.615 28.7128ZM466.018 21.817C468.533 20.1826 471.725 19.3311 475.659 19.3311V17.2459C471.426 17.2459 467.812 18.164 464.882 20.0687L466.018 21.817ZM475.659 19.3311C476.634 19.3311 477.645 19.3961 478.695 19.5272L478.953 17.4582C477.825 17.3171 476.726 17.2459 475.659 17.2459V19.3311ZM478.759 19.5333C479.81 19.5989 480.968 19.7308 482.234 19.9309L482.56 17.8712C481.24 17.6629 480.016 17.5226 478.889 17.4522L478.759 19.5333ZM514.858 58.716L514.537 59.708L515.9 60.1491V58.716H514.858ZM507.915 56.47L507.104 55.8157L506.153 56.9955L507.595 57.462L507.915 56.47ZM537.215 20.1261V19.0836H536.716L536.404 19.4718L537.215 20.1261ZM563.554 20.1261L564.336 20.8157L565.864 19.0836H563.554V20.1261ZM511.795 78.8276V79.8702H512.266L512.577 79.5172L511.795 78.8276ZM488.927 78.8276H487.884V79.8702H488.927V78.8276ZM488.927 0.218677V-0.823909H487.884V0.218677H488.927ZM514.858 0.218677H515.9V-0.823909H514.858V0.218677ZM520.472 50.4467L519.912 49.5677L519.086 50.0947L519.56 50.9519L520.472 50.4467ZM540.482 37.6855L541.378 37.1521L540.828 36.2285L539.921 36.8065L540.482 37.6855ZM564.984 78.8276V79.8702H566.818L565.879 78.2942L564.984 78.8276ZM536.194 78.8276L535.282 79.3328L535.58 79.8702H536.194V78.8276ZM515.178 57.724L508.236 55.4781L507.595 57.462L514.537 59.708L515.178 57.724ZM508.727 57.1244L538.027 20.7805L536.404 19.4718L507.104 55.8157L508.727 57.1244ZM537.215 21.1687L563.554 21.1687V19.0836L537.215 19.0836V21.1687ZM562.772 19.4366L511.013 78.1381L512.577 79.5172L564.336 20.8157L562.772 19.4366ZM511.795 77.785H488.927V79.8702H511.795V77.785ZM489.969 78.8276V0.218677H487.884V78.8276H489.969ZM488.927 1.26126L514.858 1.26126V-0.823909L488.927 -0.823909V1.26126ZM513.815 0.218677V58.716H515.9V0.218677H513.815ZM521.033 51.3258L541.043 38.5646L539.921 36.8065L519.912 49.5677L521.033 51.3258ZM539.586 38.219L564.088 79.3611L565.879 78.2942L541.378 37.1521L539.586 38.219ZM564.984 77.785H536.194V79.8702H564.984V77.785ZM537.106 78.3224L521.385 49.9415L519.56 50.9519L535.282 79.3328L537.106 78.3224ZM65.2727 109.059L64.8364 110.006L64.8476 110.011L65.2727 109.059ZM81.6071 122.33L82.4698 121.745L81.6071 122.33ZM81.6071 162.758L82.4698 163.343L82.473 163.338L81.6071 162.758ZM65.2727 176.132L65.7013 177.082L65.7055 177.08L65.2727 176.132ZM0.241676 180.828H-0.800909V181.87H0.241676V180.828ZM0.241676 104.26V103.218H-0.800909V104.26H0.241676ZM26.3766 169.087L25.6426 169.828L27.4192 171.589V169.087H26.3766ZM14.5342 157.347V156.304H12.0017L13.8002 158.087L14.5342 157.347ZM52.5115 155.612L52.9282 156.567L52.9394 156.562L52.5115 155.612ZM58.739 150.507L59.6106 151.079L59.6147 151.073L59.6186 151.067L58.739 150.507ZM58.739 134.581L57.8673 135.153L58.739 134.581ZM52.5115 129.579L52.0746 130.525L52.0891 130.532L52.1037 130.538L52.5115 129.579ZM14.5342 127.741L13.8002 127.001L12.0017 128.784H14.5342V127.741ZM26.3766 116.001H27.4192V113.499L25.6426 115.26L26.3766 116.001ZM40.8733 105.303C50.0793 105.303 58.0578 106.882 64.8364 110.006L65.709 108.112C58.6035 104.838 50.3157 103.218 40.8733 103.218V105.303ZM64.8476 110.011C71.7009 113.071 76.9857 117.377 80.7443 122.916L82.4698 121.745C78.4696 115.85 72.8648 111.307 65.6979 108.107L64.8476 110.011ZM80.7443 122.916C84.4924 128.439 86.3836 134.967 86.3836 142.544H88.4687C88.4687 134.603 86.4805 127.655 82.4698 121.745L80.7443 122.916ZM86.3836 142.544C86.3836 150.05 84.4935 156.582 80.7411 162.177L82.473 163.338C86.4794 157.364 88.4687 150.419 88.4687 142.544H86.3836ZM80.7443 162.172C76.9843 167.714 71.6968 172.054 64.8399 175.183L65.7055 177.08C72.8689 173.811 78.471 169.236 82.4698 163.343L80.7443 162.172ZM64.8441 175.181C58.0634 178.239 50.0821 179.785 40.8733 179.785V181.87C50.3129 181.87 58.5978 180.285 65.7013 177.082L64.8441 175.181ZM40.8733 179.785H0.241676L0.241676 181.87H40.8733V179.785ZM1.28426 180.828L1.28426 104.26H-0.800909L-0.800909 180.828H1.28426ZM0.241676 105.303L40.8733 105.303V103.218L0.241676 103.218V105.303ZM27.1106 168.347L15.2682 156.607L13.8002 158.087L25.6426 169.828L27.1106 168.347ZM14.5342 158.39H42.9151V156.304H14.5342V158.39ZM42.9151 158.39C46.7616 158.39 50.11 157.796 52.9281 156.567L52.0949 154.656C49.6045 155.741 46.5552 156.304 42.9151 156.304V158.39ZM52.9394 156.562C55.8157 155.268 58.0573 153.446 59.6106 151.079L57.8673 149.935C56.5622 151.924 54.6522 153.505 52.0837 154.661L52.9394 156.562ZM59.6186 151.067C61.1696 148.63 61.9255 145.775 61.9255 142.544H59.8403C59.8403 145.439 59.1669 147.893 57.8594 149.947L59.6186 151.067ZM61.9255 142.544C61.9255 139.252 61.1722 136.389 59.6106 134.009L57.8673 135.153C59.1643 137.129 59.8403 139.575 59.8403 142.544H61.9255ZM59.6106 134.009C58.0536 131.636 55.8047 129.845 52.9193 128.619L52.1037 130.538C54.6631 131.626 56.5659 133.17 57.8673 135.153L59.6106 134.009ZM52.9484 128.632C50.1244 127.329 46.7685 126.698 42.9151 126.698V128.784C46.5483 128.784 49.59 129.379 52.0746 130.525L52.9484 128.632ZM42.9151 126.698H14.5342V128.784H42.9151V126.698ZM15.2682 128.481L27.1106 116.741L25.6426 115.26L13.8002 127.001L15.2682 128.481ZM25.334 116.001L25.334 169.087H27.4192L27.4192 116.001H25.334ZM139.708 149.18H138.665V152.094L140.514 149.841L139.708 149.18ZM139.708 132.948L140.518 132.291L138.665 130.005V132.948H139.708ZM178.502 180.828V181.87H180.689L179.312 180.171L178.502 180.828ZM146.14 180.828L145.307 181.455L145.62 181.87H146.14V180.828ZM123.272 150.507V149.464H121.179L122.439 151.135L123.272 150.507ZM136.543 150.507L137.373 151.138L138.647 149.464H136.543V150.507ZM113.471 180.828V181.87H113.988L114.301 181.459L113.471 180.828ZM81.5169 180.828L80.7094 180.168L79.3195 181.87H81.5169V180.828ZM120.617 132.948H121.66V130.023L119.81 132.288L120.617 132.948ZM120.617 149.18L119.814 149.844L121.66 152.076V149.18H120.617ZM83.4566 104.26V103.218H81.241L82.6533 104.925L83.4566 104.26ZM116.432 104.26L117.263 103.631L116.95 103.218H116.432V104.26ZM137.054 131.518V132.561H139.15L137.885 130.889L137.054 131.518ZM123.782 131.518L122.945 130.897L121.711 132.561H123.782V131.518ZM143.996 104.26V103.218H143.471L143.158 103.639L143.996 104.26ZM176.562 104.26L177.368 104.922L178.766 103.218H176.562V104.26ZM140.751 149.18V132.948H138.665V149.18H140.751ZM138.898 133.604L177.692 181.484L179.312 180.171L140.518 132.291L138.898 133.604ZM178.502 179.785H146.14V181.87H178.502V179.785ZM146.972 180.2L124.104 149.879L122.439 151.135L145.307 181.455L146.972 180.2ZM123.272 151.55H136.543V149.464H123.272V151.55ZM135.714 149.876L112.641 180.196L114.301 181.459L137.373 151.138L135.714 149.876ZM113.471 179.785L81.5169 179.785V181.87L113.471 181.87V179.785ZM82.3244 181.487L121.425 133.607L119.81 132.288L80.7094 180.168L82.3244 181.487ZM119.575 132.948V149.18H121.66V132.948H119.575ZM121.421 148.515L84.2599 103.596L82.6533 104.925L119.814 149.844L121.421 148.515ZM83.4566 105.303H116.432V103.218H83.4566V105.303ZM115.6 104.889L136.222 132.147L137.885 130.889L117.263 103.631L115.6 104.889ZM137.054 130.476H123.782V132.561H137.054V130.476ZM124.619 132.139L144.833 104.881L143.158 103.639L122.945 130.897L124.619 132.139ZM143.996 105.303H176.562V103.218H143.996V105.303ZM175.756 103.599L138.902 148.519L140.514 149.841L177.368 104.922L175.756 103.599ZM244.972 173.069L245.725 173.79L245.732 173.782L244.972 173.069ZM232.109 180.317L232.397 181.319L232.405 181.317L232.109 180.317ZM192.906 180.011L192.587 181.003L192.594 181.006L192.601 181.008L192.906 180.011ZM179.328 172.354L178.591 173.091L178.599 173.099L179.328 172.354ZM174.122 160.92V159.878H173.029L173.08 160.969L174.122 160.92ZM200.461 160.92L201.439 160.56L201.188 159.878H200.461V160.92ZM202.911 164.187L202.278 165.015L202.293 165.027L202.31 165.039L202.911 164.187ZM207.403 166.127L207.141 167.136L207.163 167.142L207.184 167.146L207.403 166.127ZM221.798 165.82L222.151 166.801L222.168 166.795L222.185 166.788L221.798 165.82ZM222.206 160.614L222.536 159.625L222.206 160.614ZM215.264 159.593L215.197 160.633L215.264 159.593ZM205.667 158.98L205.601 160.021L205.601 160.021L205.667 158.98ZM187.904 156.122L187.565 157.108L187.574 157.111L187.583 157.114L187.904 156.122ZM178.512 150.099L179.343 149.47L178.512 150.099ZM180.043 129.374L179.297 128.646L179.289 128.654L180.043 129.374ZM192.498 122.535L192.781 123.538L192.498 122.535ZM229.556 122.943L229.23 123.933L229.242 123.937L229.556 122.943ZM242.522 130.191L241.8 130.944L242.522 130.191ZM248.239 141.115V142.157H249.427L249.272 140.979L248.239 141.115ZM221.9 141.115L220.895 141.394L221.107 142.157H221.9V141.115ZM219.858 137.95L220.541 137.162L219.858 137.95ZM215.876 135.908L216.168 134.907L215.876 135.908ZM203.115 136.317L203.563 137.258L203.581 137.249L203.599 137.24L203.115 136.317ZM202.298 141.421L201.804 142.339L201.832 142.354L201.862 142.368L202.298 141.421ZM207.505 142.238L207.571 141.197L207.56 141.197L207.505 142.238ZM220.368 143.055L220.302 144.095L220.31 144.095L220.368 143.055ZM237.724 145.913L237.375 146.896L237.384 146.899L237.394 146.902L237.724 145.913ZM246.809 151.732L245.964 152.343L245.97 152.35L245.975 152.358L246.809 151.732ZM248.523 160.818C248.523 165.481 247.075 169.301 244.211 172.356L245.732 173.782C248.994 170.303 250.608 165.956 250.608 160.818H248.523ZM244.219 172.348C241.314 175.382 237.202 177.721 231.812 179.318L232.405 181.317C238.041 179.647 242.505 177.153 245.725 173.79L244.219 172.348ZM231.821 179.315C226.492 180.847 220.196 181.623 212.916 181.623V183.708C220.336 183.708 226.835 182.918 232.397 181.319L231.821 179.315ZM212.916 181.623C205.44 181.623 198.876 180.747 193.211 179.014L192.601 181.008C198.506 182.814 205.282 183.708 212.916 183.708V181.623ZM193.225 179.018C187.62 177.217 183.249 174.735 180.058 171.609L178.599 173.099C182.078 176.507 186.759 179.13 192.587 181.003L193.225 179.018ZM180.066 171.617C176.97 168.522 175.354 164.951 175.163 160.871L173.08 160.969C173.297 165.601 175.153 169.653 178.591 173.091L180.066 171.617ZM174.122 161.963H200.461V159.878H174.122V161.963ZM199.483 161.281C200.031 162.77 200.973 164.018 202.278 165.015L203.544 163.359C202.535 162.587 201.843 161.657 201.439 160.56L199.483 161.281ZM202.31 165.039C203.598 165.948 205.221 166.638 207.141 167.136L207.665 165.118C205.91 164.663 204.538 164.059 203.512 163.335L202.31 165.039ZM207.184 167.146C209.184 167.575 211.576 167.782 214.345 167.782V165.697C211.669 165.697 209.433 165.496 207.621 165.107L207.184 167.146ZM214.345 167.782C217.651 167.782 220.279 167.475 222.151 166.801L221.444 164.84C219.913 165.391 217.572 165.697 214.345 165.697V167.782ZM222.185 166.788C224.02 166.054 225.392 164.873 225.392 163.064H223.307C223.307 163.569 222.978 164.225 221.41 164.852L222.185 166.788ZM225.392 163.064C225.392 162.251 225.134 161.509 224.598 160.897C224.081 160.305 223.361 159.9 222.536 159.625L221.876 161.603C222.48 161.804 222.832 162.045 223.029 162.27C223.209 162.475 223.307 162.72 223.307 163.064H225.392ZM222.536 159.625C220.97 159.103 218.542 158.758 215.33 158.553L215.197 160.633C218.384 160.837 220.583 161.172 221.876 161.603L222.536 159.625ZM215.33 158.553L205.734 157.94L205.601 160.021L215.197 160.633L215.33 158.553ZM205.734 157.94C198.357 157.466 192.532 156.522 188.224 155.13L187.583 157.114C192.123 158.581 198.141 159.542 205.601 160.021L205.734 157.94ZM188.243 155.136C183.998 153.677 181.078 151.763 179.343 149.47L177.68 150.728C179.756 153.471 183.098 155.573 187.565 157.108L188.243 155.136ZM179.343 149.47C177.591 147.154 176.696 144.354 176.696 141.013H174.61C174.61 144.75 175.621 148.007 177.68 150.728L179.343 149.47ZM176.696 141.013C176.696 136.553 178.076 132.942 180.797 130.095L179.289 128.654C176.156 131.933 174.61 136.08 174.61 141.013H176.696ZM180.788 130.103C183.624 127.203 187.598 125 192.781 123.538L192.215 121.531C186.78 123.064 182.451 125.42 179.297 128.646L180.788 130.103ZM192.781 123.538C197.976 122.073 204.07 121.331 211.078 121.331V119.246C203.93 119.246 197.637 120.002 192.215 121.531L192.781 123.538ZM211.078 121.331C217.934 121.331 223.98 122.205 229.23 123.933L229.882 121.953C224.38 120.142 218.107 119.246 211.078 119.246V121.331ZM229.242 123.937C234.503 125.602 238.674 127.948 241.8 130.944L243.243 129.438C239.836 126.173 235.363 123.687 229.871 121.949L229.242 123.937ZM241.8 130.944C244.911 133.925 246.694 137.354 247.205 141.25L249.272 140.979C248.695 136.573 246.667 132.719 243.243 129.438L241.8 130.944ZM248.239 140.072H221.9V142.157H248.239V140.072ZM222.904 140.836C222.506 139.401 221.706 138.172 220.541 137.162L219.175 138.738C220.051 139.497 220.613 140.379 220.895 141.394L222.904 140.836ZM220.541 137.162C219.381 136.157 217.91 135.415 216.168 134.907L215.584 136.909C217.11 137.354 218.293 137.973 219.175 138.738L220.541 137.162ZM216.168 134.907C214.413 134.395 212.335 134.151 209.955 134.151V136.236C212.203 136.236 214.073 136.468 215.584 136.909L216.168 134.907ZM209.955 134.151C206.786 134.151 204.294 134.522 202.631 135.393L203.599 137.24C204.795 136.613 206.863 136.236 209.955 136.236V134.151ZM202.667 135.375C201.031 136.154 199.929 137.366 199.929 139.073H202.014C202.014 138.466 202.341 137.84 203.563 137.258L202.667 135.375ZM199.929 139.073C199.929 139.759 200.069 140.412 200.395 140.99C200.725 141.572 201.21 142.019 201.804 142.339L202.793 140.503C202.503 140.347 202.324 140.164 202.211 139.964C202.095 139.759 202.014 139.476 202.014 139.073H199.929ZM201.862 142.368C202.435 142.632 203.202 142.82 204.102 142.962C205.018 143.105 206.136 143.21 207.45 143.279L207.56 141.197C206.287 141.13 205.245 141.03 204.425 140.902C203.589 140.77 203.047 140.618 202.735 140.474L201.862 142.368ZM207.439 143.278L220.302 144.095L220.434 142.014L207.571 141.197L207.439 143.278ZM220.31 144.095C227.617 144.501 233.289 145.446 237.375 146.896L238.072 144.93C233.718 143.385 227.821 142.424 220.426 142.014L220.31 144.095ZM237.394 146.902C241.572 148.295 244.372 150.138 245.964 152.343L247.655 151.122C245.708 148.426 242.451 146.39 238.053 144.924L237.394 146.902ZM245.975 152.358C247.655 154.597 248.523 157.395 248.523 160.818H250.608C250.608 157.027 249.639 153.768 247.644 151.107L245.975 152.358ZM257.132 122.126V121.084H256.089V122.126H257.132ZM283.062 122.126H284.105V121.084H283.062V122.126ZM283.062 136.623L284.044 136.974L284.105 136.803V136.623H283.062ZM282.042 139.481L281.06 139.131L280.999 139.301V139.481H282.042ZM282.042 158.878H280.999V158.972L281.016 159.065L282.042 158.878ZM283.062 164.493H284.105V164.399L284.088 164.307L283.062 164.493ZM283.062 197.672V198.715H284.105V197.672H283.062ZM257.132 197.672H256.089V198.715H257.132V197.672ZM275.406 151.528L274.369 151.418L274.357 151.535L274.371 151.652L275.406 151.528ZM280.408 134.989L279.506 134.467L279.504 134.471L280.408 134.989ZM291.025 124.168L291.547 125.071L291.558 125.064L291.025 124.168ZM320.938 124.168L320.399 125.061L320.938 124.168ZM330.942 135.092L330.013 135.563L330.018 135.574L330.942 135.092ZM330.942 167.862L330.018 167.38L330.013 167.391L330.942 167.862ZM320.938 178.786L320.399 177.893L320.938 178.786ZM290.923 178.786L290.385 179.679L290.391 179.682L290.923 178.786ZM280.51 167.964L279.603 168.477L279.606 168.483L280.51 167.964ZM307.053 145.505L306.121 145.971L306.128 145.985L306.135 145.999L307.053 145.505ZM303.174 141.319L302.621 142.203L302.63 142.208L302.638 142.213L303.174 141.319ZM290.923 141.319L290.469 140.38L290.923 141.319ZM285.41 145.505L284.63 144.814L285.41 145.505ZM282.042 151.528L281.044 151.226L280.952 151.528L281.044 151.83L282.042 151.528ZM285.41 157.551L284.63 158.242L284.636 158.25L284.643 158.257L285.41 157.551ZM290.923 161.635L290.469 162.573L290.923 161.635ZM303.174 161.635L302.638 160.741L302.63 160.746L302.621 160.751L303.174 161.635ZM307.053 157.551L306.135 157.057L306.132 157.064L306.128 157.07L307.053 157.551ZM257.132 123.169L283.062 123.169V121.084L257.132 121.084V123.169ZM282.02 122.126V136.623H284.105V122.126H282.02ZM282.081 136.272L281.06 139.131L283.023 139.832L284.044 136.974L282.081 136.272ZM280.999 139.481V158.878H283.084V139.481H280.999ZM281.016 159.065L282.037 164.68L284.088 164.307L283.067 158.692L281.016 159.065ZM282.02 164.493L282.02 197.672H284.105L284.105 164.493H282.02ZM283.062 196.63L257.132 196.63V198.715L283.062 198.715V196.63ZM258.174 197.672L258.174 122.126H256.089L256.089 197.672H258.174ZM276.442 151.638C277.111 145.355 278.743 139.988 281.312 135.508L279.504 134.471C276.764 139.247 275.062 144.905 274.369 151.418L276.442 151.638ZM281.31 135.512C283.949 130.961 287.361 127.49 291.547 125.071L290.504 123.265C285.978 125.882 282.312 129.626 279.506 134.467L281.31 135.512ZM291.558 125.064C295.738 122.582 300.486 121.331 305.828 121.331V119.246C300.145 119.246 295.024 120.581 290.493 123.271L291.558 125.064ZM305.828 121.331C311.454 121.331 316.298 122.587 320.399 125.061L321.476 123.275C317.002 120.576 311.773 119.246 305.828 119.246V121.331ZM320.399 125.061C324.511 127.541 327.714 131.032 330.013 135.563L331.872 134.62C329.407 129.759 325.94 125.968 321.476 123.275L320.399 125.061ZM330.018 135.574C332.378 140.096 333.575 145.404 333.575 151.528H335.66C335.66 145.129 334.408 139.479 331.867 134.609L330.018 135.574ZM333.575 151.528C333.575 157.582 332.378 162.856 330.018 167.38L331.867 168.345C334.407 163.476 335.66 157.861 335.66 151.528H333.575ZM330.013 167.391C327.714 171.922 324.511 175.413 320.399 177.893L321.476 179.679C325.94 176.986 329.407 173.195 331.872 168.334L330.013 167.391ZM320.399 177.893C316.298 180.367 311.454 181.623 305.828 181.623V183.708C311.773 183.708 317.002 182.377 321.476 179.679L320.399 177.893ZM305.828 181.623C300.415 181.623 295.634 180.37 291.456 177.889L290.391 179.682C294.924 182.374 300.08 183.708 305.828 183.708V181.623ZM291.462 177.893C287.336 175.404 283.987 171.93 281.415 167.446L279.606 168.483C282.342 173.254 285.935 176.995 290.385 179.679L291.462 177.893ZM281.418 167.451C278.842 162.894 277.176 157.552 276.441 151.404L274.371 151.652C275.133 158.027 276.87 163.643 279.603 168.477L281.418 167.451ZM309.525 151.528C309.525 149.13 309.015 146.949 307.971 145.01L306.135 145.999C306.997 147.599 307.44 149.434 307.44 151.528H309.525ZM307.986 145.038C307.012 143.091 305.581 141.548 303.71 140.425L302.638 142.213C304.17 143.132 305.325 144.379 306.121 145.971L307.986 145.038ZM303.727 140.435C301.907 139.297 299.804 138.745 297.457 138.745V140.83C299.466 140.83 301.175 141.299 302.621 142.203L303.727 140.435ZM297.457 138.745C295.047 138.745 292.714 139.294 290.469 140.38L291.377 142.257C293.352 141.302 295.375 140.83 297.457 140.83V138.745ZM290.469 140.38C288.234 141.462 286.286 142.942 284.63 144.814L286.191 146.195C287.666 144.528 289.393 143.218 291.377 142.257L290.469 140.38ZM284.63 144.814C282.966 146.695 281.768 148.835 281.044 151.226L283.039 151.83C283.676 149.729 284.725 147.853 286.191 146.195L284.63 144.814ZM281.044 151.83C281.768 154.221 282.966 156.361 284.63 158.242L286.191 156.86C284.725 155.202 283.676 153.327 283.039 151.226L281.044 151.83ZM284.643 158.257C286.299 160.057 288.243 161.496 290.469 162.573L291.377 160.696C289.384 159.732 287.653 158.449 286.178 156.845L284.643 158.257ZM290.469 162.573C292.714 163.66 295.047 164.209 297.457 164.209V162.124C295.375 162.124 293.352 161.652 291.377 160.696L290.469 162.573ZM297.457 164.209C299.804 164.209 301.907 163.656 303.727 162.519L302.621 160.751C301.175 161.655 299.466 162.124 297.457 162.124V164.209ZM303.71 162.529C305.571 161.412 307.002 159.911 307.978 158.032L306.128 157.07C305.336 158.595 304.18 159.815 302.638 160.741L303.71 162.529ZM307.971 158.046C309.015 156.107 309.525 153.926 309.525 151.528H307.44C307.44 153.622 306.997 155.456 306.135 157.057L307.971 158.046ZM394.032 180.828L393 180.975L393.128 181.87H394.032V180.828ZM391.072 160.103L390.086 159.763L390.004 160.001L390.039 160.251L391.072 160.103ZM394.032 151.528L395.018 151.868L395.136 151.526L395.016 151.184L394.032 151.528ZM391.072 143.055L390.039 142.908L390.004 143.159L390.087 143.398L391.072 143.055ZM394.032 122.126V121.084H393.127L393 121.98L394.032 122.126ZM420.984 122.126L422.016 122.27L422.182 121.084H420.984V122.126ZM416.9 151.426L415.868 151.282L415.848 151.426L415.868 151.569L416.9 151.426ZM420.984 180.828V181.87H422.181L422.016 180.684L420.984 180.828ZM399.443 151.528L400.479 151.641L400.491 151.535L400.481 151.429L399.443 151.528ZM394.338 167.964L393.436 167.441L393.434 167.446L394.338 167.964ZM383.823 178.786L383.291 177.889L383.285 177.893L383.823 178.786ZM353.911 178.786L353.372 179.679L353.379 179.682L353.911 178.786ZM343.804 167.862L342.874 168.334L342.88 168.345L343.804 167.862ZM343.804 135.092L342.88 134.609L342.874 134.62L343.804 135.092ZM353.911 124.168L353.379 123.271L353.372 123.275L353.911 124.168ZM383.823 124.168L383.285 125.061L383.293 125.066L383.301 125.071L383.823 124.168ZM394.441 134.989L393.539 135.512L393.542 135.518L394.441 134.989ZM367.693 157.551L366.761 158.017L366.771 158.039L366.783 158.061L367.693 157.551ZM371.572 161.635L371.02 162.519L371.028 162.524L371.036 162.529L371.572 161.635ZM383.925 161.635L384.379 162.573L383.925 161.635ZM389.438 157.551L388.672 156.844L388.671 156.845L389.438 157.551ZM392.807 151.528L393.813 151.802L393.888 151.528L393.813 151.254L392.807 151.528ZM389.438 145.505L388.657 146.195L388.665 146.204L388.672 146.212L389.438 145.505ZM383.925 141.319L384.379 140.38L383.925 141.319ZM371.572 141.319L371.036 140.425L371.028 140.43L371.02 140.435L371.572 141.319ZM367.693 145.505L366.775 145.01L366.768 145.024L366.761 145.038L367.693 145.505ZM395.064 180.68L392.104 159.956L390.039 160.251L393 180.975L395.064 180.68ZM392.057 160.444L395.018 151.868L393.047 151.188L390.086 159.763L392.057 160.444ZM395.016 151.184L392.056 142.711L390.087 143.398L393.048 151.872L395.016 151.184ZM392.104 143.201L395.064 122.272L393 121.98L390.039 142.908L392.104 143.201ZM394.032 123.169H420.984V121.084H394.032V123.169ZM419.951 121.982L415.868 151.282L417.933 151.57L422.016 122.27L419.951 121.982ZM415.868 151.569L419.951 180.971L422.016 180.684L417.933 151.282L415.868 151.569ZM420.984 179.785H394.032V181.87H420.984V179.785ZM398.406 151.415C397.739 157.555 396.075 162.89 393.436 167.441L395.24 168.487C398.047 163.647 399.786 158.024 400.479 151.641L398.406 151.415ZM393.434 167.446C390.864 171.926 387.484 175.4 383.291 177.889L384.355 179.682C388.874 176.999 392.504 173.258 395.243 168.483L393.434 167.446ZM383.285 177.893C379.178 180.37 374.434 181.623 369.02 181.623V183.708C374.769 183.708 379.893 182.374 384.362 179.679L383.285 177.893ZM369.02 181.623C363.466 181.623 358.618 180.368 354.443 177.889L353.379 179.682C357.916 182.376 363.141 183.708 369.02 183.708V181.623ZM354.449 177.893C350.335 175.411 347.095 171.917 344.728 167.38L342.88 168.345C345.413 173.2 348.911 176.988 353.372 179.679L354.449 177.893ZM344.734 167.391C342.438 162.864 341.274 157.586 341.274 151.528H339.188C339.188 157.856 340.406 163.468 342.874 168.334L344.734 167.391ZM341.274 151.528C341.274 145.4 342.439 140.088 344.734 135.563L342.874 134.62C340.405 139.487 339.188 145.133 339.188 151.528H341.274ZM344.728 135.574C347.095 131.037 350.335 127.542 354.449 125.061L353.372 123.275C348.911 125.966 345.413 129.754 342.88 134.609L344.728 135.574ZM354.443 125.064C358.618 122.586 363.466 121.331 369.02 121.331V119.246C363.141 119.246 357.916 120.578 353.379 123.271L354.443 125.064ZM369.02 121.331C374.434 121.331 379.178 122.583 383.285 125.061L384.362 123.275C379.893 120.58 374.769 119.246 369.02 119.246V121.331ZM383.301 125.071C387.487 127.49 390.9 130.961 393.539 135.512L395.342 134.467C392.536 129.626 388.871 125.882 384.345 123.265L383.301 125.071ZM393.542 135.518C396.173 139.992 397.804 145.352 398.405 151.627L400.481 151.429C399.857 144.909 398.152 139.243 395.339 134.461L393.542 135.518ZM365.323 151.528C365.323 153.914 365.794 156.085 366.761 158.017L368.626 157.085C367.822 155.479 367.408 153.634 367.408 151.528H365.323ZM366.783 158.061C367.821 159.913 369.236 161.404 371.02 162.519L372.125 160.751C370.642 159.824 369.471 158.592 368.603 157.042L366.783 158.061ZM371.036 162.529C372.915 163.656 375.044 164.209 377.392 164.209V162.124C375.384 162.124 373.633 161.655 372.109 160.741L371.036 162.529ZM377.392 164.209C379.802 164.209 382.134 163.66 384.379 162.573L383.471 160.696C381.497 161.652 379.473 162.124 377.392 162.124V164.209ZM384.379 162.573C386.606 161.496 388.55 160.057 390.205 158.257L388.671 156.845C387.196 158.449 385.465 159.732 383.471 160.696L384.379 162.573ZM390.204 158.258C391.947 156.37 393.155 154.215 393.813 151.802L391.801 151.254C391.234 153.332 390.196 155.193 388.672 156.844L390.204 158.258ZM393.813 151.254C393.155 148.841 391.947 146.686 390.204 144.797L388.672 146.212C390.196 147.863 391.234 149.723 391.801 151.802L393.813 151.254ZM390.219 144.814C388.563 142.942 386.615 141.462 384.379 140.38L383.471 142.257C385.456 143.218 387.183 144.528 388.657 146.195L390.219 144.814ZM384.379 140.38C382.134 139.294 379.802 138.745 377.392 138.745V140.83C379.473 140.83 381.497 141.302 383.471 142.257L384.379 140.38ZM377.392 138.745C375.044 138.745 372.915 139.298 371.036 140.425L372.109 142.213C373.633 141.299 375.384 140.83 377.392 140.83V138.745ZM371.02 140.435C369.226 141.556 367.81 143.089 366.775 145.01L368.611 145.999C369.482 144.382 370.652 143.124 372.125 142.203L371.02 140.435ZM366.761 145.038C365.794 146.971 365.323 149.142 365.323 151.528H367.408C367.408 149.422 367.822 147.577 368.626 145.971L366.761 145.038ZM426.452 122.126V121.084H425.18L425.43 122.331L426.452 122.126ZM452.995 122.126L454.024 121.954L453.878 121.084H452.995V122.126ZM456.466 142.85H457.509V142.764L457.495 142.678L456.466 142.85ZM456.466 180.828V181.87H457.509V180.828H456.466ZM430.536 180.828H429.493V181.87H430.536V180.828ZM430.536 142.544H431.578V142.441L431.558 142.34L430.536 142.544ZM482.397 120.901H483.44V120.01L482.56 119.871L482.397 120.901ZM482.397 142.85L482.216 143.877L483.44 144.093V142.85H482.397ZM476.17 142.034L476.055 143.07L476.074 143.072L476.093 143.073L476.17 142.034ZM464.021 143.157L464.403 144.127L464.416 144.122L464.428 144.116L464.021 143.157ZM458.508 148.057L457.614 147.52L457.608 147.53L457.603 147.54L458.508 148.057ZM456.466 158.266L455.654 158.919L457.509 161.228V158.266H456.466ZM451.872 152.549L450.843 152.383L450.769 152.841L451.06 153.202L451.872 152.549ZM454.425 140.502L453.421 140.22L453.417 140.233L454.425 140.502ZM458.712 130.191L459.61 130.722L459.615 130.713L458.712 130.191ZM465.45 122.943L466.018 123.817L465.45 122.943ZM478.824 120.493L478.695 121.527L478.727 121.531L478.759 121.533L478.824 120.493ZM426.452 123.169L452.995 123.169V121.084L426.452 121.084V123.169ZM451.967 122.298L455.438 143.023L457.495 142.678L454.024 121.954L451.967 122.298ZM455.424 142.85L455.424 180.828H457.509L457.509 142.85H455.424ZM456.466 179.785L430.536 179.785V181.87L456.466 181.87V179.785ZM431.578 180.828L431.578 142.544H429.493L429.493 180.828H431.578ZM431.558 142.34L427.474 121.922L425.43 122.331L429.513 142.749L431.558 142.34ZM481.355 120.901V142.85H483.44V120.901H481.355ZM482.578 141.824C480.239 141.411 478.127 141.133 476.247 140.994L476.093 143.073C477.887 143.206 479.927 143.473 482.216 143.877L482.578 141.824ZM476.285 140.997C474.419 140.79 472.746 140.685 471.269 140.685V142.77C472.651 142.77 474.245 142.869 476.055 143.07L476.285 140.997ZM471.269 140.685C468.552 140.685 465.996 141.186 463.614 142.197L464.428 144.116C466.538 143.221 468.814 142.77 471.269 142.77V140.685ZM463.639 142.187C461.148 143.168 459.143 144.972 457.614 147.52L459.402 148.593C460.732 146.377 462.402 144.915 464.403 144.127L463.639 142.187ZM457.603 147.54C456.113 150.148 455.424 153.76 455.424 158.266H457.509C457.509 153.924 458.181 150.73 459.413 148.574L457.603 147.54ZM457.279 157.613L452.685 151.896L451.06 153.202L455.654 158.919L457.279 157.613ZM452.902 152.715C453.577 148.527 454.421 144.546 455.432 140.772L453.417 140.233C452.387 144.081 451.529 148.131 450.843 152.383L452.902 152.715ZM455.428 140.784C456.497 136.978 457.893 133.627 459.61 130.722L457.815 129.661C455.993 132.745 454.53 136.267 453.421 140.22L455.428 140.784ZM459.615 130.713C461.31 127.779 463.446 125.489 466.018 123.817L464.882 122.069C462.01 123.936 459.654 126.478 457.81 129.67L459.615 130.713ZM466.018 123.817C468.533 122.183 471.725 121.331 475.659 121.331V119.246C471.426 119.246 467.812 120.164 464.882 122.069L466.018 123.817ZM475.659 121.331C476.634 121.331 477.645 121.396 478.695 121.527L478.953 119.458C477.825 119.317 476.726 119.246 475.659 119.246V121.331ZM478.759 121.533C479.81 121.599 480.968 121.731 482.234 121.931L482.56 119.871C481.24 119.663 480.016 119.523 478.889 119.452L478.759 121.533ZM514.858 160.716L514.537 161.708L515.9 162.149V160.716H514.858ZM507.915 158.47L507.104 157.816L506.153 158.995L507.595 159.462L507.915 158.47ZM537.215 122.126V121.084H536.716L536.404 121.472L537.215 122.126ZM563.554 122.126L564.336 122.816L565.864 121.084H563.554V122.126ZM511.795 180.828V181.87H512.266L512.577 181.517L511.795 180.828ZM488.927 180.828H487.884V181.87H488.927V180.828ZM488.927 102.219V101.176H487.884V102.219H488.927ZM514.858 102.219H515.9V101.176H514.858V102.219ZM520.472 152.447L519.912 151.568L519.086 152.095L519.56 152.952L520.472 152.447ZM540.482 139.686L541.378 139.152L540.828 138.228L539.921 138.807L540.482 139.686ZM564.984 180.828V181.87H566.818L565.879 180.294L564.984 180.828ZM536.194 180.828L535.282 181.333L535.58 181.87H536.194V180.828ZM515.178 159.724L508.236 157.478L507.595 159.462L514.537 161.708L515.178 159.724ZM508.727 159.124L538.027 122.78L536.404 121.472L507.104 157.816L508.727 159.124ZM537.215 123.169H563.554V121.084H537.215V123.169ZM562.772 121.437L511.013 180.138L512.577 181.517L564.336 122.816L562.772 121.437ZM511.795 179.785H488.927V181.87H511.795V179.785ZM489.969 180.828L489.969 102.219H487.884L487.884 180.828H489.969ZM488.927 103.261H514.858V101.176H488.927V103.261ZM513.815 102.219V160.716H515.9V102.219H513.815ZM521.033 153.326L541.043 140.565L539.921 138.807L519.912 151.568L521.033 153.326ZM539.586 140.219L564.088 181.361L565.879 180.294L541.378 139.152L539.586 140.219ZM564.984 179.785H536.194V181.87H564.984V179.785ZM537.106 180.322L521.385 151.942L519.56 152.952L535.282 181.333L537.106 180.322Z" fill="#888789" mask="url(#path-1-outside-1_678_18365)"/>
</svg>
