<svg width="582" height="204" viewBox="0 0 582 204" fill="none" xmlns="http://www.w3.org/2000/svg">
<mask id="path-1-outside-1_1785_1726" maskUnits="userSpaceOnUse" x="-1" y="-1" width="584" height="206" fill="black">
<rect fill="white" x="-1" y="-1" width="584" height="206"/>
<path d="M42.1359 2.24999C51.7259 2.24999 60.0909 3.895 67.2309 7.185C74.4409 10.405 80.0409 14.955 84.0309 20.835C88.0209 26.715 90.0159 33.645 90.0159 41.625C90.0159 49.535 88.0209 56.465 84.0309 62.415C80.0409 68.295 74.4409 72.88 67.2309 76.17C60.0909 79.39 51.7259 81 42.1359 81L0.345899 81L0.345899 2.24999L42.1359 2.24999ZM27.2259 68.925L15.0459 56.85L44.2359 56.85C48.0859 56.85 51.3759 56.255 54.1059 55.065C56.9059 53.805 59.0409 52.055 60.5109 49.815C61.9809 47.505 62.7159 44.775 62.7159 41.625C62.7159 38.405 61.9809 35.675 60.5109 33.435C59.0409 31.195 56.9059 29.48 54.1059 28.29C51.3759 27.03 48.0859 26.4 44.2359 26.4L15.0459 26.4L27.2259 14.325L27.2259 68.925ZM143.686 48.45V31.755L183.586 81H150.301L126.781 49.815H140.431L116.701 81H83.8357L124.051 31.755V48.45L85.8307 2.24999L119.746 2.24999L140.956 30.285H127.306L148.096 2.24999L181.591 2.24999L143.686 48.45ZM256.676 60.42C256.676 65.46 255.101 69.66 251.951 73.02C248.801 76.31 244.391 78.795 238.721 80.475C233.121 82.085 226.541 82.89 218.981 82.89C211.211 82.89 204.351 81.98 198.401 80.16C192.521 78.27 187.866 75.645 184.436 72.285C181.076 68.925 179.291 65.005 179.081 60.525H206.171C206.661 61.855 207.501 62.975 208.691 63.885C209.881 64.725 211.421 65.39 213.311 65.88C215.271 66.3 217.651 66.51 220.451 66.51C223.811 66.51 226.366 66.195 228.116 65.565C229.866 64.865 230.741 63.92 230.741 62.73C230.741 61.54 230.006 60.7 228.536 60.21C227.066 59.72 224.686 59.37 221.396 59.16L211.526 58.53C203.896 58.04 197.806 57.06 193.256 55.59C188.776 54.05 185.556 51.985 183.596 49.395C181.636 46.805 180.656 43.69 180.656 40.05C180.656 35.22 182.161 31.23 185.171 28.08C188.251 24.93 192.521 22.585 197.981 21.045C203.441 19.505 209.811 18.735 217.091 18.735C224.231 18.735 230.566 19.645 236.096 21.465C241.626 23.215 246.071 25.7 249.431 28.92C252.791 32.14 254.751 35.885 255.311 40.155L228.221 40.155C227.871 38.895 227.171 37.81 226.121 36.9C225.071 35.99 223.706 35.29 222.026 34.8C220.346 34.31 218.316 34.065 215.936 34.065C212.716 34.065 210.371 34.45 208.901 35.22C207.431 35.92 206.696 36.865 206.696 38.055C206.696 39.175 207.151 39.98 208.061 40.47C208.971 40.89 210.756 41.17 213.416 41.31L226.646 42.15C234.206 42.57 240.156 43.55 244.496 45.09C248.906 46.56 252.021 48.555 253.841 51.075C255.731 53.595 256.676 56.71 256.676 60.42ZM264.457 20.625L291.127 20.625V35.535L290.077 38.475V58.425L291.127 64.2V98.325H264.457V20.625ZM283.252 50.865C283.952 44.285 285.667 38.615 288.397 33.855C291.197 29.025 294.837 25.315 299.317 22.725C303.797 20.065 308.872 18.735 314.542 18.735C320.492 18.735 325.672 20.065 330.082 22.725C334.492 25.385 337.922 29.13 340.372 33.96C342.892 38.79 344.152 44.425 344.152 50.865C344.152 57.235 342.892 62.835 340.372 67.665C337.922 72.495 334.492 76.24 330.082 78.9C325.672 81.56 320.492 82.89 314.542 82.89C308.802 82.89 303.692 81.56 299.212 78.9C294.802 76.24 291.232 72.53 288.502 67.77C285.772 62.94 284.022 57.305 283.252 50.865ZM317.272 50.865C317.272 48.555 316.782 46.49 315.802 44.67C314.892 42.85 313.562 41.415 311.812 40.365C310.132 39.315 308.172 38.79 305.932 38.79C303.622 38.79 301.382 39.315 299.212 40.365C297.042 41.415 295.152 42.85 293.542 44.67C291.932 46.49 290.777 48.555 290.077 50.865C290.777 53.175 291.932 55.24 293.542 57.06C295.152 58.81 297.042 60.21 299.212 61.26C301.382 62.31 303.622 62.835 305.932 62.835C308.172 62.835 310.132 62.31 311.812 61.26C313.562 60.21 314.892 58.81 315.802 57.06C316.782 55.24 317.272 53.175 317.272 50.865ZM405.26 81L402.215 59.685L405.26 50.865L402.215 42.15L405.26 20.625L432.98 20.625L428.78 50.76L432.98 81H405.26ZM410.825 50.865C410.125 57.305 408.375 62.94 405.575 67.77C402.845 72.53 399.24 76.24 394.76 78.9C390.35 81.56 385.275 82.89 379.535 82.89C373.655 82.89 368.475 81.56 363.995 78.9C359.585 76.24 356.12 72.495 353.6 67.665C351.15 62.835 349.925 57.235 349.925 50.865C349.925 44.425 351.15 38.79 353.6 33.96C356.12 29.13 359.585 25.385 363.995 22.725C368.475 20.065 373.655 18.735 379.535 18.735C385.275 18.735 390.35 20.065 394.76 22.725C399.24 25.315 402.88 29.025 405.68 33.855C408.48 38.615 410.195 44.285 410.825 50.865ZM376.805 50.865C376.805 53.175 377.26 55.24 378.17 57.06C379.15 58.81 380.48 60.21 382.16 61.26C383.91 62.31 385.905 62.835 388.145 62.835C390.455 62.835 392.695 62.31 394.865 61.26C397.035 60.21 398.925 58.81 400.535 57.06C402.215 55.24 403.37 53.175 404 50.865C403.37 48.555 402.215 46.49 400.535 44.67C398.925 42.85 397.035 41.415 394.865 40.365C392.695 39.315 390.455 38.79 388.145 38.79C385.905 38.79 383.91 39.315 382.16 40.365C380.48 41.415 379.15 42.85 378.17 44.67C377.26 46.49 376.805 48.555 376.805 50.865ZM438.604 20.625L465.904 20.625L469.474 41.94V81H442.804V41.625L438.604 20.625ZM496.144 19.365V41.94C493.764 41.52 491.629 41.24 489.739 41.1C487.849 40.89 486.169 40.785 484.699 40.785C482.039 40.785 479.554 41.275 477.244 42.255C474.934 43.165 473.044 44.845 471.574 47.295C470.174 49.745 469.474 53.245 469.474 57.795L464.749 51.915C465.449 47.575 466.324 43.445 467.374 39.525C468.494 35.535 469.964 32 471.784 28.92C473.604 25.77 475.914 23.285 478.714 21.465C481.514 19.645 485.014 18.735 489.214 18.735C490.264 18.735 491.349 18.805 492.469 18.945C493.589 19.015 494.814 19.155 496.144 19.365ZM529.53 60.315L522.39 58.005L552.525 20.625L579.615 20.625L526.38 81H502.86V0.149996L529.53 0.149996V60.315ZM535.305 51.81L555.885 38.685L581.085 81L551.475 81L535.305 51.81ZM42.1359 107.25C51.7259 107.25 60.0909 108.895 67.2309 112.185C74.4409 115.405 80.0409 119.955 84.0309 125.835C88.0209 131.715 90.0159 138.645 90.0159 146.625C90.0159 154.535 88.0209 161.465 84.0309 167.415C80.0409 173.295 74.4409 177.88 67.2309 181.17C60.0909 184.39 51.7259 186 42.1359 186H0.345899L0.345899 107.25L42.1359 107.25ZM27.2259 173.925L15.0459 161.85H44.2359C48.0859 161.85 51.3759 161.255 54.1059 160.065C56.9059 158.805 59.0409 157.055 60.5109 154.815C61.9809 152.505 62.7159 149.775 62.7159 146.625C62.7159 143.405 61.9809 140.675 60.5109 138.435C59.0409 136.195 56.9059 134.48 54.1059 133.29C51.3759 132.03 48.0859 131.4 44.2359 131.4H15.0459L27.2259 119.325L27.2259 173.925ZM143.686 153.45V136.755L183.586 186H150.301L126.781 154.815H140.431L116.701 186H83.8357L124.051 136.755V153.45L85.8307 107.25H119.746L140.956 135.285H127.306L148.096 107.25H181.591L143.686 153.45ZM256.676 165.42C256.676 170.46 255.101 174.66 251.951 178.02C248.801 181.31 244.391 183.795 238.721 185.475C233.121 187.085 226.541 187.89 218.981 187.89C211.211 187.89 204.351 186.98 198.401 185.16C192.521 183.27 187.866 180.645 184.436 177.285C181.076 173.925 179.291 170.005 179.081 165.525H206.171C206.661 166.855 207.501 167.975 208.691 168.885C209.881 169.725 211.421 170.39 213.311 170.88C215.271 171.3 217.651 171.51 220.451 171.51C223.811 171.51 226.366 171.195 228.116 170.565C229.866 169.865 230.741 168.92 230.741 167.73C230.741 166.54 230.006 165.7 228.536 165.21C227.066 164.72 224.686 164.37 221.396 164.16L211.526 163.53C203.896 163.04 197.806 162.06 193.256 160.59C188.776 159.05 185.556 156.985 183.596 154.395C181.636 151.805 180.656 148.69 180.656 145.05C180.656 140.22 182.161 136.23 185.171 133.08C188.251 129.93 192.521 127.585 197.981 126.045C203.441 124.505 209.811 123.735 217.091 123.735C224.231 123.735 230.566 124.645 236.096 126.465C241.626 128.215 246.071 130.7 249.431 133.92C252.791 137.14 254.751 140.885 255.311 145.155H228.221C227.871 143.895 227.171 142.81 226.121 141.9C225.071 140.99 223.706 140.29 222.026 139.8C220.346 139.31 218.316 139.065 215.936 139.065C212.716 139.065 210.371 139.45 208.901 140.22C207.431 140.92 206.696 141.865 206.696 143.055C206.696 144.175 207.151 144.98 208.061 145.47C208.971 145.89 210.756 146.17 213.416 146.31L226.646 147.15C234.206 147.57 240.156 148.55 244.496 150.09C248.906 151.56 252.021 153.555 253.841 156.075C255.731 158.595 256.676 161.71 256.676 165.42ZM264.457 125.625H291.127V140.535L290.077 143.475V163.425L291.127 169.2V203.325H264.457L264.457 125.625ZM283.252 155.865C283.952 149.285 285.667 143.615 288.397 138.855C291.197 134.025 294.837 130.315 299.317 127.725C303.797 125.065 308.872 123.735 314.542 123.735C320.492 123.735 325.672 125.065 330.082 127.725C334.492 130.385 337.922 134.13 340.372 138.96C342.892 143.79 344.152 149.425 344.152 155.865C344.152 162.235 342.892 167.835 340.372 172.665C337.922 177.495 334.492 181.24 330.082 183.9C325.672 186.56 320.492 187.89 314.542 187.89C308.802 187.89 303.692 186.56 299.212 183.9C294.802 181.24 291.232 177.53 288.502 172.77C285.772 167.94 284.022 162.305 283.252 155.865ZM317.272 155.865C317.272 153.555 316.782 151.49 315.802 149.67C314.892 147.85 313.562 146.415 311.812 145.365C310.132 144.315 308.172 143.79 305.932 143.79C303.622 143.79 301.382 144.315 299.212 145.365C297.042 146.415 295.152 147.85 293.542 149.67C291.932 151.49 290.777 153.555 290.077 155.865C290.777 158.175 291.932 160.24 293.542 162.06C295.152 163.81 297.042 165.21 299.212 166.26C301.382 167.31 303.622 167.835 305.932 167.835C308.172 167.835 310.132 167.31 311.812 166.26C313.562 165.21 314.892 163.81 315.802 162.06C316.782 160.24 317.272 158.175 317.272 155.865ZM405.26 186L402.215 164.685L405.26 155.865L402.215 147.15L405.26 125.625H432.98L428.78 155.76L432.98 186H405.26ZM410.825 155.865C410.125 162.305 408.375 167.94 405.575 172.77C402.845 177.53 399.24 181.24 394.76 183.9C390.35 186.56 385.275 187.89 379.535 187.89C373.655 187.89 368.475 186.56 363.995 183.9C359.585 181.24 356.12 177.495 353.6 172.665C351.15 167.835 349.925 162.235 349.925 155.865C349.925 149.425 351.15 143.79 353.6 138.96C356.12 134.13 359.585 130.385 363.995 127.725C368.475 125.065 373.655 123.735 379.535 123.735C385.275 123.735 390.35 125.065 394.76 127.725C399.24 130.315 402.88 134.025 405.68 138.855C408.48 143.615 410.195 149.285 410.825 155.865ZM376.805 155.865C376.805 158.175 377.26 160.24 378.17 162.06C379.15 163.81 380.48 165.21 382.16 166.26C383.91 167.31 385.905 167.835 388.145 167.835C390.455 167.835 392.695 167.31 394.865 166.26C397.035 165.21 398.925 163.81 400.535 162.06C402.215 160.24 403.37 158.175 404 155.865C403.37 153.555 402.215 151.49 400.535 149.67C398.925 147.85 397.035 146.415 394.865 145.365C392.695 144.315 390.455 143.79 388.145 143.79C385.905 143.79 383.91 144.315 382.16 145.365C380.48 146.415 379.15 147.85 378.17 149.67C377.26 151.49 376.805 153.555 376.805 155.865ZM438.604 125.625H465.904L469.474 146.94L469.474 186H442.804L442.804 146.625L438.604 125.625ZM496.144 124.365V146.94C493.764 146.52 491.629 146.24 489.739 146.1C487.849 145.89 486.169 145.785 484.699 145.785C482.039 145.785 479.554 146.275 477.244 147.255C474.934 148.165 473.044 149.845 471.574 152.295C470.174 154.745 469.474 158.245 469.474 162.795L464.749 156.915C465.449 152.575 466.324 148.445 467.374 144.525C468.494 140.535 469.964 137 471.784 133.92C473.604 130.77 475.914 128.285 478.714 126.465C481.514 124.645 485.014 123.735 489.214 123.735C490.264 123.735 491.349 123.805 492.469 123.945C493.589 124.015 494.814 124.155 496.144 124.365ZM529.53 165.315L522.39 163.005L552.525 125.625H579.615L526.38 186H502.86L502.86 105.15H529.53V165.315ZM535.305 156.81L555.885 143.685L581.085 186H551.475L535.305 156.81Z"/>
</mask>
<path d="M67.2309 7.185L66.7946 8.13196L66.8058 8.13696L67.2309 7.185ZM84.0309 20.835L84.8936 20.2496L84.0309 20.835ZM84.0309 62.415L84.8936 63.0004L84.8968 62.9957L84.0309 62.415ZM67.2309 76.17L67.6595 77.1204L67.6637 77.1185L67.2309 76.17ZM0.345899 81H-0.696686V82.0426H0.345899V81ZM0.345899 2.24999V1.20741L-0.696686 1.20741V2.24999L0.345899 2.24999ZM27.2259 68.925L26.4919 69.6654L28.2685 71.4267V68.925H27.2259ZM15.0459 56.85V55.8074H12.5134L14.3119 57.5904L15.0459 56.85ZM54.1059 55.065L54.5225 56.0208L54.5337 56.0158L54.1059 55.065ZM60.5109 49.815L61.3826 50.387L61.3866 50.3809L61.3905 50.3747L60.5109 49.815ZM60.5109 33.435L59.6393 34.007L60.5109 33.435ZM54.1059 28.29L53.669 29.2366L53.6835 29.2433L53.6981 29.2495L54.1059 28.29ZM15.0459 26.4L14.3119 25.6596L12.5134 27.4426H15.0459V26.4ZM27.2259 14.325H28.2685V11.8233L26.4919 13.5846L27.2259 14.325ZM42.1359 3.29258C51.6077 3.29258 59.8181 4.91723 66.7946 8.1319L67.6672 6.2381C60.3637 2.87276 51.8441 1.20741 42.1359 1.20741V3.29258ZM66.8058 8.13696C73.8589 11.2869 79.299 15.7184 83.1682 21.4204L84.8936 20.2496C80.7829 14.1916 75.0229 9.52307 67.6561 6.23304L66.8058 8.13696ZM83.1682 21.4204C87.0269 27.1069 88.9733 33.8271 88.9733 41.625H91.0585C91.0585 33.4629 89.0149 26.3231 84.8936 20.2496L83.1682 21.4204ZM88.9733 41.625C88.9733 49.3506 87.0279 56.0738 83.165 61.8343L84.8968 62.9957C89.0139 56.8562 91.0585 49.7194 91.0585 41.625H88.9733ZM83.1682 61.8296C79.2975 67.5337 73.8548 72.0014 66.7981 75.2215L67.6637 77.1185C75.027 73.7586 80.7843 69.0563 84.8936 63.0004L83.1682 61.8296ZM66.8023 75.2196C59.8237 78.3668 51.6105 79.9574 42.1359 79.9574V82.0426C51.8413 82.0426 60.3581 80.4132 67.6595 77.1204L66.8023 75.2196ZM42.1359 79.9574L0.345899 79.9574L0.345899 82.0426L42.1359 82.0426V79.9574ZM1.38848 81L1.38848 2.24999L-0.696686 2.24999L-0.696686 81H1.38848ZM0.345899 3.29258L42.1359 3.29258V1.20741L0.345899 1.20741L0.345899 3.29258ZM27.9599 68.1846L15.7799 56.1096L14.3119 57.5904L26.4919 69.6654L27.9599 68.1846ZM15.0459 57.8926L44.2359 57.8926V55.8074L15.0459 55.8074V57.8926ZM44.2359 57.8926C48.1891 57.8926 51.6287 57.2822 54.5225 56.0207L53.6893 54.1093C51.1231 55.2278 47.9827 55.8074 44.2359 55.8074V57.8926ZM54.5337 56.0158C57.4876 54.6865 59.7885 52.8161 61.3826 50.387L59.6393 49.243C58.2933 51.2939 56.3242 52.9235 53.6781 54.1142L54.5337 56.0158ZM61.3905 50.3747C62.9822 47.8734 63.7585 44.9428 63.7585 41.625H61.6733C61.6733 44.6072 60.9796 47.1366 59.6313 49.2553L61.3905 50.3747ZM63.7585 41.625C63.7585 38.2433 62.9849 35.3046 61.3826 32.863L59.6393 34.007C60.9769 36.0454 61.6733 38.5667 61.6733 41.625H63.7585ZM61.3826 32.863C59.7848 30.4282 57.4767 28.5897 54.5137 27.3305L53.6981 29.2495C56.3351 30.3703 58.297 31.9618 59.6393 34.007L61.3826 32.863ZM54.5428 27.3434C51.6431 26.005 48.196 25.3574 44.2359 25.3574V27.4426C47.9758 27.4426 51.1087 28.055 53.669 29.2366L54.5428 27.3434ZM44.2359 25.3574L15.0459 25.3574V27.4426L44.2359 27.4426V25.3574ZM15.7799 27.1404L27.9599 15.0654L26.4919 13.5846L14.3119 25.6596L15.7799 27.1404ZM26.1833 14.325L26.1833 68.925H28.2685L28.2685 14.325L26.1833 14.325ZM143.686 48.45H142.643V51.3644L144.492 49.1113L143.686 48.45ZM143.686 31.755L144.496 31.0987L142.643 28.8121V31.755H143.686ZM183.586 81V82.0426H185.772L184.396 80.3437L183.586 81ZM150.301 81L149.468 81.6278L149.781 82.0426H150.301V81ZM126.781 49.815V48.7724H124.688L125.948 50.4428L126.781 49.815ZM140.431 49.815L141.26 50.4463L142.534 48.7724H140.431V49.815ZM116.701 81V82.0426H117.217L117.53 81.6313L116.701 81ZM83.8357 81L83.0281 80.3405L81.6382 82.0426H83.8357V81ZM124.051 31.755H125.093V28.83L123.243 31.0955L124.051 31.755ZM124.051 48.45L123.247 49.1146L125.093 51.3459V48.45H124.051ZM85.8307 2.24999V1.20741H83.6151L85.0273 2.91456L85.8307 2.24999ZM119.746 2.24999L120.577 1.62096L120.264 1.20741H119.746V2.24999ZM140.956 30.285V31.3276H143.052L141.787 29.656L140.956 30.285ZM127.306 30.285L126.468 29.664L125.235 31.3276H127.306V30.285ZM148.096 2.24999V1.20741H147.571L147.258 1.62897L148.096 2.24999ZM181.591 2.24999L182.397 2.91129L183.795 1.20741H181.591V2.24999ZM144.728 48.45V31.755H142.643V48.45H144.728ZM142.876 32.4113L182.776 81.6563L184.396 80.3437L144.496 31.0987L142.876 32.4113ZM183.586 79.9574H150.301V82.0426H183.586V79.9574ZM151.133 80.3722L127.613 49.1872L125.948 50.4428L149.468 81.6278L151.133 80.3722ZM126.781 50.8576H140.431V48.7724H126.781V50.8576ZM139.601 49.1837L115.871 80.3687L117.53 81.6313L141.26 50.4463L139.601 49.1837ZM116.701 79.9574H83.8357V82.0426H116.701V79.9574ZM84.6432 81.6595L124.858 32.4145L123.243 31.0955L83.0281 80.3405L84.6432 81.6595ZM123.008 31.755V48.45H125.093V31.755H123.008ZM124.854 47.7854L86.634 1.58542L85.0273 2.91456L123.247 49.1146L124.854 47.7854ZM85.8307 3.29258L119.746 3.29258V1.20741L85.8307 1.20741V3.29258ZM118.914 2.87903L140.124 30.914L141.787 29.656L120.577 1.62096L118.914 2.87903ZM140.956 29.2424H127.306V31.3276H140.956V29.2424ZM128.143 30.906L148.933 2.87102L147.258 1.62897L126.468 29.664L128.143 30.906ZM148.096 3.29258L181.591 3.29258V1.20741L148.096 1.20741V3.29258ZM180.785 1.58869L142.88 47.7887L144.492 49.1113L182.397 2.91129L180.785 1.58869ZM251.951 73.02L252.704 73.7411L252.711 73.7331L251.951 73.02ZM238.721 80.475L239.009 81.477L239.017 81.4746L238.721 80.475ZM198.401 80.16L198.081 81.1526L198.088 81.1548L198.096 81.157L198.401 80.16ZM184.436 72.285L183.698 73.0223L183.706 73.0298L184.436 72.285ZM179.081 60.525V59.4824H177.988L178.039 60.5738L179.081 60.525ZM206.171 60.525L207.149 60.1646L206.897 59.4824H206.171V60.525ZM208.691 63.885L208.057 64.7132L208.073 64.7253L208.089 64.7368L208.691 63.885ZM213.311 65.88L213.049 66.8892L213.07 66.8948L213.092 66.8994L213.311 65.88ZM228.116 65.565L228.469 66.546L228.486 66.5398L228.503 66.533L228.116 65.565ZM228.536 60.21L228.865 59.2209L228.536 60.21ZM221.396 59.16L221.329 60.2005L221.396 59.16ZM211.526 58.53L211.459 59.5704L211.459 59.5705L211.526 58.53ZM193.256 55.59L192.917 56.576L192.926 56.5791L192.935 56.5821L193.256 55.59ZM183.596 49.395L184.427 48.7659L183.596 49.395ZM185.171 28.08L184.425 27.3511L184.417 27.3597L185.171 28.08ZM197.981 21.045L198.264 22.0484L197.981 21.045ZM236.096 21.465L235.77 22.4554L235.781 22.459L236.096 21.465ZM249.431 28.92L248.709 29.6727L249.431 28.92ZM255.311 40.155V41.1976H256.499L256.344 40.0194L255.311 40.155ZM228.221 40.155L227.216 40.434L227.428 41.1976H228.221V40.155ZM226.121 36.9L226.803 36.1121L226.121 36.9ZM222.026 34.8L222.317 33.7991L222.026 34.8ZM208.901 35.22L209.349 36.1613L209.367 36.1528L209.384 36.1436L208.901 35.22ZM208.061 40.47L207.566 41.388L207.594 41.4032L207.624 41.4166L208.061 40.47ZM213.416 41.31L213.482 40.2694L213.47 40.2689L213.416 41.31ZM226.646 42.15L226.579 43.1905L226.588 43.191L226.646 42.15ZM244.496 45.09L244.147 46.0726L244.156 46.0759L244.166 46.0791L244.496 45.09ZM253.841 51.075L252.995 51.6854L253.001 51.693L253.006 51.7006L253.841 51.075ZM255.633 60.42C255.633 65.2223 254.141 69.1591 251.19 72.3069L252.711 73.7331C256.06 70.1609 257.718 65.6977 257.718 60.42H255.633ZM251.197 72.299C248.205 75.4245 243.971 77.8319 238.424 79.4754L239.017 81.4746C244.81 79.7581 249.396 77.1955 252.704 73.741L251.197 72.299ZM238.432 79.473C232.949 81.0495 226.47 81.8474 218.981 81.8474V83.9326C226.611 83.9326 233.292 83.1205 239.009 81.477L238.432 79.473ZM218.981 81.8474C211.289 81.8474 204.536 80.9464 198.705 79.163L198.096 81.157C204.165 83.0136 211.132 83.9326 218.981 83.9326V81.8474ZM198.72 79.1674C192.951 77.3133 188.451 74.7591 185.165 71.5402L183.706 73.0298C187.28 76.5309 192.09 79.2267 198.081 81.1526L198.72 79.1674ZM185.173 71.5478C181.984 68.3594 180.319 64.6804 180.122 60.4762L178.039 60.5738C178.262 65.3296 180.167 69.4906 183.698 73.0222L185.173 71.5478ZM179.081 61.5676H206.171V59.4824H179.081V61.5676ZM205.192 60.8854C205.755 62.4117 206.72 63.6903 208.057 64.7132L209.324 63.0568C208.281 62.2597 207.567 61.2983 207.149 60.1646L205.192 60.8854ZM208.089 64.7368C209.41 65.6693 211.076 66.3777 213.049 66.8892L213.572 64.8708C211.765 64.4023 210.351 63.7806 209.292 63.0332L208.089 64.7368ZM213.092 66.8994C215.146 67.3395 217.604 67.5526 220.451 67.5526V65.4674C217.697 65.4674 215.395 65.2605 213.529 64.8606L213.092 66.8994ZM220.451 67.5526C223.85 67.5526 226.548 67.2372 228.469 66.546L227.762 64.584C226.183 65.1528 223.771 65.4674 220.451 65.4674V67.5526ZM228.503 66.533C230.386 65.7796 231.783 64.5717 231.783 62.73H229.698C229.698 63.2683 229.345 63.9504 227.728 64.597L228.503 66.533ZM231.783 62.73C231.783 61.9006 231.519 61.1442 230.974 60.521C230.446 59.9175 229.711 59.5028 228.865 59.2209L228.206 61.1991C228.83 61.4072 229.198 61.6575 229.405 61.894C229.594 62.1108 229.698 62.3694 229.698 62.73H231.783ZM228.865 59.2209C227.259 58.6855 224.764 58.3303 221.462 58.1195L221.329 60.2005C224.607 60.4097 226.872 60.7545 228.206 61.1991L228.865 59.2209ZM221.462 58.1195L211.592 57.4895L211.459 59.5705L221.329 60.2005L221.462 58.1195ZM211.592 57.4896C204.004 57.0022 198.01 56.0304 193.576 54.5979L192.935 56.5821C197.601 58.0896 203.787 59.0778 211.459 59.5704L211.592 57.4896ZM193.594 54.604C189.225 53.1021 186.217 51.131 184.427 48.7659L182.764 50.0241C184.894 52.839 188.326 54.9979 192.917 56.576L193.594 54.604ZM184.427 48.7659C182.62 46.3787 181.698 43.4917 181.698 40.05H179.613C179.613 43.8883 180.651 47.2313 182.764 50.0241L184.427 48.7659ZM181.698 40.05C181.698 35.4566 183.12 31.7345 185.924 28.8003L184.417 27.3597C181.201 30.7255 179.613 34.9834 179.613 40.05H181.698ZM185.916 28.8089C188.837 25.8216 192.93 23.5529 198.264 22.0484L197.697 20.0416C192.111 21.6171 187.664 24.0384 184.425 27.3511L185.916 28.8089ZM198.264 22.0484C203.61 20.5405 209.881 19.7776 217.091 19.7776V17.6924C209.74 17.6924 203.271 18.4695 197.697 20.0416L198.264 22.0484ZM217.091 19.7776C224.144 19.7776 230.365 20.6768 235.77 22.4553L236.421 20.4747C230.766 18.6132 224.317 17.6924 217.091 17.6924V19.7776ZM235.781 22.459C241.195 24.1724 245.489 26.5871 248.709 29.6727L250.152 28.1673C246.652 24.8129 242.056 22.2576 236.41 20.471L235.781 22.459ZM248.709 29.6727C251.913 32.7427 253.75 36.2754 254.277 40.2906L256.344 40.0194C255.751 35.4946 253.668 31.5373 250.152 28.1673L248.709 29.6727ZM255.311 39.1124L228.221 39.1124V41.1976L255.311 41.1976V39.1124ZM229.225 39.876C228.817 38.4058 227.998 37.1476 226.803 36.1121L225.438 37.6879C226.343 38.4724 226.924 39.3842 227.216 40.434L229.225 39.876ZM226.803 36.1121C225.614 35.0818 224.105 34.3206 222.317 33.7991L221.734 35.8009C223.306 36.2594 224.527 36.8982 225.438 37.6879L226.803 36.1121ZM222.317 33.7991C220.515 33.2735 218.381 33.0224 215.936 33.0224V35.1076C218.25 35.1076 220.176 35.3465 221.734 35.8009L222.317 33.7991ZM215.936 33.0224C212.677 33.0224 210.12 33.4045 208.417 34.2964L209.384 36.1436C210.621 35.4955 212.754 35.1076 215.936 35.1076V33.0224ZM208.452 34.2787C206.775 35.0772 205.653 36.3147 205.653 38.055H207.738C207.738 37.4153 208.086 36.7628 209.349 36.1613L208.452 34.2787ZM205.653 38.055C205.653 38.7569 205.796 39.4228 206.129 40.0118C206.465 40.6052 206.959 41.061 207.566 41.388L208.555 39.552C208.252 39.389 208.064 39.1973 207.944 38.9857C207.822 38.7697 207.738 38.4731 207.738 38.055H205.653ZM207.624 41.4166C208.21 41.6871 208.996 41.88 209.92 42.025C210.86 42.1725 212.01 42.2801 213.361 42.3511L213.47 40.2689C212.161 40.1999 211.088 40.0975 210.243 39.965C209.383 39.83 208.821 39.6729 208.497 39.5234L207.624 41.4166ZM213.349 42.3505L226.579 43.1905L226.712 41.1095L213.482 40.2695L213.349 42.3505ZM226.588 43.191C234.103 43.6085 239.941 44.5802 244.147 46.0726L244.844 44.1074C240.37 42.5198 234.308 41.5315 226.703 41.109L226.588 43.191ZM244.166 46.0791C248.466 47.5124 251.352 49.4106 252.995 51.6854L254.686 50.4646C252.689 47.6994 249.345 45.6076 244.825 44.1009L244.166 46.0791ZM253.006 51.7006C254.738 54.0095 255.633 56.8941 255.633 60.42H257.718C257.718 56.5259 256.723 53.1805 254.675 50.4494L253.006 51.7006ZM264.457 20.625V19.5824H263.414V20.625H264.457ZM291.127 20.625H292.17V19.5824H291.127V20.625ZM291.127 35.535L292.109 35.8857L292.17 35.7156V35.535H291.127ZM290.077 38.475L289.095 38.1243L289.034 38.2944V38.475H290.077ZM290.077 58.425H289.034V58.519L289.051 58.6115L290.077 58.425ZM291.127 64.2H292.17V64.106L292.153 64.0135L291.127 64.2ZM291.127 98.325V99.3676H292.17V98.325H291.127ZM264.457 98.325H263.414V99.3676H264.457V98.325ZM283.252 50.865L282.215 50.7547L282.203 50.8718L282.217 50.9888L283.252 50.865ZM288.397 33.855L287.495 33.3321L287.493 33.3363L288.397 33.855ZM299.317 22.725L299.839 23.6277L299.849 23.6215L299.317 22.725ZM330.082 22.725L329.544 23.6178L330.082 22.725ZM340.372 33.96L339.442 34.4317L339.448 34.4423L340.372 33.96ZM340.372 67.665L339.448 67.1827L339.442 67.1934L340.372 67.665ZM330.082 78.9L329.544 78.0072L330.082 78.9ZM299.212 78.9L298.673 79.7928L298.68 79.7965L299.212 78.9ZM288.502 67.77L287.594 68.283L287.598 68.2887L288.502 67.77ZM315.802 44.67L314.869 45.1363L314.877 45.1504L314.884 45.1643L315.802 44.67ZM311.812 40.365L311.259 41.2491L311.267 41.2541L311.276 41.259L311.812 40.365ZM299.212 40.365L298.758 39.4265L299.212 40.365ZM290.077 50.865L289.079 50.5626L288.988 50.865L289.079 51.1674L290.077 50.865ZM293.542 57.06L292.761 57.7508L292.768 57.7584L292.775 57.7659L293.542 57.06ZM299.212 61.26L298.758 62.1985L299.212 61.26ZM311.812 61.26L311.276 60.366L311.267 60.3709L311.259 60.3759L311.812 61.26ZM315.802 57.06L314.884 56.5657L314.88 56.5723L314.877 56.579L315.802 57.06ZM264.457 21.6676L291.127 21.6676V19.5824L264.457 19.5824V21.6676ZM290.084 20.625V35.535H292.17V20.625H290.084ZM290.145 35.1843L289.095 38.1243L291.059 38.8257L292.109 35.8857L290.145 35.1843ZM289.034 38.475V58.425H291.12V38.475H289.034ZM289.051 58.6115L290.101 64.3865L292.153 64.0135L291.103 58.2385L289.051 58.6115ZM290.084 64.2V98.325H292.17V64.2H290.084ZM291.127 97.2824H264.457V99.3676H291.127V97.2824ZM265.5 98.325V20.625H263.414V98.325H265.5ZM284.289 50.9753C284.977 44.5101 286.657 38.9851 289.301 34.3737L287.493 33.3363C284.677 38.2448 282.927 44.0599 282.215 50.7547L284.289 50.9753ZM289.299 34.3779C292.015 29.6927 295.529 26.1193 299.839 23.6276L298.795 21.8224C294.145 24.5107 290.379 28.3573 287.495 33.3321L289.299 34.3779ZM299.849 23.6215C304.154 21.0655 309.042 19.7776 314.542 19.7776V17.6924C308.702 17.6924 303.44 19.0645 298.785 21.8285L299.849 23.6215ZM314.542 19.7776C320.332 19.7776 325.32 21.0702 329.544 23.6178L330.62 21.8322C326.024 19.0598 320.652 17.6924 314.542 17.6924V19.7776ZM329.544 23.6178C333.777 26.1715 337.076 29.7665 339.442 34.4316L341.302 33.4884C338.768 28.4935 335.207 24.5985 330.62 21.8322L329.544 23.6178ZM339.448 34.4423C341.877 39.0985 343.109 44.5624 343.109 50.865H345.195C345.195 44.2876 343.907 38.4815 341.296 33.4777L339.448 34.4423ZM343.109 50.865C343.109 57.0955 341.878 62.5249 339.448 67.1827L341.296 68.1473C343.906 63.1451 345.195 57.3745 345.195 50.865H343.109ZM339.442 67.1934C337.076 71.8585 333.777 75.4535 329.544 78.0072L330.62 79.7928C335.207 77.0265 338.768 73.1315 341.302 68.1366L339.442 67.1934ZM329.544 78.0072C325.32 80.5548 320.332 81.8474 314.542 81.8474V83.9326C320.652 83.9326 326.024 82.5652 330.62 79.7928L329.544 78.0072ZM314.542 81.8474C308.97 81.8474 304.047 80.5583 299.744 78.0035L298.68 79.7965C303.337 82.5616 308.634 83.9326 314.542 83.9326V81.8474ZM299.75 78.0072C295.502 75.4448 292.054 71.8679 289.406 67.2513L287.598 68.2887C290.41 73.1921 294.102 77.0352 298.673 79.7928L299.75 78.0072ZM289.41 67.257C286.758 62.5655 285.044 57.0671 284.287 50.7412L282.217 50.9888C283 57.5428 284.786 63.3145 287.594 68.283L289.41 67.257ZM318.315 50.865C318.315 48.4031 317.791 46.1648 316.72 44.1757L314.884 45.1643C315.773 46.8152 316.229 48.7069 316.229 50.865H318.315ZM316.734 44.2037C315.736 42.2058 314.268 40.6227 312.348 39.471L311.276 41.259C312.856 42.2073 314.048 43.4942 314.869 45.1363L316.734 44.2037ZM312.365 39.4809C310.498 38.3143 308.341 37.7474 305.932 37.7474V39.8326C308.003 39.8326 309.766 40.3157 311.259 41.2491L312.365 39.4809ZM305.932 37.7474C303.458 37.7474 301.063 38.3111 298.758 39.4265L299.666 41.3035C301.701 40.3189 303.786 39.8326 305.932 39.8326V37.7474ZM298.758 39.4265C296.463 40.5371 294.462 42.0567 292.761 43.9792L294.323 45.3608C295.842 43.6433 297.621 42.2929 299.666 41.3035L298.758 39.4265ZM292.761 43.9792C291.052 45.9108 289.823 48.1081 289.079 50.5626L291.075 51.1674C291.731 49.0019 292.812 47.0692 294.323 45.3608L292.761 43.9792ZM289.079 51.1674C289.823 53.6219 291.052 55.8192 292.761 57.7508L294.323 56.3692C292.812 54.6608 291.731 52.7281 291.075 50.5626L289.079 51.1674ZM292.775 57.7659C294.475 59.6138 296.471 61.0922 298.758 62.1985L299.666 60.3215C297.613 59.3278 295.829 58.0062 294.309 56.3541L292.775 57.7659ZM298.758 62.1985C301.063 63.3139 303.458 63.8776 305.932 63.8776V61.7924C303.786 61.7924 301.701 61.3061 299.666 60.3215L298.758 62.1985ZM305.932 63.8776C308.341 63.8776 310.498 63.3107 312.365 62.1441L311.259 60.3759C309.766 61.3093 308.003 61.7924 305.932 61.7924V63.8776ZM312.348 62.154C314.258 61.0085 315.725 59.468 316.727 57.541L314.877 56.579C314.059 58.152 312.866 59.4115 311.276 60.366L312.348 62.154ZM316.72 57.5543C317.791 55.5652 318.315 53.3269 318.315 50.865H316.229C316.229 53.0231 315.773 54.9148 314.884 56.5657L316.72 57.5543ZM405.26 81L404.228 81.1474L404.356 82.0426H405.26V81ZM402.215 59.685L401.23 59.3448L401.148 59.583L401.183 59.8324L402.215 59.685ZM405.26 50.865L406.246 51.2052L406.364 50.863L406.245 50.5211L405.26 50.865ZM402.215 42.15L401.183 42.004L401.148 42.2548L401.231 42.4939L402.215 42.15ZM405.26 20.625V19.5824H404.355L404.228 20.479L405.26 20.625ZM432.98 20.625L434.013 20.7689L434.178 19.5824H432.98V20.625ZM428.78 50.76L427.748 50.6161L427.728 50.7597L427.748 50.9034L428.78 50.76ZM432.98 81V82.0426H434.178L434.013 80.8566L432.98 81ZM410.825 50.865L411.862 50.9777L411.873 50.8717L411.863 50.7656L410.825 50.865ZM405.575 67.77L404.673 67.2471L404.671 67.2513L405.575 67.77ZM394.76 78.9L394.228 78.0035L394.222 78.0072L394.76 78.9ZM363.995 78.9L363.457 79.7928L363.463 79.7965L363.995 78.9ZM353.6 67.665L352.67 68.1367L352.676 68.1473L353.6 67.665ZM353.6 33.96L352.676 33.4777L352.671 33.4884L353.6 33.96ZM363.995 22.725L363.463 21.8285L363.457 21.8322L363.995 22.725ZM394.76 22.725L394.222 23.6178L394.23 23.6228L394.239 23.6276L394.76 22.725ZM405.68 33.855L404.778 34.3779L404.782 34.3836L405.68 33.855ZM378.17 57.06L377.238 57.5263L377.249 57.5481L377.261 57.5694L378.17 57.06ZM382.16 61.26L381.608 62.1441L381.616 62.1491L381.624 62.154L382.16 61.26ZM394.865 61.26L395.319 62.1985L394.865 61.26ZM400.535 57.06L399.769 56.3528L399.768 56.3541L400.535 57.06ZM404 50.865L405.006 51.1393L405.081 50.865L405.006 50.5907L404 50.865ZM400.535 44.67L399.754 45.3608L399.762 45.3691L399.769 45.3772L400.535 44.67ZM394.865 40.365L395.319 39.4265L394.865 40.365ZM382.16 40.365L381.624 39.471L381.616 39.4759L381.608 39.4809L382.16 40.365ZM378.17 44.67L377.252 44.1757L377.245 44.1896L377.238 44.2037L378.17 44.67ZM406.292 80.8526L403.247 59.5376L401.183 59.8324L404.228 81.1474L406.292 80.8526ZM403.201 60.0252L406.246 51.2052L404.275 50.5248L401.23 59.3448L403.201 60.0252ZM406.245 50.5211L403.2 41.8061L401.231 42.4939L404.276 51.2089L406.245 50.5211ZM403.248 42.296L406.293 20.771L404.228 20.479L401.183 42.004L403.248 42.296ZM405.26 21.6676L432.98 21.6676V19.5824L405.26 19.5824V21.6676ZM431.948 20.4811L427.748 50.6161L429.813 50.9039L434.013 20.7689L431.948 20.4811ZM427.748 50.9034L431.948 81.1434L434.013 80.8566L429.813 50.6166L427.748 50.9034ZM432.98 79.9574H405.26V82.0426H432.98V79.9574ZM409.789 50.7523C409.102 57.0707 407.39 62.5616 404.673 67.2471L406.477 68.2929C409.361 63.3184 411.149 57.5393 411.862 50.9777L409.789 50.7523ZM404.671 67.2513C402.025 71.864 398.545 75.4402 394.228 78.0035L395.293 79.7965C399.935 77.0398 403.665 73.196 406.48 68.2887L404.671 67.2513ZM394.222 78.0072C389.992 80.5583 385.108 81.8474 379.535 81.8474V83.9326C385.443 83.9326 390.708 82.5617 395.299 79.7928L394.222 78.0072ZM379.535 81.8474C373.818 81.8474 368.827 80.5561 364.528 78.0035L363.463 79.7965C368.124 82.5639 373.493 83.9326 379.535 83.9326V81.8474ZM364.534 78.0072C360.297 75.4519 356.962 71.8533 354.525 67.1827L352.676 68.1473C355.279 73.1367 358.873 77.0281 363.457 79.7928L364.534 78.0072ZM354.53 67.1934C352.166 62.5332 350.968 57.0999 350.968 50.865H348.883C348.883 57.3701 350.134 63.1368 352.671 68.1366L354.53 67.1934ZM350.968 50.865C350.968 44.5581 352.167 39.0903 354.53 34.4316L352.671 33.4884C350.134 38.4897 348.883 44.2919 348.883 50.865H350.968ZM354.525 34.4423C356.962 29.7717 360.297 26.1731 364.534 23.6178L363.457 21.8322C358.873 24.5969 355.279 28.4883 352.676 33.4777L354.525 34.4423ZM364.528 23.6215C368.827 21.0689 373.818 19.7776 379.535 19.7776V17.6924C373.493 17.6924 368.124 19.0611 363.463 21.8285L364.528 23.6215ZM379.535 19.7776C385.108 19.7776 389.992 21.0667 394.222 23.6178L395.299 21.8322C390.708 19.0633 385.443 17.6924 379.535 17.6924V19.7776ZM394.239 23.6276C398.548 26.1193 402.062 29.6927 404.778 34.3779L406.582 33.3321C403.698 28.3573 399.932 24.5107 395.282 21.8224L394.239 23.6276ZM404.782 34.3836C407.491 38.9891 409.169 44.5065 409.788 50.9644L411.863 50.7656C411.221 44.0635 409.47 38.2409 406.579 33.3264L404.782 34.3836ZM375.763 50.865C375.763 53.3148 376.246 55.543 377.238 57.5263L379.103 56.5937C378.275 54.937 377.848 53.0352 377.848 50.865H375.763ZM377.261 57.5694C378.325 59.4704 379.777 61 381.608 62.1441L382.713 60.3759C381.183 59.42 379.975 58.1496 379.08 56.5506L377.261 57.5694ZM381.624 62.154C383.552 63.3106 385.735 63.8776 388.145 63.8776V61.7924C386.075 61.7924 384.269 61.3094 382.697 60.366L381.624 62.154ZM388.145 63.8776C390.62 63.8776 393.014 63.3139 395.319 62.1985L394.411 60.3215C392.376 61.3061 390.291 61.7924 388.145 61.7924V63.8776ZM395.319 62.1985C397.606 61.0922 399.603 59.6138 401.303 57.7659L399.768 56.3541C398.248 58.0062 396.465 59.3278 394.411 60.3215L395.319 62.1985ZM401.301 57.7672C403.091 55.8286 404.331 53.6164 405.006 51.1393L402.995 50.5907C402.41 52.7336 401.34 54.6514 399.769 56.3528L401.301 57.7672ZM405.006 50.5907C404.331 48.1136 403.091 45.9014 401.301 43.9628L399.769 45.3772C401.34 47.0786 402.41 48.9964 402.995 51.1393L405.006 50.5907ZM401.316 43.9792C399.616 42.0567 397.615 40.5371 395.319 39.4265L394.411 41.3035C396.456 42.2929 398.235 43.6433 399.754 45.3608L401.316 43.9792ZM395.319 39.4265C393.014 38.3111 390.62 37.7474 388.145 37.7474V39.8326C390.291 39.8326 392.376 40.3189 394.411 41.3035L395.319 39.4265ZM388.145 37.7474C385.735 37.7474 383.552 38.3144 381.624 39.471L382.697 41.259C384.269 40.3156 386.075 39.8326 388.145 39.8326V37.7474ZM381.608 39.4809C379.767 40.6311 378.314 42.2034 377.252 44.1757L379.088 45.1643C379.986 43.4966 381.193 42.1989 382.713 41.2491L381.608 39.4809ZM377.238 44.2037C376.246 46.187 375.763 48.4152 375.763 50.865H377.848C377.848 48.6948 378.275 46.793 379.103 45.1363L377.238 44.2037ZM438.604 20.625V19.5824H437.333L437.582 20.8295L438.604 20.625ZM465.904 20.625L466.933 20.4528L466.787 19.5824H465.904V20.625ZM469.474 41.94H470.517V41.8533L470.503 41.7678L469.474 41.94ZM469.474 81V82.0426H470.517V81H469.474ZM442.804 81H441.762V82.0426H442.804V81ZM442.804 41.625H443.847V41.5218L443.827 41.4205L442.804 41.625ZM496.144 19.365H497.187V18.4741L496.307 18.3352L496.144 19.365ZM496.144 41.94L495.963 42.9667L497.187 43.1827V41.94H496.144ZM489.739 41.1L489.624 42.1362L489.643 42.1383L489.662 42.1397L489.739 41.1ZM477.244 42.255L477.627 43.225L477.639 43.2201L477.652 43.2148L477.244 42.255ZM471.574 47.295L470.68 46.7586L470.675 46.7681L470.669 46.7777L471.574 47.295ZM469.474 57.795L468.662 58.4481L470.517 60.7569V57.795H469.474ZM464.749 51.915L463.72 51.749L463.646 52.2067L463.937 52.5681L464.749 51.915ZM467.374 39.525L466.371 39.2432L466.367 39.2552L467.374 39.525ZM471.784 28.92L472.682 29.4504L472.687 29.4416L471.784 28.92ZM478.714 21.465L479.283 22.3391L478.714 21.465ZM492.469 18.945L492.34 19.9795L492.372 19.9835L492.404 19.9856L492.469 18.945ZM438.604 21.6676L465.904 21.6676V19.5824L438.604 19.5824V21.6676ZM464.876 20.7972L468.446 42.1122L470.503 41.7678L466.933 20.4528L464.876 20.7972ZM468.432 41.94V81H470.517V41.94H468.432ZM469.474 79.9574H442.804V82.0426H469.474V79.9574ZM443.847 81V41.625H441.762V81H443.847ZM443.827 41.4205L439.627 20.4205L437.582 20.8295L441.782 41.8295L443.827 41.4205ZM495.102 19.365V41.94H497.187V19.365H495.102ZM496.326 40.9133C493.92 40.4888 491.749 40.2034 489.816 40.0603L489.662 42.1397C491.51 42.2766 493.609 42.5512 495.963 42.9667L496.326 40.9133ZM489.855 40.0638C487.937 39.8507 486.217 39.7424 484.699 39.7424V41.8276C486.122 41.8276 487.762 41.9293 489.624 42.1362L489.855 40.0638ZM484.699 39.7424C481.908 39.7424 479.284 40.2573 476.837 41.2952L477.652 43.2148C479.825 42.2927 482.171 41.8276 484.699 41.8276V39.7424ZM476.862 41.285C474.307 42.2915 472.25 44.1426 470.68 46.7586L472.468 47.8314C473.839 45.5474 475.562 44.0385 477.627 43.225L476.862 41.285ZM470.669 46.7777C469.14 49.4538 468.432 53.1634 468.432 57.795H470.517C470.517 53.3266 471.209 50.0362 472.48 47.8123L470.669 46.7777ZM470.287 57.1419L465.562 51.2619L463.937 52.5681L468.662 58.4481L470.287 57.1419ZM465.779 52.081C466.474 47.7731 467.341 43.6779 468.382 39.7948L466.367 39.2552C465.307 43.2121 464.425 47.3769 463.72 51.749L465.779 52.081ZM468.378 39.8068C469.478 35.8905 470.915 32.4413 472.682 29.4504L470.887 28.3896C469.014 31.5587 467.511 35.1795 466.371 39.2432L468.378 39.8068ZM472.687 29.4416C474.432 26.4209 476.632 24.0618 479.283 22.3391L478.146 20.5908C475.196 22.5082 472.776 25.1191 470.882 28.3984L472.687 29.4416ZM479.283 22.3391C481.875 20.6543 485.164 19.7776 489.214 19.7776V17.6924C484.865 17.6924 481.154 18.6357 478.146 20.5908L479.283 22.3391ZM489.214 19.7776C490.218 19.7776 491.26 19.8445 492.34 19.9795L492.599 17.9105C491.439 17.7655 490.311 17.6924 489.214 17.6924V19.7776ZM492.404 19.9856C493.486 20.0532 494.678 20.189 495.982 20.3948L496.307 18.3352C494.951 18.121 493.693 17.9768 492.534 17.9044L492.404 19.9856ZM529.53 60.315L529.209 61.307L530.573 61.7481V60.315H529.53ZM522.39 58.005L521.579 57.3506L520.628 58.5305L522.069 58.997L522.39 58.005ZM552.525 20.625V19.5824H552.027L551.714 19.9706L552.525 20.625ZM579.615 20.625L580.397 21.3145L581.925 19.5824H579.615V20.625ZM526.38 81V82.0426H526.851L527.162 81.6895L526.38 81ZM502.86 81H501.818V82.0426H502.86V81ZM502.86 0.149996V-0.89259H501.818V0.149996H502.86ZM529.53 0.149996L530.573 0.149996V-0.89259L529.53 -0.89259V0.149996ZM535.305 51.81L534.745 50.931L533.918 51.4579L534.393 52.3152L535.305 51.81ZM555.885 38.685L556.781 38.1515L556.231 37.2279L555.325 37.806L555.885 38.685ZM581.085 81V82.0426H582.92L581.981 80.4665L581.085 81ZM551.475 81L550.563 81.5052L550.861 82.0426H551.475V81ZM529.851 59.323L522.711 57.013L522.069 58.997L529.209 61.307L529.851 59.323ZM523.202 58.6593L553.337 21.2793L551.714 19.9706L521.579 57.3506L523.202 58.6593ZM552.525 21.6676H579.615V19.5824L552.525 19.5824V21.6676ZM578.833 19.9355L525.598 80.3105L527.162 81.6895L580.397 21.3145L578.833 19.9355ZM526.38 79.9574H502.86V82.0426H526.38V79.9574ZM503.903 81V0.149996H501.818V81H503.903ZM502.86 1.19258L529.53 1.19258V-0.89259L502.86 -0.89259V1.19258ZM528.488 0.149996V60.315H530.573V0.149996L528.488 0.149996ZM535.866 52.689L556.446 39.564L555.325 37.806L534.745 50.931L535.866 52.689ZM554.99 39.2185L580.19 81.5335L581.981 80.4665L556.781 38.1515L554.99 39.2185ZM581.085 79.9574L551.475 79.9574V82.0426L581.085 82.0426V79.9574ZM552.387 80.4948L536.217 51.3048L534.393 52.3152L550.563 81.5052L552.387 80.4948ZM67.2309 112.185L66.7946 113.132L66.8058 113.137L67.2309 112.185ZM84.0309 125.835L84.8936 125.25L84.0309 125.835ZM84.0309 167.415L84.8936 168L84.8968 167.996L84.0309 167.415ZM67.2309 181.17L67.6595 182.12L67.6637 182.118L67.2309 181.17ZM0.345899 186H-0.696686V187.043H0.345899V186ZM0.345899 107.25V106.207H-0.696686V107.25H0.345899ZM27.2259 173.925L26.4919 174.665L28.2685 176.427V173.925H27.2259ZM15.0459 161.85V160.807H12.5134L14.3119 162.59L15.0459 161.85ZM54.1059 160.065L54.5225 161.021L54.5337 161.016L54.1059 160.065ZM60.5109 154.815L61.3826 155.387L61.3866 155.381L61.3905 155.375L60.5109 154.815ZM60.5109 138.435L59.6393 139.007L60.5109 138.435ZM54.1059 133.29L53.669 134.237L53.6835 134.243L53.6981 134.25L54.1059 133.29ZM15.0459 131.4L14.3119 130.66L12.5134 132.443H15.0459V131.4ZM27.2259 119.325H28.2685V116.823L26.4919 118.585L27.2259 119.325ZM42.1359 108.293C51.6077 108.293 59.8181 109.917 66.7946 113.132L67.6672 111.238C60.3637 107.873 51.8441 106.207 42.1359 106.207V108.293ZM66.8058 113.137C73.8589 116.287 79.299 120.718 83.1682 126.42L84.8936 125.25C80.7829 119.192 75.0229 114.523 67.6561 111.233L66.8058 113.137ZM83.1682 126.42C87.0269 132.107 88.9733 138.827 88.9733 146.625H91.0585C91.0585 138.463 89.0149 131.323 84.8936 125.25L83.1682 126.42ZM88.9733 146.625C88.9733 154.351 87.0279 161.074 83.165 166.834L84.8968 167.996C89.0139 161.856 91.0585 154.719 91.0585 146.625H88.9733ZM83.1682 166.83C79.2975 172.534 73.8548 177.001 66.7981 180.221L67.6637 182.118C75.027 178.759 80.7843 174.056 84.8936 168L83.1682 166.83ZM66.8023 180.22C59.8237 183.367 51.6105 184.957 42.1359 184.957V187.043C51.8413 187.043 60.3581 185.413 67.6595 182.12L66.8023 180.22ZM42.1359 184.957H0.345899L0.345899 187.043H42.1359V184.957ZM1.38848 186L1.38848 107.25H-0.696686L-0.696686 186H1.38848ZM0.345899 108.293L42.1359 108.293V106.207L0.345899 106.207L0.345899 108.293ZM27.9599 173.185L15.7799 161.11L14.3119 162.59L26.4919 174.665L27.9599 173.185ZM15.0459 162.893H44.2359V160.807H15.0459V162.893ZM44.2359 162.893C48.1891 162.893 51.6287 162.282 54.5225 161.021L53.6893 159.109C51.1231 160.228 47.9827 160.807 44.2359 160.807V162.893ZM54.5337 161.016C57.4876 159.686 59.7885 157.816 61.3826 155.387L59.6393 154.243C58.2933 156.294 56.3242 157.923 53.6781 159.114L54.5337 161.016ZM61.3905 155.375C62.9822 152.873 63.7585 149.943 63.7585 146.625H61.6733C61.6733 149.607 60.9796 152.137 59.6313 154.255L61.3905 155.375ZM63.7585 146.625C63.7585 143.243 62.9849 140.305 61.3826 137.863L59.6393 139.007C60.9769 141.045 61.6733 143.567 61.6733 146.625H63.7585ZM61.3826 137.863C59.7848 135.428 57.4767 133.59 54.5137 132.33L53.6981 134.25C56.3351 135.37 58.297 136.962 59.6393 139.007L61.3826 137.863ZM54.5428 132.343C51.6431 131.005 48.196 130.357 44.2359 130.357V132.443C47.9758 132.443 51.1087 133.055 53.669 134.237L54.5428 132.343ZM44.2359 130.357H15.0459V132.443H44.2359V130.357ZM15.7799 132.14L27.9599 120.065L26.4919 118.585L14.3119 130.66L15.7799 132.14ZM26.1833 119.325L26.1833 173.925H28.2685L28.2685 119.325H26.1833ZM143.686 153.45H142.643V156.364L144.492 154.111L143.686 153.45ZM143.686 136.755L144.496 136.099L142.643 133.812V136.755H143.686ZM183.586 186V187.043H185.772L184.396 185.344L183.586 186ZM150.301 186L149.468 186.628L149.781 187.043H150.301V186ZM126.781 154.815V153.772H124.688L125.948 155.443L126.781 154.815ZM140.431 154.815L141.26 155.446L142.534 153.772H140.431V154.815ZM116.701 186V187.043H117.217L117.53 186.631L116.701 186ZM83.8357 186L83.0281 185.341L81.6382 187.043L83.8357 187.043V186ZM124.051 136.755H125.093V133.83L123.243 136.096L124.051 136.755ZM124.051 153.45L123.247 154.115L125.093 156.346V153.45H124.051ZM85.8307 107.25V106.207H83.6151L85.0273 107.915L85.8307 107.25ZM119.746 107.25L120.577 106.621L120.264 106.207H119.746V107.25ZM140.956 135.285V136.328H143.052L141.787 134.656L140.956 135.285ZM127.306 135.285L126.468 134.664L125.235 136.328H127.306V135.285ZM148.096 107.25V106.207H147.571L147.258 106.629L148.096 107.25ZM181.591 107.25L182.397 107.911L183.795 106.207H181.591V107.25ZM144.728 153.45V136.755H142.643V153.45H144.728ZM142.876 137.411L182.776 186.656L184.396 185.344L144.496 136.099L142.876 137.411ZM183.586 184.957H150.301V187.043H183.586V184.957ZM151.133 185.372L127.613 154.187L125.948 155.443L149.468 186.628L151.133 185.372ZM126.781 155.858H140.431V153.772H126.781V155.858ZM139.601 154.184L115.871 185.369L117.53 186.631L141.26 155.446L139.601 154.184ZM116.701 184.957H83.8357V187.043H116.701V184.957ZM84.6432 186.659L124.858 137.414L123.243 136.096L83.0281 185.341L84.6432 186.659ZM123.008 136.755V153.45H125.093V136.755H123.008ZM124.854 152.785L86.634 106.585L85.0273 107.915L123.247 154.115L124.854 152.785ZM85.8307 108.293H119.746V106.207H85.8307V108.293ZM118.914 107.879L140.124 135.914L141.787 134.656L120.577 106.621L118.914 107.879ZM140.956 134.242H127.306V136.328H140.956V134.242ZM128.143 135.906L148.933 107.871L147.258 106.629L126.468 134.664L128.143 135.906ZM148.096 108.293H181.591V106.207H148.096V108.293ZM180.785 106.589L142.88 152.789L144.492 154.111L182.397 107.911L180.785 106.589ZM251.951 178.02L252.704 178.741L252.711 178.733L251.951 178.02ZM238.721 185.475L239.009 186.477L239.017 186.475L238.721 185.475ZM198.401 185.16L198.081 186.153L198.088 186.155L198.096 186.157L198.401 185.16ZM184.436 177.285L183.698 178.022L183.706 178.03L184.436 177.285ZM179.081 165.525V164.482H177.988L178.039 165.574L179.081 165.525ZM206.171 165.525L207.149 165.165L206.897 164.482H206.171V165.525ZM208.691 168.885L208.057 169.713L208.073 169.725L208.089 169.737L208.691 168.885ZM213.311 170.88L213.049 171.889L213.07 171.895L213.092 171.899L213.311 170.88ZM228.116 170.565L228.469 171.546L228.486 171.54L228.503 171.533L228.116 170.565ZM228.536 165.21L228.865 164.221L228.536 165.21ZM221.396 164.16L221.329 165.2L221.396 164.16ZM211.526 163.53L211.459 164.57L211.459 164.57L211.526 163.53ZM193.256 160.59L192.917 161.576L192.926 161.579L192.935 161.582L193.256 160.59ZM183.596 154.395L184.427 153.766L183.596 154.395ZM185.171 133.08L184.425 132.351L184.417 132.36L185.171 133.08ZM197.981 126.045L198.264 127.048L197.981 126.045ZM236.096 126.465L235.77 127.455L235.781 127.459L236.096 126.465ZM249.431 133.92L248.709 134.673L249.431 133.92ZM255.311 145.155V146.198H256.499L256.344 145.019L255.311 145.155ZM228.221 145.155L227.216 145.434L227.428 146.198H228.221V145.155ZM226.121 141.9L226.803 141.112L226.121 141.9ZM222.026 139.8L222.317 138.799L222.026 139.8ZM208.901 140.22L209.349 141.161L209.367 141.153L209.384 141.144L208.901 140.22ZM208.061 145.47L207.566 146.388L207.594 146.403L207.624 146.417L208.061 145.47ZM213.416 146.31L213.482 145.269L213.47 145.269L213.416 146.31ZM226.646 147.15L226.579 148.191L226.588 148.191L226.646 147.15ZM244.496 150.09L244.147 151.073L244.156 151.076L244.166 151.079L244.496 150.09ZM253.841 156.075L252.995 156.685L253.001 156.693L253.006 156.701L253.841 156.075ZM255.633 165.42C255.633 170.222 254.141 174.159 251.19 177.307L252.711 178.733C256.06 175.161 257.718 170.698 257.718 165.42H255.633ZM251.197 177.299C248.205 180.424 243.971 182.832 238.424 184.475L239.017 186.475C244.81 184.758 249.396 182.196 252.704 178.741L251.197 177.299ZM238.432 184.473C232.949 186.049 226.47 186.847 218.981 186.847V188.933C226.611 188.933 233.292 188.121 239.009 186.477L238.432 184.473ZM218.981 186.847C211.289 186.847 204.536 185.946 198.705 184.163L198.096 186.157C204.165 188.014 211.132 188.933 218.981 188.933V186.847ZM198.72 184.167C192.951 182.313 188.451 179.759 185.165 176.54L183.706 178.03C187.28 181.531 192.09 184.227 198.081 186.153L198.72 184.167ZM185.173 176.548C181.984 173.359 180.319 169.68 180.122 165.476L178.039 165.574C178.262 170.33 180.167 174.491 183.698 178.022L185.173 176.548ZM179.081 166.568H206.171V164.482H179.081V166.568ZM205.192 165.885C205.755 167.412 206.72 168.69 208.057 169.713L209.324 168.057C208.281 167.26 207.567 166.298 207.149 165.165L205.192 165.885ZM208.089 169.737C209.41 170.669 211.076 171.378 213.049 171.889L213.572 169.871C211.765 169.402 210.351 168.781 209.292 168.033L208.089 169.737ZM213.092 171.899C215.146 172.34 217.604 172.553 220.451 172.553V170.467C217.697 170.467 215.395 170.26 213.529 169.861L213.092 171.899ZM220.451 172.553C223.85 172.553 226.548 172.237 228.469 171.546L227.762 169.584C226.183 170.153 223.771 170.467 220.451 170.467V172.553ZM228.503 171.533C230.386 170.78 231.783 169.572 231.783 167.73H229.698C229.698 168.268 229.345 168.95 227.728 169.597L228.503 171.533ZM231.783 167.73C231.783 166.901 231.519 166.144 230.974 165.521C230.446 164.918 229.711 164.503 228.865 164.221L228.206 166.199C228.83 166.407 229.198 166.657 229.405 166.894C229.594 167.111 229.698 167.369 229.698 167.73H231.783ZM228.865 164.221C227.259 163.686 224.764 163.33 221.462 163.12L221.329 165.2C224.607 165.41 226.872 165.754 228.206 166.199L228.865 164.221ZM221.462 163.12L211.592 162.49L211.459 164.57L221.329 165.2L221.462 163.12ZM211.592 162.49C204.004 162.002 198.01 161.03 193.576 159.598L192.935 161.582C197.601 163.09 203.787 164.078 211.459 164.57L211.592 162.49ZM193.594 159.604C189.225 158.102 186.217 156.131 184.427 153.766L182.764 155.024C184.894 157.839 188.326 159.998 192.917 161.576L193.594 159.604ZM184.427 153.766C182.62 151.379 181.698 148.492 181.698 145.05H179.613C179.613 148.888 180.651 152.231 182.764 155.024L184.427 153.766ZM181.698 145.05C181.698 140.457 183.12 136.735 185.924 133.8L184.417 132.36C181.201 135.725 179.613 139.983 179.613 145.05H181.698ZM185.916 133.809C188.837 130.822 192.93 128.553 198.264 127.048L197.697 125.042C192.111 126.617 187.664 129.038 184.425 132.351L185.916 133.809ZM198.264 127.048C203.61 125.541 209.881 124.778 217.091 124.778V122.692C209.74 122.692 203.271 123.469 197.697 125.042L198.264 127.048ZM217.091 124.778C224.144 124.778 230.365 125.677 235.77 127.455L236.421 125.475C230.766 123.613 224.317 122.692 217.091 122.692V124.778ZM235.781 127.459C241.195 129.172 245.489 131.587 248.709 134.673L250.152 133.167C246.652 129.813 242.056 127.258 236.41 125.471L235.781 127.459ZM248.709 134.673C251.913 137.743 253.75 141.275 254.277 145.291L256.344 145.019C255.751 140.495 253.668 136.537 250.152 133.167L248.709 134.673ZM255.311 144.112H228.221V146.198H255.311V144.112ZM229.225 144.876C228.817 143.406 227.998 142.148 226.803 141.112L225.438 142.688C226.343 143.472 226.924 144.384 227.216 145.434L229.225 144.876ZM226.803 141.112C225.614 140.082 224.105 139.321 222.317 138.799L221.734 140.801C223.306 141.259 224.527 141.898 225.438 142.688L226.803 141.112ZM222.317 138.799C220.515 138.274 218.381 138.022 215.936 138.022V140.108C218.25 140.108 220.176 140.346 221.734 140.801L222.317 138.799ZM215.936 138.022C212.677 138.022 210.12 138.404 208.417 139.296L209.384 141.144C210.621 140.496 212.754 140.108 215.936 140.108V138.022ZM208.452 139.279C206.775 140.077 205.653 141.315 205.653 143.055H207.738C207.738 142.415 208.086 141.763 209.349 141.161L208.452 139.279ZM205.653 143.055C205.653 143.757 205.796 144.423 206.129 145.012C206.465 145.605 206.959 146.061 207.566 146.388L208.555 144.552C208.252 144.389 208.064 144.197 207.944 143.986C207.822 143.77 207.738 143.473 207.738 143.055H205.653ZM207.624 146.417C208.21 146.687 208.996 146.88 209.92 147.025C210.86 147.172 212.01 147.28 213.361 147.351L213.47 145.269C212.161 145.2 211.088 145.098 210.243 144.965C209.383 144.83 208.821 144.673 208.497 144.523L207.624 146.417ZM213.349 147.35L226.579 148.19L226.712 146.11L213.482 145.27L213.349 147.35ZM226.588 148.191C234.103 148.609 239.941 149.58 244.147 151.073L244.844 149.107C240.37 147.52 234.308 146.531 226.703 146.109L226.588 148.191ZM244.166 151.079C248.466 152.512 251.352 154.411 252.995 156.685L254.686 155.465C252.689 152.699 249.345 150.608 244.825 149.101L244.166 151.079ZM253.006 156.701C254.738 159.009 255.633 161.894 255.633 165.42H257.718C257.718 161.526 256.723 158.18 254.675 155.449L253.006 156.701ZM264.457 125.625V124.582H263.414V125.625H264.457ZM291.127 125.625H292.17V124.582H291.127V125.625ZM291.127 140.535L292.109 140.886L292.17 140.716V140.535H291.127ZM290.077 143.475L289.095 143.124L289.034 143.294V143.475H290.077ZM290.077 163.425H289.034V163.519L289.051 163.611L290.077 163.425ZM291.127 169.2H292.17V169.106L292.153 169.013L291.127 169.2ZM291.127 203.325V204.368H292.17V203.325H291.127ZM264.457 203.325H263.414V204.368H264.457V203.325ZM283.252 155.865L282.215 155.755L282.203 155.872L282.217 155.989L283.252 155.865ZM288.397 138.855L287.495 138.332L287.493 138.336L288.397 138.855ZM299.317 127.725L299.839 128.628L299.849 128.621L299.317 127.725ZM330.082 127.725L329.544 128.618L330.082 127.725ZM340.372 138.96L339.442 139.432L339.448 139.442L340.372 138.96ZM340.372 172.665L339.448 172.183L339.442 172.193L340.372 172.665ZM330.082 183.9L329.544 183.007L330.082 183.9ZM299.212 183.9L298.673 184.793L298.68 184.796L299.212 183.9ZM288.502 172.77L287.594 173.283L287.598 173.289L288.502 172.77ZM315.802 149.67L314.869 150.136L314.877 150.15L314.884 150.164L315.802 149.67ZM311.812 145.365L311.259 146.249L311.267 146.254L311.276 146.259L311.812 145.365ZM299.212 145.365L298.758 144.426L299.212 145.365ZM290.077 155.865L289.079 155.563L288.988 155.865L289.079 156.167L290.077 155.865ZM293.542 162.06L292.761 162.751L292.768 162.758L292.775 162.766L293.542 162.06ZM299.212 166.26L298.758 167.198L299.212 166.26ZM311.812 166.26L311.276 165.366L311.267 165.371L311.259 165.376L311.812 166.26ZM315.802 162.06L314.884 161.566L314.88 161.572L314.877 161.579L315.802 162.06ZM264.457 126.668H291.127V124.582H264.457V126.668ZM290.084 125.625V140.535H292.17V125.625H290.084ZM290.145 140.184L289.095 143.124L291.059 143.826L292.109 140.886L290.145 140.184ZM289.034 143.475V163.425H291.12V143.475H289.034ZM289.051 163.611L290.101 169.387L292.153 169.013L291.103 163.238L289.051 163.611ZM290.084 169.2V203.325H292.17V169.2H290.084ZM291.127 202.282H264.457V204.368H291.127V202.282ZM265.5 203.325L265.5 125.625H263.414L263.414 203.325H265.5ZM284.289 155.975C284.977 149.51 286.657 143.985 289.301 139.374L287.493 138.336C284.677 143.245 282.927 149.06 282.215 155.755L284.289 155.975ZM289.299 139.378C292.015 134.693 295.529 131.119 299.839 128.628L298.795 126.822C294.145 129.511 290.379 133.357 287.495 138.332L289.299 139.378ZM299.849 128.621C304.154 126.065 309.042 124.778 314.542 124.778V122.692C308.702 122.692 303.44 124.065 298.785 126.829L299.849 128.621ZM314.542 124.778C320.332 124.778 325.32 126.07 329.544 128.618L330.62 126.832C326.024 124.06 320.652 122.692 314.542 122.692V124.778ZM329.544 128.618C333.777 131.172 337.076 134.766 339.442 139.432L341.302 138.488C338.768 133.493 335.207 129.598 330.62 126.832L329.544 128.618ZM339.448 139.442C341.877 144.098 343.109 149.562 343.109 155.865H345.195C345.195 149.288 343.907 143.481 341.296 138.478L339.448 139.442ZM343.109 155.865C343.109 162.096 341.878 167.525 339.448 172.183L341.296 173.147C343.906 168.145 345.195 162.374 345.195 155.865H343.109ZM339.442 172.193C337.076 176.859 333.777 180.453 329.544 183.007L330.62 184.793C335.207 182.027 338.768 178.131 341.302 173.137L339.442 172.193ZM329.544 183.007C325.32 185.555 320.332 186.847 314.542 186.847V188.933C320.652 188.933 326.024 187.565 330.62 184.793L329.544 183.007ZM314.542 186.847C308.97 186.847 304.047 185.558 299.744 183.004L298.68 184.796C303.337 187.562 308.634 188.933 314.542 188.933V186.847ZM299.75 183.007C295.502 180.445 292.054 176.868 289.406 172.251L287.598 173.289C290.41 178.192 294.102 182.035 298.673 184.793L299.75 183.007ZM289.41 172.257C286.758 167.566 285.044 162.067 284.287 155.741L282.217 155.989C283 162.543 284.786 168.314 287.594 173.283L289.41 172.257ZM318.315 155.865C318.315 153.403 317.791 151.165 316.72 149.176L314.884 150.164C315.773 151.815 316.229 153.707 316.229 155.865H318.315ZM316.734 149.204C315.736 147.206 314.268 145.623 312.348 144.471L311.276 146.259C312.856 147.207 314.048 148.494 314.869 150.136L316.734 149.204ZM312.365 144.481C310.498 143.314 308.341 142.747 305.932 142.747V144.833C308.003 144.833 309.766 145.316 311.259 146.249L312.365 144.481ZM305.932 142.747C303.458 142.747 301.063 143.311 298.758 144.426L299.666 146.303C301.701 145.319 303.786 144.833 305.932 144.833V142.747ZM298.758 144.426C296.463 145.537 294.462 147.057 292.761 148.979L294.323 150.361C295.842 148.643 297.621 147.293 299.666 146.303L298.758 144.426ZM292.761 148.979C291.052 150.911 289.823 153.108 289.079 155.563L291.075 156.167C291.731 154.002 292.812 152.069 294.323 150.361L292.761 148.979ZM289.079 156.167C289.823 158.622 291.052 160.819 292.761 162.751L294.323 161.369C292.812 159.661 291.731 157.728 291.075 155.563L289.079 156.167ZM292.775 162.766C294.475 164.614 296.471 166.092 298.758 167.198L299.666 165.322C297.613 164.328 295.829 163.006 294.309 161.354L292.775 162.766ZM298.758 167.198C301.063 168.314 303.458 168.878 305.932 168.878V166.792C303.786 166.792 301.701 166.306 299.666 165.322L298.758 167.198ZM305.932 168.878C308.341 168.878 310.498 168.311 312.365 167.144L311.259 165.376C309.766 166.309 308.003 166.792 305.932 166.792V168.878ZM312.348 167.154C314.258 166.008 315.725 164.468 316.727 162.541L314.877 161.579C314.059 163.152 312.866 164.411 311.276 165.366L312.348 167.154ZM316.72 162.554C317.791 160.565 318.315 158.327 318.315 155.865H316.229C316.229 158.023 315.773 159.915 314.884 161.566L316.72 162.554ZM405.26 186L404.228 186.147L404.356 187.043H405.26V186ZM402.215 164.685L401.23 164.345L401.148 164.583L401.183 164.832L402.215 164.685ZM405.26 155.865L406.246 156.205L406.364 155.863L406.245 155.521L405.26 155.865ZM402.215 147.15L401.183 147.004L401.148 147.255L401.231 147.494L402.215 147.15ZM405.26 125.625V124.582H404.355L404.228 125.479L405.26 125.625ZM432.98 125.625L434.013 125.769L434.178 124.582H432.98V125.625ZM428.78 155.76L427.748 155.616L427.728 155.76L427.748 155.903L428.78 155.76ZM432.98 186V187.043H434.178L434.013 185.857L432.98 186ZM410.825 155.865L411.862 155.978L411.873 155.872L411.863 155.766L410.825 155.865ZM405.575 172.77L404.673 172.247L404.671 172.251L405.575 172.77ZM394.76 183.9L394.228 183.004L394.222 183.007L394.76 183.9ZM363.995 183.9L363.457 184.793L363.463 184.796L363.995 183.9ZM353.6 172.665L352.67 173.137L352.676 173.147L353.6 172.665ZM353.6 138.96L352.676 138.478L352.671 138.488L353.6 138.96ZM363.995 127.725L363.463 126.829L363.457 126.832L363.995 127.725ZM394.76 127.725L394.222 128.618L394.23 128.623L394.239 128.628L394.76 127.725ZM405.68 138.855L404.778 139.378L404.782 139.384L405.68 138.855ZM378.17 162.06L377.238 162.526L377.249 162.548L377.261 162.569L378.17 162.06ZM382.16 166.26L381.608 167.144L381.616 167.149L381.624 167.154L382.16 166.26ZM394.865 166.26L395.319 167.198L394.865 166.26ZM400.535 162.06L399.769 161.353L399.768 161.354L400.535 162.06ZM404 155.865L405.006 156.139L405.081 155.865L405.006 155.591L404 155.865ZM400.535 149.67L399.754 150.361L399.762 150.369L399.769 150.377L400.535 149.67ZM394.865 145.365L395.319 144.426L394.865 145.365ZM382.16 145.365L381.624 144.471L381.616 144.476L381.608 144.481L382.16 145.365ZM378.17 149.67L377.252 149.176L377.245 149.19L377.238 149.204L378.17 149.67ZM406.292 185.853L403.247 164.538L401.183 164.832L404.228 186.147L406.292 185.853ZM403.201 165.025L406.246 156.205L404.275 155.525L401.23 164.345L403.201 165.025ZM406.245 155.521L403.2 146.806L401.231 147.494L404.276 156.209L406.245 155.521ZM403.248 147.296L406.293 125.771L404.228 125.479L401.183 147.004L403.248 147.296ZM405.26 126.668H432.98V124.582H405.26V126.668ZM431.948 125.481L427.748 155.616L429.813 155.904L434.013 125.769L431.948 125.481ZM427.748 155.903L431.948 186.143L434.013 185.857L429.813 155.617L427.748 155.903ZM432.98 184.957H405.26V187.043H432.98V184.957ZM409.789 155.752C409.102 162.071 407.39 167.562 404.673 172.247L406.477 173.293C409.361 168.318 411.149 162.539 411.862 155.978L409.789 155.752ZM404.671 172.251C402.025 176.864 398.545 180.44 394.228 183.004L395.293 184.796C399.935 182.04 403.665 178.196 406.48 173.289L404.671 172.251ZM394.222 183.007C389.992 185.558 385.108 186.847 379.535 186.847V188.933C385.443 188.933 390.708 187.562 395.299 184.793L394.222 183.007ZM379.535 186.847C373.818 186.847 368.827 185.556 364.528 183.004L363.463 184.796C368.124 187.564 373.493 188.933 379.535 188.933V186.847ZM364.534 183.007C360.297 180.452 356.962 176.853 354.525 172.183L352.676 173.147C355.279 178.137 358.873 182.028 363.457 184.793L364.534 183.007ZM354.53 172.193C352.166 167.533 350.968 162.1 350.968 155.865H348.883C348.883 162.37 350.134 168.137 352.671 173.137L354.53 172.193ZM350.968 155.865C350.968 149.558 352.167 144.09 354.53 139.432L352.671 138.488C350.134 143.49 348.883 149.292 348.883 155.865H350.968ZM354.525 139.442C356.962 134.772 360.297 131.173 364.534 128.618L363.457 126.832C358.873 129.597 355.279 133.488 352.676 138.478L354.525 139.442ZM364.528 128.621C368.827 126.069 373.818 124.778 379.535 124.778V122.692C373.493 122.692 368.124 124.061 363.463 126.829L364.528 128.621ZM379.535 124.778C385.108 124.778 389.992 126.067 394.222 128.618L395.299 126.832C390.708 124.063 385.443 122.692 379.535 122.692V124.778ZM394.239 128.628C398.548 131.119 402.062 134.693 404.778 139.378L406.582 138.332C403.698 133.357 399.932 129.511 395.282 126.822L394.239 128.628ZM404.782 139.384C407.491 143.989 409.169 149.506 409.788 155.964L411.863 155.766C411.221 149.064 409.47 143.241 406.579 138.326L404.782 139.384ZM375.763 155.865C375.763 158.315 376.246 160.543 377.238 162.526L379.103 161.594C378.275 159.937 377.848 158.035 377.848 155.865H375.763ZM377.261 162.569C378.325 164.47 379.777 166 381.608 167.144L382.713 165.376C381.183 164.42 379.975 163.15 379.08 161.551L377.261 162.569ZM381.624 167.154C383.552 168.311 385.735 168.878 388.145 168.878V166.792C386.075 166.792 384.269 166.309 382.697 165.366L381.624 167.154ZM388.145 168.878C390.62 168.878 393.014 168.314 395.319 167.198L394.411 165.322C392.376 166.306 390.291 166.792 388.145 166.792V168.878ZM395.319 167.198C397.606 166.092 399.603 164.614 401.303 162.766L399.768 161.354C398.248 163.006 396.465 164.328 394.411 165.322L395.319 167.198ZM401.301 162.767C403.091 160.829 404.331 158.616 405.006 156.139L402.995 155.591C402.41 157.734 401.34 159.651 399.769 161.353L401.301 162.767ZM405.006 155.591C404.331 153.114 403.091 150.901 401.301 148.963L399.769 150.377C401.34 152.079 402.41 153.996 402.995 156.139L405.006 155.591ZM401.316 148.979C399.616 147.057 397.615 145.537 395.319 144.426L394.411 146.303C396.456 147.293 398.235 148.643 399.754 150.361L401.316 148.979ZM395.319 144.426C393.014 143.311 390.62 142.747 388.145 142.747V144.833C390.291 144.833 392.376 145.319 394.411 146.303L395.319 144.426ZM388.145 142.747C385.735 142.747 383.552 143.314 381.624 144.471L382.697 146.259C384.269 145.316 386.075 144.833 388.145 144.833V142.747ZM381.608 144.481C379.767 145.631 378.314 147.203 377.252 149.176L379.088 150.164C379.986 148.497 381.193 147.199 382.713 146.249L381.608 144.481ZM377.238 149.204C376.246 151.187 375.763 153.415 375.763 155.865H377.848C377.848 153.695 378.275 151.793 379.103 150.136L377.238 149.204ZM438.604 125.625V124.582H437.333L437.582 125.829L438.604 125.625ZM465.904 125.625L466.933 125.453L466.787 124.582H465.904V125.625ZM469.474 146.94H470.517V146.853L470.503 146.768L469.474 146.94ZM469.474 186V187.043H470.517V186H469.474ZM442.804 186H441.762V187.043H442.804V186ZM442.804 146.625H443.847V146.522L443.827 146.421L442.804 146.625ZM496.144 124.365H497.187V123.474L496.307 123.335L496.144 124.365ZM496.144 146.94L495.963 147.967L497.187 148.183V146.94H496.144ZM489.739 146.1L489.624 147.136L489.643 147.138L489.662 147.14L489.739 146.1ZM477.244 147.255L477.627 148.225L477.639 148.22L477.652 148.215L477.244 147.255ZM471.574 152.295L470.68 151.759L470.675 151.768L470.669 151.778L471.574 152.295ZM469.474 162.795L468.662 163.448L470.517 165.757L470.517 162.795H469.474ZM464.749 156.915L463.72 156.749L463.646 157.207L463.937 157.568L464.749 156.915ZM467.374 144.525L466.371 144.243L466.367 144.255L467.374 144.525ZM471.784 133.92L472.682 134.45L472.687 134.442L471.784 133.92ZM478.714 126.465L479.283 127.339L478.714 126.465ZM492.469 123.945L492.34 124.98L492.372 124.984L492.404 124.986L492.469 123.945ZM438.604 126.668H465.904V124.582H438.604V126.668ZM464.876 125.797L468.446 147.112L470.503 146.768L466.933 125.453L464.876 125.797ZM468.432 146.94L468.432 186H470.517L470.517 146.94H468.432ZM469.474 184.957H442.804V187.043H469.474V184.957ZM443.847 186L443.847 146.625H441.762L441.762 186H443.847ZM443.827 146.421L439.627 125.421L437.582 125.829L441.782 146.829L443.827 146.421ZM495.102 124.365V146.94H497.187V124.365H495.102ZM496.326 145.913C493.92 145.489 491.749 145.203 489.816 145.06L489.662 147.14C491.51 147.277 493.609 147.551 495.963 147.967L496.326 145.913ZM489.855 145.064C487.937 144.851 486.217 144.742 484.699 144.742V146.828C486.122 146.828 487.762 146.929 489.624 147.136L489.855 145.064ZM484.699 144.742C481.908 144.742 479.284 145.257 476.837 146.295L477.652 148.215C479.825 147.293 482.171 146.828 484.699 146.828V144.742ZM476.862 146.285C474.307 147.292 472.25 149.143 470.68 151.759L472.468 152.831C473.839 150.547 475.562 149.038 477.627 148.225L476.862 146.285ZM470.669 151.778C469.14 154.454 468.432 158.163 468.432 162.795H470.517C470.517 158.327 471.209 155.036 472.48 152.812L470.669 151.778ZM470.287 162.142L465.562 156.262L463.937 157.568L468.662 163.448L470.287 162.142ZM465.779 157.081C466.474 152.773 467.341 148.678 468.382 144.795L466.367 144.255C465.307 148.212 464.425 152.377 463.72 156.749L465.779 157.081ZM468.378 144.807C469.478 140.89 470.915 137.441 472.682 134.45L470.887 133.39C469.014 136.559 467.511 140.18 466.371 144.243L468.378 144.807ZM472.687 134.442C474.432 131.421 476.632 129.062 479.283 127.339L478.146 125.591C475.196 127.508 472.776 130.119 470.882 133.398L472.687 134.442ZM479.283 127.339C481.875 125.654 485.164 124.778 489.214 124.778V122.692C484.865 122.692 481.154 123.636 478.146 125.591L479.283 127.339ZM489.214 124.778C490.218 124.778 491.26 124.844 492.34 124.98L492.599 122.91C491.439 122.765 490.311 122.692 489.214 122.692V124.778ZM492.404 124.986C493.486 125.053 494.678 125.189 495.982 125.395L496.307 123.335C494.951 123.121 493.693 122.977 492.534 122.904L492.404 124.986ZM529.53 165.315L529.209 166.307L530.573 166.748V165.315H529.53ZM522.39 163.005L521.579 162.351L520.628 163.53L522.069 163.997L522.39 163.005ZM552.525 125.625V124.582H552.027L551.714 124.971L552.525 125.625ZM579.615 125.625L580.397 126.315L581.925 124.582H579.615V125.625ZM526.38 186V187.043H526.851L527.162 186.69L526.38 186ZM502.86 186H501.818V187.043H502.86V186ZM502.86 105.15V104.107H501.818V105.15H502.86ZM529.53 105.15H530.573V104.107H529.53V105.15ZM535.305 156.81L534.745 155.931L533.918 156.458L534.393 157.315L535.305 156.81ZM555.885 143.685L556.781 143.152L556.231 142.228L555.325 142.806L555.885 143.685ZM581.085 186V187.043H582.92L581.981 185.467L581.085 186ZM551.475 186L550.563 186.505L550.861 187.043H551.475V186ZM529.851 164.323L522.711 162.013L522.069 163.997L529.209 166.307L529.851 164.323ZM523.202 163.659L553.337 126.279L551.714 124.971L521.579 162.351L523.202 163.659ZM552.525 126.668H579.615V124.582H552.525V126.668ZM578.833 124.935L525.598 185.31L527.162 186.69L580.397 126.315L578.833 124.935ZM526.38 184.957H502.86V187.043H526.38V184.957ZM503.903 186L503.903 105.15H501.818L501.818 186H503.903ZM502.86 106.193H529.53V104.107H502.86V106.193ZM528.488 105.15V165.315H530.573V105.15H528.488ZM535.866 157.689L556.446 144.564L555.325 142.806L534.745 155.931L535.866 157.689ZM554.99 144.218L580.19 186.533L581.981 185.467L556.781 143.152L554.99 144.218ZM581.085 184.957H551.475V187.043H581.085V184.957ZM552.387 185.495L536.217 156.305L534.393 157.315L550.563 186.505L552.387 185.495Z" fill="#888789" mask="url(#path-1-outside-1_1785_1726)"/>
</svg>
