<svg width="32" height="33" viewBox="0 0 32 33" fill="none" xmlns="http://www.w3.org/2000/svg">
<g id="Frame" clip-path="url(#clip0_1179_1609)">
<g id="Group">
<path id="Vector" d="M26.6668 16.8592V8.52455C26.6669 8.4193 26.6462 8.31507 26.606 8.21783C26.5657 8.12059 26.5066 8.03225 26.4322 7.95788L22.2348 3.76055C22.0849 3.61047 21.8816 3.52607 21.6695 3.52588H6.1335C5.92132 3.52588 5.71784 3.61016 5.56781 3.76019C5.41778 3.91022 5.3335 4.11371 5.3335 4.32588V29.3925C5.3335 29.6047 5.41778 29.8082 5.56781 29.9582C5.71784 30.1083 5.92132 30.1925 6.1335 30.1925H17.3335M10.6668 14.1925H21.3335M10.6668 8.85921H16.0002M10.6668 19.5259H14.6668" stroke="black" stroke-width="2" stroke-linecap="round" stroke-linejoin="round"/>
<path id="Vector_2" d="M21.3335 3.52588V8.05921C21.3335 8.27139 21.4178 8.47487 21.5678 8.6249C21.7178 8.77493 21.9213 8.85921 22.1335 8.85921H26.6668M26.6562 21.0259L30.0642 21.8912C30.4188 21.9819 30.6682 22.3045 30.6575 22.6699C30.4282 30.3472 26.0002 31.5259 26.0002 31.5259C26.0002 31.5259 21.5722 30.3472 21.3428 22.6699C21.3387 22.492 21.3952 22.3181 21.503 22.1766C21.6108 22.0351 21.7636 21.9344 21.9362 21.8912L25.3442 21.0259C25.7748 20.9165 26.2255 20.9165 26.6562 21.0259Z" stroke="black" stroke-width="2" stroke-linecap="round" stroke-linejoin="round"/>
</g>
</g>
<defs>
<clipPath id="clip0_1179_1609">
<rect width="32" height="32" fill="white" transform="translate(0 0.859375)"/>
</clipPath>
</defs>
</svg>
