<svg width="626" height="473" viewBox="0 0 626 473" fill="none" xmlns="http://www.w3.org/2000/svg">
<path d="M597.11 77.02C594.94 72.89 592.07 67.36 589.78 63.3L587.36 58.77C590.33 64.22 594.3 71.49 597.11 77.02Z" fill="#D9E81B"/>
<path d="M82.7103 448.12C66.6803 436.94 65.7203 436.27 55.2903 424.15L48.0603 414.52L40.5303 403.69C50.6603 416.62 55.7503 423.1 72.0603 433.2C75.1903 437.72 79.4303 443.72 82.7203 448.13" fill="#D9E81B"/>
<path d="M238.11 468.96C180 475.2 131.68 474.25 84.7601 449.34C81.5001 444.91 77.2101 438.97 74.1201 434.43C110.44 452.89 150.68 463.33 229.05 454.27C231.73 458.7 235.33 464.6 238.11 468.97" stroke="#D9E81B" stroke-width="0.77" stroke-miterlimit="10"/>
<path d="M215.51 429.22C150.83 436.17 60.25 437.55 20.54 369.7L16.79 362.19L11.78 351.39L7.29004 340.8C35.82 398.02 102.43 420.45 205.27 407.46C211.7 421.58 211.82 421.85 215.51 429.22Z" fill="#D9E81B"/>
<path d="M26.7801 381.3L26.3701 380.56L26.4701 380.75L26.7801 381.3Z" fill="#D9E81B"/>
<path d="M35.8602 396.35L33.4602 392.65L31.3202 389.12L29.7902 386.54C28.9202 385.05 28.0602 383.55 27.2202 382.05L30.5502 387.3C32.2602 390.36 34.0302 393.38 35.8602 396.35Z" fill="#D9E81B"/>
<path d="M40.4799 402.51C39.1699 400.91 37.9099 399.27 36.7199 397.59L31.4199 388.55L35.1999 393.5L40.4799 402.52" fill="#D9E81B"/>
<path d="M45.6599 408.31L41.4599 403.68C39.6399 400.72 37.8799 397.71 36.1699 394.66C37.5099 396.24 38.9199 397.79 40.3799 399.29C42.0899 402.34 43.8499 405.35 45.6599 408.31Z" fill="#D9E81B"/>
<path d="M51.36 413.72L46.74 409.39C44.93 406.43 43.17 403.43 41.46 400.37L46.09 404.71C47.79 407.76 49.55 410.76 51.36 413.71" fill="#D9E81B"/>
<path d="M57.55 418.75C55.82 417.45 54.15 416.11 52.53 414.73L47.27 405.73L52.31 409.77L57.55 418.74" fill="#D9E81B"/>
<path d="M64.2498 423.42L58.8298 419.7C57.0298 416.76 55.2898 413.76 53.5898 410.72C55.3498 412 57.1598 413.24 59.0198 414.44L64.2498 423.41" fill="#D9E81B"/>
<path d="M71.4201 427.71L65.6201 424.29C63.8301 421.35 62.0801 418.36 60.3901 415.31L66.2101 418.74C67.9001 421.78 69.6401 424.77 71.4301 427.71" fill="#D9E81B"/>
<path d="M79.0402 431.6C76.9402 430.61 74.8802 429.57 72.8802 428.5L67.6802 419.54L73.8702 422.66L79.0502 431.6" fill="#D9E81B"/>
<path d="M87.1099 435.14L80.5899 432.33C78.8199 429.4 77.0899 426.42 75.3999 423.39C77.5299 424.37 79.7099 425.3 81.9299 426.2C83.6099 429.24 85.3399 432.22 87.1099 435.15" fill="#D9E81B"/>
<path d="M95.5998 438.29L88.7398 435.78C86.9698 432.85 85.2498 429.87 83.5698 426.83L90.4498 429.34C92.1298 432.37 93.8398 435.35 95.5998 438.28" fill="#D9E81B"/>
<path d="M104.49 441.05C102.05 440.36 99.6599 439.63 97.3099 438.86L92.1699 429.92L99.3799 432.13L104.5 441.05" fill="#D9E81B"/>
<path d="M113.78 443.44L106.29 441.55C104.54 438.63 102.84 435.66 101.17 432.63C103.63 433.3 106.14 433.93 108.68 434.52L113.78 443.44Z" fill="#D9E81B"/>
<path d="M123.45 445.45L115.65 443.86C113.91 440.94 112.21 437.96 110.55 434.93L118.37 436.52C120.03 439.55 121.72 442.52 123.45 445.44" fill="#D9E81B"/>
<path d="M133.46 447.06C130.73 446.68 128.04 446.26 125.38 445.79L120.31 436.87L128.42 438.15L133.46 447.05" fill="#D9E81B"/>
<path d="M143.83 448.31L135.47 447.34C133.75 444.43 132.07 441.46 130.42 438.44C133.18 438.8 135.97 439.12 138.8 439.4C140.44 442.43 142.12 445.4 143.83 448.31Z" fill="#D9E81B"/>
<path d="M154.51 449.17L145.89 448.51C144.19 445.6 142.51 442.63 140.87 439.61C143.71 439.87 146.59 440.09 149.5 440.26C151.14 443.29 152.8 446.26 154.5 449.17" fill="#D9E81B"/>
<path d="M165.49 449.63C162.51 449.56 159.55 449.44 156.63 449.29L151.65 440.38L160.54 440.74L165.5 449.64" fill="#D9E81B"/>
<path d="M176.78 449.72C173.72 449.75 170.69 449.74 167.69 449.69C166.01 446.78 164.35 443.81 162.72 440.78C165.73 440.83 168.77 440.84 171.83 440.81C173.45 443.83 175.1 446.8 176.77 449.72" fill="#D9E81B"/>
<path d="M188.34 449.43L179.03 449.69C177.36 446.78 175.72 443.81 174.1 440.79C177.18 440.74 180.29 440.65 183.43 440.51C185.05 443.53 186.68 446.5 188.35 449.42" fill="#D9E81B"/>
<path d="M200.14 448.74C196.94 448.98 193.77 449.17 190.63 449.33L185.73 440.42L195.27 439.84L200.14 448.74Z" fill="#D9E81B"/>
<path d="M212.2 447.67C208.94 448.01 205.7 448.31 202.5 448.57C200.85 445.66 199.23 442.69 197.62 439.66C200.84 439.4 204.08 439.1 207.35 438.76C208.95 441.79 210.57 444.76 212.2 447.67Z" fill="#D9E81B"/>
<path d="M224.47 446.22L214.58 447.42C212.95 444.51 211.34 441.54 209.74 438.52C213.02 438.16 216.32 437.75 219.65 437.31C221.24 440.34 222.85 443.31 224.47 446.23" fill="#D9E81B"/>
<path d="M224.75 446.73C223.03 443.65 221.33 440.51 219.65 437.31C273.93 428.69 302.63 420.58 359.25 397.89C372.43 395.51 389.95 392.07 403.03 389.22C345.7 416.86 295.88 436.12 224.76 446.74" fill="#D9E81B"/>
<path d="M519.52 311.42C499.28 328.3 468.68 353.82 417.29 381.73C404.39 384.81 387.13 388.67 374.13 391.33C426.89 365.93 465 344.12 515.25 301.62C516.73 304.91 518.15 308.18 519.52 311.42Z" fill="#D9E81B"/>
<path d="M438 399.35C388.66 425.89 328.45 455.35 238.11 468.97C235.35 464.59 231.71 458.72 229.05 454.27C279.01 446.33 339.94 433.7 431 383.93C433.11 388.55 435.92 394.72 438 399.36" stroke="#D9E81B" stroke-width="0.77" stroke-miterlimit="10"/>
<path d="M588.49 270.88C555.75 313.79 518.32 351.67 442.04 397.04C439.96 392.4 437.18 386.22 435.08 381.59C481.55 353.53 535.14 318.23 583.05 254.14C584.74 259.14 586.95 265.83 588.49 270.88Z" stroke="#D9E81B" stroke-width="0.77" stroke-miterlimit="10"/>
<path d="M620.38 137.23L623.64 149.67C626.69 168.23 633.04 206.84 590.27 268.35C588.7 263.3 586.57 256.58 584.85 251.58C607.52 216.69 630.56 175.29 616.79 125.37L620.37 137.23" fill="#D9E81B"/>
<path d="M238.34 425.58C231.49 426.68 222.39 428.3 215.51 429.22C208.85 415.5 208.72 415.24 205.27 407.46C212.11 406.37 221.26 405.08 228.06 403.82C234.54 417.93 234.66 418.2 238.33 425.57" fill="#D9E81B"/>
<path d="M266.58 419.49C259.53 421.05 250.16 423.29 243.07 424.68C236.41 410.96 236.29 410.7 232.8 402.94C239.85 401.39 249.28 399.47 256.29 397.76C262.81 411.85 262.94 412.12 266.58 419.49Z" fill="#D9E81B"/>
<path d="M295.51 411.54C288.29 413.57 278.71 416.42 271.44 418.28C264.8 404.57 264.67 404.31 261.14 396.54C268.35 394.53 278 391.99 285.16 389.81C289.64 399.377 293.093 406.62 295.52 411.54" fill="#D9E81B"/>
<path d="M324.9 401.72C317.57 404.21 307.84 407.68 300.45 410.01C295.937 400.69 292.483 393.45 290.09 388.29C297.42 385.81 307.24 382.65 314.51 380.01C319.03 389.557 322.493 396.79 324.9 401.71" fill="#D9E81B"/>
<path d="M354.63 390.03C347.22 392.99 337.4 397.08 329.93 399.88C323.42 386.44 323.17 385.92 319.52 378.17C326.92 375.22 336.85 371.44 344.19 368.33C348.75 377.85 352.23 385.083 354.63 390.03Z" fill="#D9E81B"/>
<path d="M384.45 376.46C377.02 379.88 367.17 384.6 359.67 387.86C353.81 375.75 352.91 373.89 349.23 366.18C356.66 362.77 366.63 358.36 373.99 354.79C377.48 362.01 380.97 369.24 384.46 376.46" fill="#D9E81B"/>
<path d="M413.33 361.5C406.17 365.26 396.69 370.41 389.45 374.01C385.96 366.78 382.47 359.55 378.97 352.33C386.12 348.59 395.73 343.74 402.8 339.84C407.447 349.347 410.957 356.567 413.33 361.5Z" fill="#D9E81B"/>
<path d="M440.66 345.48C433.88 349.5 424.92 354.99 418.06 358.86C411.42 345.13 411.3 344.87 407.53 337.22C414.3 333.22 423.41 328.01 430.09 323.86C434.77 333.333 438.29 340.54 440.65 345.48" fill="#D9E81B"/>
<path d="M466.37 328.56C460 332.8 451.59 338.59 445.14 342.69C438.51 328.96 438.39 328.7 434.56 321.06C440.92 316.83 449.49 311.32 455.76 306.95C462.71 320.87 462.84 321.13 466.37 328.56Z" fill="#D9E81B"/>
<path d="M605.59 96.11C631.73 196.34 520.5 289.54 471.47 324.97C466.963 315.637 463.427 308.44 460.86 303.38C611.98 190.29 604.87 105.88 594.79 74.84C599.28 83.2 604.37 92.67 605.59 96.11Z" stroke="#D9E81B" stroke-width="0.77" stroke-miterlimit="10"/>
<path d="M529.73 301.47C527.25 303.78 524.73 306.08 522.16 308.36L518.13 299.08L525.72 292.19C527.11 295.31 528.45 298.4 529.73 301.47Z" fill="#D9E81B"/>
<path d="M538.77 292.83C536.4 295.16 533.99 297.48 531.54 299.79L527.54 290.49C530 288.17 532.42 285.84 534.79 283.51L538.78 292.83" fill="#D9E81B"/>
<path d="M547.39 284.11L540.5 291.12C539.23 288.04 537.9 284.94 536.52 281.81C538.87 279.47 541.17 277.12 543.42 274.77C544.8 277.9 546.12 281.01 547.39 284.11Z" fill="#D9E81B"/>
<path d="M555.56 275.32C553.43 277.68 551.25 280.04 549.03 282.4C547.76 279.31 546.44 276.19 545.06 273.06L551.61 265.98C552.98 269.11 554.3 272.23 555.55 275.33" fill="#D9E81B"/>
<path d="M563.27 266.49C561.26 268.87 559.21 271.24 557.1 273.6L553.16 264.23C555.27 261.86 557.33 259.48 559.34 257.1L563.26 266.49" fill="#D9E81B"/>
<path d="M570.53 257.61L564.73 264.74C563.48 261.63 562.18 258.5 560.81 255.36C562.8 252.98 564.73 250.59 566.62 248.2C567.98 251.35 569.29 254.49 570.53 257.61Z" fill="#D9E81B"/>
<path d="M577.31 248.72C575.56 251.11 573.75 253.49 571.9 255.88L568 246.46L573.43 239.3C574.79 242.45 576.08 245.59 577.32 248.72" fill="#D9E81B"/>
<path d="M583.61 239.82C581.99 242.21 580.31 244.6 578.59 246.99L574.71 237.55C576.44 235.16 578.12 232.76 579.75 230.37L583.62 239.83" fill="#D9E81B"/>
<path d="M589.42 230.92L584.79 238.07C583.56 234.93 582.28 231.78 580.92 228.62C582.52 226.23 584.07 223.83 585.56 221.44C586.91 224.61 588.2 227.77 589.42 230.92Z" fill="#D9E81B"/>
<path d="M594.72 222.04C593.37 224.42 591.96 226.8 590.5 229.19L586.65 219.7L590.88 212.56C592.22 215.73 593.5 218.89 594.72 222.05" fill="#D9E81B"/>
<path d="M599.51 213.19C598.3 215.56 597.03 217.93 595.7 220.31L591.86 210.8C593.19 208.42 594.46 206.04 595.68 203.66L599.51 213.19Z" fill="#D9E81B"/>
<path d="M603.77 204.39L600.38 211.46C599.17 208.29 597.9 205.12 596.56 201.94C597.75 199.57 598.88 197.2 599.95 194.84C601.29 198.02 602.56 201.21 603.77 204.39Z" fill="#D9E81B"/>
<path d="M607.5 195.65L604.54 202.67L600.73 193.11L603.69 186.08C605.03 189.27 606.3 192.46 607.5 195.65Z" fill="#D9E81B"/>
<path d="M610.68 186.97C609.9 189.29 609.06 191.61 608.17 193.94L604.37 184.36C605.27 182.02 606.11 179.69 606.89 177.37L610.69 186.97" fill="#D9E81B"/>
<path d="M613.31 178.38L611.24 185.27C610.04 182.07 608.78 178.88 607.45 175.69C608.2 173.37 608.89 171.06 609.52 168.77C610.85 171.97 612.12 175.18 613.31 178.39" fill="#D9E81B"/>
<path d="M615.37 169.9L613.76 176.71L609.97 167.08L611.59 160.26C612.92 163.47 614.18 166.68 615.38 169.9" fill="#D9E81B"/>
<path d="M616.85 161.52C616.53 163.75 616.15 166 615.71 168.25L611.93 158.6L613.08 151.86L616.86 161.52" fill="#D9E81B"/>
<path d="M617.75 153.27L617.07 159.89C615.88 156.67 614.62 153.45 613.29 150.24C613.58 148.01 613.8 145.79 613.96 143.59C615.29 146.81 616.55 150.04 617.74 153.27" fill="#D9E81B"/>
<path d="M618.04 145.17L617.85 151.67L614.07 141.97L614.26 135.46C615.59 138.68 616.85 141.92 618.04 145.16" fill="#D9E81B"/>
<path d="M617.73 137.2C617.9 139.31 618 141.44 618.03 143.59L614.25 133.87L613.95 127.47L617.73 137.19" fill="#D9E81B"/>
<path d="M616.8 129.41L617.59 135.65C616.4 132.4 615.14 129.16 613.82 125.93C613.62 123.82 613.35 121.73 613.02 119.66C614.35 122.9 615.61 126.14 616.8 129.41Z" fill="#D9E81B"/>
<path d="M615.24 121.81L616.55 127.91L612.76 118.15L611.46 112.04L615.24 121.81Z" fill="#D9E81B"/>
<path d="M613.04 114.39C613.72 116.35 614.32 118.34 614.86 120.34L611.07 110.56L609.25 104.6L613.04 114.38" fill="#D9E81B"/>
</svg>
