<svg width="141" height="86" viewBox="0 0 141 86" fill="none" xmlns="http://www.w3.org/2000/svg">
<path d="M9.46 16.5C13.11 13.91 17.31 12.61 22.07 12.61C28.18 12.61 33.38 14.76 37.69 19.06C42 23.36 44.14 28.57 44.14 34.68C44.14 40.79 41.99 46 37.69 50.3C33.39 54.6 28.18 56.75 22.07 56.75C15.96 56.75 10.75 54.6 6.45 50.3C2.15 46 0 40.79 0 34.68V0H9.46V16.5ZM30.99 43.6C33.45 41.14 34.68 38.16 34.68 34.68C34.68 31.2 33.45 28.23 30.99 25.76C28.53 23.3 25.55 22.07 22.07 22.07C18.59 22.07 15.61 23.3 13.15 25.76C10.69 28.22 9.45 31.2 9.45 34.68C9.45 38.16 10.68 41.14 13.15 43.6C15.61 46.06 18.59 47.3 22.07 47.3C25.55 47.3 28.52 46.07 30.99 43.6Z" fill="#131314"/>
<path d="M61.13 43.6C63.59 46.06 66.57 47.29 70.05 47.29C73.53 47.29 76.5 46.06 78.97 43.6L79.02 43.55L85.72 50.25L85.67 50.3C81.37 54.6 76.16 56.75 70.05 56.75C63.94 56.75 58.73 54.6 54.43 50.3C50.13 46 47.98 40.79 47.98 34.68C47.98 28.57 50.13 23.37 54.43 19.06C58.73 14.75 63.94 12.61 70.05 12.61C76.16 12.61 81.36 14.76 85.67 19.06C89.97 23.36 92.12 28.57 92.12 34.68C92.12 35.73 92.02 36.78 91.82 37.83H57.83C58.36 40 59.46 41.92 61.13 43.6ZM78.96 25.76C76.5 23.3 73.52 22.07 70.04 22.07C66.56 22.07 63.58 23.3 61.12 25.76C60.3 26.58 59.62 27.45 59.1 28.37H80.97C80.44 27.45 79.77 26.58 78.95 25.76" fill="#131314"/>
<path d="M109.11 43.6C111.57 46.06 114.55 47.29 118.03 47.29C121.51 47.29 124.48 46.06 126.95 43.6L127 43.55L133.7 50.25L133.65 50.3C129.35 54.6 124.14 56.75 118.03 56.75C111.92 56.75 106.71 54.6 102.41 50.3C98.11 46 95.96 40.79 95.96 34.68C95.96 28.57 98.11 23.37 102.41 19.06C106.71 14.76 111.92 12.61 118.03 12.61C124.14 12.61 129.34 14.76 133.65 19.06C137.95 23.36 140.1 28.57 140.1 34.68C140.1 35.73 140 36.78 139.8 37.83H105.81C106.33 40 107.44 41.92 109.11 43.6ZM126.95 25.76C124.49 23.3 121.51 22.07 118.03 22.07C114.55 22.07 111.57 23.3 109.11 25.76C108.29 26.58 107.62 27.45 107.09 28.37H128.97C128.44 27.45 127.77 26.58 126.95 25.76Z" fill="#131314"/>
<path d="M11.09 68.71C13.81 69.46 15.5 71.67 15.55 74.76V74.73C15.6 75.26 15.36 75.84 14.37 75.84H4.86C5.17 77.81 6.86 79.45 9.27 79.45C10.38 79.45 11.53 79.16 12.47 78.44C13.31 77.67 14.57 78.66 13.63 79.62C12.52 80.65 10.91 81.09 9.34 81.06C7.46 81.06 5.58 80.34 4.45 78.92C1.85 75.5 2.98 69.96 7.46 68.71C8.59 68.37 9.89 68.4 11.07 68.71H11.09ZM4.78 74.37H13.86C13.69 72.32 12.44 70.76 10.56 70.28H10.58C9.79 70.06 8.8 70.06 7.98 70.31C6.05 70.81 4.92 72.43 4.78 74.38" fill="#131314"/>
<path d="M28.68 73.84C28.68 71.62 26.9 70.08 24.95 70.08C22.61 70.08 20.42 72.01 20.42 74.63V80.22C20.42 80.75 20.11 81.06 19.55 81.06C18.99 81.06 18.63 80.75 18.63 80.22V69.43C18.63 68.32 20.36 68.3 20.36 69.45V70.94C21.23 69.18 23.08 68.44 24.96 68.44C27.76 68.44 30.43 70.37 30.43 73.84V80.23C30.43 80.76 30.12 81.07 29.56 81.07C29 81.07 28.67 80.76 28.67 80.23V73.84H28.68Z" fill="#131314"/>
<path d="M45.32 80.35C45.32 83.84 42.67 85.65 39.37 85.65C37.54 85.65 36.07 85.22 34.77 83.99C33.81 83.05 35.13 81.94 35.95 82.74C37.15 83.66 38.02 83.94 39.37 83.94C41.56 83.94 43.61 82.83 43.61 80.35V79.05C42.77 80.57 41.2 81.15 39.76 81.17C38.84 81.19 37.98 81.05 37.16 80.71C34.92 79.79 33.55 77.6 33.5 75.17C33.43 72.38 34.73 69.99 37.35 68.91C38.1 68.62 38.89 68.5 39.61 68.5C41.08 68.5 42.76 69.05 43.56 70.38V69.46C43.56 68.93 43.87 68.59 44.43 68.59C44.99 68.59 45.32 68.93 45.32 69.46V80.35ZM37.01 71.05H37.03C35.71 72.13 35.2 73.58 35.25 75.15C35.27 75.78 35.39 76.43 35.61 76.93C36.28 78.62 38.02 79.53 39.73 79.51H39.71C41.88 79.41 43.56 77.85 43.56 75.8V73.9C43.56 72.38 42.93 71.23 41.51 70.6C40.07 69.95 38.33 70.05 37.01 71.06" fill="#131314"/>
<path d="M50.65 66.86C50.65 67.94 48.84 67.97 48.84 66.86V65.78C48.84 64.67 50.65 64.67 50.65 65.78V66.86ZM48.87 69.46C48.87 68.42 50.63 68.4 50.63 69.44V80.3C50.63 81.36 48.87 81.34 48.87 80.3V69.46Z" fill="#131314"/>
<path d="M63.97 73.84C63.97 71.62 62.19 70.08 60.24 70.08C57.9 70.08 55.71 72.01 55.71 74.63V80.22C55.71 80.75 55.4 81.06 54.84 81.06C54.28 81.06 53.92 80.75 53.92 80.22V69.43C53.92 68.32 55.65 68.3 55.65 69.45V70.94C56.52 69.18 58.37 68.44 60.25 68.44C63.05 68.44 65.72 70.37 65.72 73.84V80.23C65.72 80.76 65.41 81.07 64.85 81.07C64.29 81.07 63.96 80.76 63.96 80.23V73.84H63.97Z" fill="#131314"/>
<path d="M76.84 68.71C79.56 69.46 81.25 71.67 81.3 74.76V74.73C81.35 75.26 81.11 75.84 80.12 75.84H70.61C70.92 77.81 72.61 79.45 75.02 79.45C76.13 79.45 77.28 79.16 78.22 78.44C79.06 77.67 80.32 78.66 79.38 79.62C78.27 80.65 76.66 81.09 75.09 81.06C73.21 81.06 71.33 80.34 70.2 78.92C67.6 75.5 68.73 69.96 73.21 68.71C74.34 68.37 75.64 68.4 76.82 68.71H76.84ZM70.53 74.37H79.61C79.44 72.32 78.19 70.76 76.31 70.28H76.33C75.54 70.06 74.55 70.06 73.73 70.31C71.8 70.81 70.67 72.43 70.53 74.38" fill="#131314"/>
<path d="M91.75 68.71C94.47 69.46 96.16 71.67 96.21 74.76V74.73C96.26 75.26 96.02 75.84 95.03 75.84H85.52C85.83 77.81 87.52 79.45 89.93 79.45C91.04 79.45 92.19 79.16 93.13 78.44C93.97 77.67 95.23 78.66 94.29 79.62C93.18 80.65 91.57 81.09 90 81.06C88.12 81.06 86.24 80.34 85.11 78.92C82.51 75.5 83.64 69.96 88.12 68.71C89.25 68.37 90.55 68.4 91.73 68.71H91.75ZM85.44 74.37H94.52C94.35 72.32 93.1 70.76 91.22 70.28H91.24C90.45 70.06 89.46 70.06 88.64 70.31C86.71 70.81 85.58 72.43 85.44 74.38" fill="#131314"/>
<path d="M100.93 70.66C101.7 69.05 103.15 68.61 104.52 68.61C105.07 68.61 105.44 68.9 105.44 69.45C105.44 70 105.08 70.27 104.52 70.27C102.04 70.27 100.98 72.25 100.98 74.68V80.12C100.98 80.63 100.57 80.96 100.11 80.96C99.58 80.96 99.22 80.62 99.22 80.12V69.45C99.22 68.39 100.93 68.29 100.93 69.45V70.65V70.66Z" fill="#131314"/>
<path d="M109 66.86C109 67.94 107.19 67.97 107.19 66.86V65.78C107.19 64.67 109 64.67 109 65.78V66.86ZM107.22 69.46C107.22 68.42 108.98 68.4 108.98 69.44V80.3C108.98 81.36 107.22 81.34 107.22 80.3V69.46Z" fill="#131314"/>
<path d="M122.32 73.84C122.32 71.62 120.54 70.08 118.59 70.08C116.25 70.08 114.06 72.01 114.06 74.63V80.22C114.06 80.75 113.75 81.06 113.19 81.06C112.63 81.06 112.27 80.75 112.27 80.22V69.43C112.27 68.32 114 68.3 114 69.45V70.94C114.87 69.18 116.72 68.44 118.6 68.44C121.39 68.44 124.07 70.37 124.07 73.84V80.23C124.07 80.76 123.76 81.07 123.2 81.07C122.64 81.07 122.31 80.76 122.31 80.23V73.84H122.32Z" fill="#131314"/>
<path d="M138.97 80.35C138.97 83.84 136.32 85.65 133.02 85.65C131.19 85.65 129.72 85.22 128.42 83.99C127.46 83.05 128.78 81.94 129.6 82.74C130.8 83.66 131.67 83.94 133.02 83.94C135.21 83.94 137.26 82.83 137.26 80.35V79.05C136.42 80.57 134.85 81.15 133.41 81.17C132.5 81.19 131.63 81.05 130.81 80.71C128.57 79.79 127.2 77.6 127.15 75.17C127.08 72.38 128.38 69.99 131 68.91C131.75 68.62 132.54 68.5 133.26 68.5C134.73 68.5 136.41 69.05 137.21 70.38V69.46C137.21 68.93 137.52 68.59 138.08 68.59C138.64 68.59 138.97 68.93 138.97 69.46V80.35ZM130.66 71.05H130.68C129.36 72.13 128.85 73.58 128.9 75.15C128.92 75.78 129.04 76.43 129.26 76.93C129.93 78.62 131.67 79.53 133.38 79.51H133.36C135.53 79.41 137.21 77.85 137.21 75.8V73.9C137.21 72.38 136.58 71.23 135.16 70.6C133.71 69.95 131.98 70.05 130.66 71.06" fill="#131314"/>
<path d="M9.46 16.5C13.11 13.91 17.31 12.61 22.07 12.61C28.18 12.61 33.38 14.76 37.69 19.06C42 23.36 44.14 28.57 44.14 34.68C44.14 40.79 41.99 46 37.69 50.3C33.39 54.6 28.18 56.75 22.07 56.75C15.96 56.75 10.75 54.6 6.45 50.3C2.15 46 0 40.79 0 34.68V0H9.46V16.5ZM30.99 43.6C33.45 41.14 34.68 38.16 34.68 34.68C34.68 31.2 33.45 28.23 30.99 25.76C28.53 23.3 25.55 22.07 22.07 22.07C18.59 22.07 15.61 23.3 13.15 25.76C10.69 28.22 9.45 31.2 9.45 34.68C9.45 38.16 10.68 41.14 13.15 43.6C15.61 46.06 18.59 47.3 22.07 47.3C25.55 47.3 28.52 46.07 30.99 43.6Z" fill="#131314"/>
<path d="M61.13 43.6C63.59 46.06 66.57 47.29 70.05 47.29C73.53 47.29 76.5 46.06 78.97 43.6L79.02 43.55L85.72 50.25L85.67 50.3C81.37 54.6 76.16 56.75 70.05 56.75C63.94 56.75 58.73 54.6 54.43 50.3C50.13 46 47.98 40.79 47.98 34.68C47.98 28.57 50.13 23.37 54.43 19.06C58.73 14.75 63.94 12.61 70.05 12.61C76.16 12.61 81.36 14.76 85.67 19.06C89.97 23.36 92.12 28.57 92.12 34.68C92.12 35.73 92.02 36.78 91.82 37.83H57.83C58.36 40 59.46 41.92 61.13 43.6ZM78.96 25.76C76.5 23.3 73.52 22.07 70.04 22.07C66.56 22.07 63.58 23.3 61.12 25.76C60.3 26.58 59.62 27.45 59.1 28.37H80.97C80.44 27.45 79.77 26.58 78.95 25.76" fill="#131314"/>
<path d="M109.11 43.6C111.57 46.06 114.55 47.29 118.03 47.29C121.51 47.29 124.48 46.06 126.95 43.6L127 43.55L133.7 50.25L133.65 50.3C129.35 54.6 124.14 56.75 118.03 56.75C111.92 56.75 106.71 54.6 102.41 50.3C98.11 46 95.96 40.79 95.96 34.68C95.96 28.57 98.11 23.37 102.41 19.06C106.71 14.76 111.92 12.61 118.03 12.61C124.14 12.61 129.34 14.76 133.65 19.06C137.95 23.36 140.1 28.57 140.1 34.68C140.1 35.73 140 36.78 139.8 37.83H105.81C106.33 40 107.44 41.92 109.11 43.6ZM126.95 25.76C124.49 23.3 121.51 22.07 118.03 22.07C114.55 22.07 111.57 23.3 109.11 25.76C108.29 26.58 107.62 27.45 107.09 28.37H128.97C128.44 27.45 127.77 26.58 126.95 25.76Z" fill="#131314"/>
<path d="M11.09 68.71C13.81 69.46 15.5 71.67 15.55 74.76V74.73C15.6 75.26 15.36 75.84 14.37 75.84H4.86C5.17 77.81 6.86 79.45 9.27 79.45C10.38 79.45 11.53 79.16 12.47 78.44C13.31 77.67 14.57 78.66 13.63 79.62C12.52 80.65 10.91 81.09 9.34 81.06C7.46 81.06 5.58 80.34 4.45 78.92C1.85 75.5 2.98 69.96 7.46 68.71C8.59 68.37 9.89 68.4 11.07 68.71H11.09ZM4.78 74.37H13.86C13.69 72.32 12.44 70.76 10.56 70.28H10.58C9.79 70.06 8.8 70.06 7.98 70.31C6.05 70.81 4.92 72.43 4.78 74.38" fill="#131314"/>
<path d="M28.68 73.84C28.68 71.62 26.9 70.08 24.95 70.08C22.61 70.08 20.42 72.01 20.42 74.63V80.22C20.42 80.75 20.11 81.06 19.55 81.06C18.99 81.06 18.63 80.75 18.63 80.22V69.43C18.63 68.32 20.36 68.3 20.36 69.45V70.94C21.23 69.18 23.08 68.44 24.96 68.44C27.76 68.44 30.43 70.37 30.43 73.84V80.23C30.43 80.76 30.12 81.07 29.56 81.07C29 81.07 28.67 80.76 28.67 80.23V73.84H28.68Z" fill="#131314"/>
<path d="M45.32 80.35C45.32 83.84 42.67 85.65 39.37 85.65C37.54 85.65 36.07 85.22 34.77 83.99C33.81 83.05 35.13 81.94 35.95 82.74C37.15 83.66 38.02 83.94 39.37 83.94C41.56 83.94 43.61 82.83 43.61 80.35V79.05C42.77 80.57 41.2 81.15 39.76 81.17C38.84 81.19 37.98 81.05 37.16 80.71C34.92 79.79 33.55 77.6 33.5 75.17C33.43 72.38 34.73 69.99 37.35 68.91C38.1 68.62 38.89 68.5 39.61 68.5C41.08 68.5 42.76 69.05 43.56 70.38V69.46C43.56 68.93 43.87 68.59 44.43 68.59C44.99 68.59 45.32 68.93 45.32 69.46V80.35ZM37.01 71.05H37.03C35.71 72.13 35.2 73.58 35.25 75.15C35.27 75.78 35.39 76.43 35.61 76.93C36.28 78.62 38.02 79.53 39.73 79.51H39.71C41.88 79.41 43.56 77.85 43.56 75.8V73.9C43.56 72.38 42.93 71.23 41.51 70.6C40.07 69.95 38.33 70.05 37.01 71.06" fill="#131314"/>
<path d="M50.65 66.86C50.65 67.94 48.84 67.97 48.84 66.86V65.78C48.84 64.67 50.65 64.67 50.65 65.78V66.86ZM48.87 69.46C48.87 68.42 50.63 68.4 50.63 69.44V80.3C50.63 81.36 48.87 81.34 48.87 80.3V69.46Z" fill="#131314"/>
<path d="M63.97 73.84C63.97 71.62 62.19 70.08 60.24 70.08C57.9 70.08 55.71 72.01 55.71 74.63V80.22C55.71 80.75 55.4 81.06 54.84 81.06C54.28 81.06 53.92 80.75 53.92 80.22V69.43C53.92 68.32 55.65 68.3 55.65 69.45V70.94C56.52 69.18 58.37 68.44 60.25 68.44C63.05 68.44 65.72 70.37 65.72 73.84V80.23C65.72 80.76 65.41 81.07 64.85 81.07C64.29 81.07 63.96 80.76 63.96 80.23V73.84H63.97Z" fill="#131314"/>
<path d="M76.84 68.71C79.56 69.46 81.25 71.67 81.3 74.76V74.73C81.35 75.26 81.11 75.84 80.12 75.84H70.61C70.92 77.81 72.61 79.45 75.02 79.45C76.13 79.45 77.28 79.16 78.22 78.44C79.06 77.67 80.32 78.66 79.38 79.62C78.27 80.65 76.66 81.09 75.09 81.06C73.21 81.06 71.33 80.34 70.2 78.92C67.6 75.5 68.73 69.96 73.21 68.71C74.34 68.37 75.64 68.4 76.82 68.71H76.84ZM70.53 74.37H79.61C79.44 72.32 78.19 70.76 76.31 70.28H76.33C75.54 70.06 74.55 70.06 73.73 70.31C71.8 70.81 70.67 72.43 70.53 74.38" fill="#131314"/>
<path d="M91.75 68.71C94.47 69.46 96.16 71.67 96.21 74.76V74.73C96.26 75.26 96.02 75.84 95.03 75.84H85.52C85.83 77.81 87.52 79.45 89.93 79.45C91.04 79.45 92.19 79.16 93.13 78.44C93.97 77.67 95.23 78.66 94.29 79.62C93.18 80.65 91.57 81.09 90 81.06C88.12 81.06 86.24 80.34 85.11 78.92C82.51 75.5 83.64 69.96 88.12 68.71C89.25 68.37 90.55 68.4 91.73 68.71H91.75ZM85.44 74.37H94.52C94.35 72.32 93.1 70.76 91.22 70.28H91.24C90.45 70.06 89.46 70.06 88.64 70.31C86.71 70.81 85.58 72.43 85.44 74.38" fill="#131314"/>
<path d="M100.93 70.66C101.7 69.05 103.15 68.61 104.52 68.61C105.07 68.61 105.44 68.9 105.44 69.45C105.44 70 105.08 70.27 104.52 70.27C102.04 70.27 100.98 72.25 100.98 74.68V80.12C100.98 80.63 100.57 80.96 100.11 80.96C99.58 80.96 99.22 80.62 99.22 80.12V69.45C99.22 68.39 100.93 68.29 100.93 69.45V70.65V70.66Z" fill="#131314"/>
<path d="M109 66.86C109 67.94 107.19 67.97 107.19 66.86V65.78C107.19 64.67 109 64.67 109 65.78V66.86ZM107.22 69.46C107.22 68.42 108.98 68.4 108.98 69.44V80.3C108.98 81.36 107.22 81.34 107.22 80.3V69.46Z" fill="#131314"/>
<path d="M122.32 73.84C122.32 71.62 120.54 70.08 118.59 70.08C116.25 70.08 114.06 72.01 114.06 74.63V80.22C114.06 80.75 113.75 81.06 113.19 81.06C112.63 81.06 112.27 80.75 112.27 80.22V69.43C112.27 68.32 114 68.3 114 69.45V70.94C114.87 69.18 116.72 68.44 118.6 68.44C121.39 68.44 124.07 70.37 124.07 73.84V80.23C124.07 80.76 123.76 81.07 123.2 81.07C122.64 81.07 122.31 80.76 122.31 80.23V73.84H122.32Z" fill="#131314"/>
<path d="M138.97 80.35C138.97 83.84 136.32 85.65 133.02 85.65C131.19 85.65 129.72 85.22 128.42 83.99C127.46 83.05 128.78 81.94 129.6 82.74C130.8 83.66 131.67 83.94 133.02 83.94C135.21 83.94 137.26 82.83 137.26 80.35V79.05C136.42 80.57 134.85 81.15 133.41 81.17C132.5 81.19 131.63 81.05 130.81 80.71C128.57 79.79 127.2 77.6 127.15 75.17C127.08 72.38 128.38 69.99 131 68.91C131.75 68.62 132.54 68.5 133.26 68.5C134.73 68.5 136.41 69.05 137.21 70.38V69.46C137.21 68.93 137.52 68.59 138.08 68.59C138.64 68.59 138.97 68.93 138.97 69.46V80.35ZM130.66 71.05H130.68C129.36 72.13 128.85 73.58 128.9 75.15C128.92 75.78 129.04 76.43 129.26 76.93C129.93 78.62 131.67 79.53 133.38 79.51H133.36C135.53 79.41 137.21 77.85 137.21 75.8V73.9C137.21 72.38 136.58 71.23 135.16 70.6C133.71 69.95 131.98 70.05 130.66 71.06" fill="#131314"/>
</svg>
