<svg width="213" height="45" viewBox="0 0 213 45" fill="none" xmlns="http://www.w3.org/2000/svg">
<g clip-path="url(#clip0_680_19437)">
<path d="M33.2722 13.572L6.69239 26.064V0.828003H0V44.172H6.69239V33.102L33.2722 20.6078V44.172H39.9646V0.828003H33.2722V13.572Z" fill="#E60000"/>
<path d="M180.504 13.059C180.725 9.36 186.668 6.58125 192.963 6.58125C199.258 6.58125 205.432 9.468 205.432 13.2727H212.39C212.39 5.229 203.617 0 192.963 0C182.308 0 173.535 5.23125 173.535 13.2727V17.046L205.988 32.2987C205.394 35.8155 199.412 38.4165 193.322 38.4165C186.904 38.4165 180.603 35.5298 180.603 31.725H173.645C173.645 39.7687 182.67 44.9977 193.324 44.9977C203.979 44.9977 213.004 39.7665 213.004 31.725V28.332L180.509 13.059H180.504Z" fill="#E60000"/>
<path d="M124.722 0.828003L108.228 39.9938L91.7334 0.828003H84.4629L102.716 44.172H113.737L131.99 0.828003H124.722Z" fill="#E60000"/>
<path d="M91.5568 44.172L73.3035 0.828003H62.2827L44.0293 44.1698H51.2998L52.7821 40.6508L77.8439 28.872L84.2863 44.172H91.5568ZM67.7942 5.00625L75.3706 22.9973L56.4765 31.878L67.7942 5.00625Z" fill="#E60000"/>
<path d="M172.424 44.172L154.171 0.828003H143.15L124.896 44.1698H132.167L133.649 40.6508L158.711 28.872L165.153 44.172H172.424ZM148.661 5.00625L156.238 22.9973L137.344 31.878L148.661 5.00625Z" fill="#E60000"/>
</g>
<defs>
<clipPath id="clip0_680_19437">
<rect width="213" height="45" fill="white"/>
</clipPath>
</defs>
</svg>
