<svg width="32" height="32" viewBox="0 0 32 32" fill="none" xmlns="http://www.w3.org/2000/svg">
<g id="vuesax/linear/people">
<g id="people">
<g id="Group">
<path id="Vector" d="M23.9995 9.54651C23.9195 9.53318 23.8261 9.53318 23.7461 9.54651C21.9061 9.47984 20.4395 7.97317 20.4395 6.10651C20.4395 4.19984 21.9728 2.6665 23.8795 2.6665C25.7861 2.6665 27.3194 4.21317 27.3194 6.10651C27.3061 7.97317 25.8395 9.47984 23.9995 9.54651Z" stroke="#292D32" stroke-width="1.5" stroke-linecap="round" stroke-linejoin="round"/>
<path id="Vector_2" d="M22.6259 19.2534C24.4526 19.5601 26.4659 19.2401 27.8793 18.2934C29.7593 17.0401 29.7593 14.9867 27.8793 13.7334C26.4526 12.7867 24.4126 12.4667 22.5859 12.7867" stroke="#292D32" stroke-width="1.5" stroke-linecap="round" stroke-linejoin="round"/>
</g>
<g id="Group_2">
<path id="Vector_3" d="M7.96063 9.54651C8.04063 9.53318 8.13396 9.53318 8.21396 9.54651C10.054 9.47984 11.5206 7.97317 11.5206 6.10651C11.5206 4.19984 9.98729 2.6665 8.08063 2.6665C6.17396 2.6665 4.64062 4.21317 4.64062 6.10651C4.65396 7.97317 6.12063 9.47984 7.96063 9.54651Z" stroke="#292D32" stroke-width="1.5" stroke-linecap="round" stroke-linejoin="round"/>
<path id="Vector_4" d="M9.33325 19.2534C7.50659 19.5601 5.49325 19.2401 4.07992 18.2934C2.19992 17.0401 2.19992 14.9867 4.07992 13.7334C5.50659 12.7867 7.54658 12.4667 9.37325 12.7867" stroke="#292D32" stroke-width="1.5" stroke-linecap="round" stroke-linejoin="round"/>
</g>
<g id="Group_3">
<path id="Vector_5" d="M16.0014 19.5065C15.9214 19.4931 15.8281 19.4931 15.7481 19.5065C13.9081 19.4398 12.4414 17.9331 12.4414 16.0665C12.4414 14.1598 13.9747 12.6265 15.8814 12.6265C17.7881 12.6265 19.3214 14.1731 19.3214 16.0665C19.3081 17.9331 17.8414 19.4531 16.0014 19.5065Z" stroke="#292D32" stroke-width="1.5" stroke-linecap="round" stroke-linejoin="round"/>
<path id="Vector_6" d="M12.1209 23.7065C10.2409 24.9598 10.2409 27.0131 12.1209 28.2665C14.2543 29.6931 17.7476 29.6931 19.8809 28.2665C21.7609 27.0131 21.7609 24.9598 19.8809 23.7065C17.7609 22.2932 14.2543 22.2932 12.1209 23.7065Z" stroke="#292D32" stroke-width="1.5" stroke-linecap="round" stroke-linejoin="round"/>
</g>
</g>
</g>
</svg>
