<svg width="176" height="176" viewBox="0 0 176 176" fill="none" xmlns="http://www.w3.org/2000/svg">
<circle cx="88" cy="88.0024" r="87.5" stroke="#D9E81B"/>
<circle cx="88" cy="88.0024" r="71" fill="#D9E81B"/>
<path d="M73.6669 106.546V69.4583C73.6669 68.4431 74.0252 67.5914 74.7419 66.9034C75.4585 66.2154 76.2946 65.8726 77.2502 65.875C77.5488 65.875 77.863 65.9192 78.1926 66.0076C78.5223 66.096 78.8352 66.231 79.1315 66.4125L108.336 84.9563C108.873 85.3146 109.277 85.7625 109.547 86.3C109.817 86.8375 109.951 87.4049 109.948 88.0021C109.948 88.5993 109.813 89.1667 109.543 89.7042C109.273 90.2417 108.871 90.6896 108.336 91.0479L79.1315 109.592C78.8328 109.771 78.5187 109.906 78.189 109.997C77.8594 110.087 77.5464 110.132 77.2502 110.129C76.2946 110.129 75.4585 109.785 74.7419 109.097C74.0252 108.409 73.6669 107.559 73.6669 106.546Z" fill="#131314"/>
</svg>
