<svg width="710" height="341" viewBox="0 0 710 341" fill="none" xmlns="http://www.w3.org/2000/svg">
<path d="M576.977 214.515C543.986 214.515 205.829 214.515 172.859 214.515C171.197 214.515 169.613 215.118 168.439 216.184C145.246 237.231 122.562 257.82 98.9633 279.235C97.7846 280.307 97.1164 281.765 97.1164 283.281V334.785C97.1164 337.922 94.3171 340.465 90.8654 340.465H7.25096C3.79925 340.465 1 337.922 1 334.785V245.647C1 244.14 1.65772 242.697 2.83109 241.635C44.1306 204.202 85.5931 166.621 127.256 128.862C128.429 127.796 130.023 127.199 131.681 127.199H536.125C537.793 127.199 539.393 126.591 540.566 125.52C563.981 104.162 586.917 83.239 610.879 61.3883C612.052 60.3173 612.715 58.8733 612.715 57.3624C612.715 48.8134 612.715 19.2073 612.715 6.67545C612.715 3.53889 615.514 1 618.966 1H702.749C706.201 1 709 3.54367 709 6.68023V94.4034C709 95.9095 708.342 97.3583 707.169 98.4245C665.196 136.613 623.481 174.567 581.403 212.851C580.229 213.922 578.64 214.525 576.977 214.525V214.515Z" stroke="#D7E819" stroke-miterlimit="10"/>
</svg>
