<svg width="793" height="1070" viewBox="0 0 793 1070" fill="none" xmlns="http://www.w3.org/2000/svg">
<path d="M1 997.931V40.5C1 18.4086 18.9086 0.5 41 0.5H168.931C179.54 0.5 189.714 4.71427 197.216 12.2157L224.784 39.7843C232.286 47.2857 242.46 51.5 253.069 51.5H727.431C738.04 51.5 748.214 55.7143 755.716 63.2157L780.284 87.7843C787.786 95.2857 792 105.46 792 116.069V1029C792 1051.09 774.091 1069 752 1069H72.0685C61.4599 1069 51.2857 1064.79 43.7843 1057.28L12.7157 1026.22C5.21427 1018.71 1 1008.54 1 997.931Z" stroke="white"/>
</svg>
