<svg width="793" height="560" viewBox="0 0 793 560" fill="none" xmlns="http://www.w3.org/2000/svg">
<path d="M1 487.931V41C1 18.9086 18.9086 1 41 1H168.931C179.54 1 189.714 5.21427 197.216 12.7157L224.784 40.2843C232.286 47.7857 242.46 52 253.069 52H727.431C738.04 52 748.214 56.2143 755.716 63.7157L780.284 88.2843C787.786 95.7857 792 105.96 792 116.569V519C792 541.091 774.091 559 752 559H72.0685C61.4599 559 51.2857 554.786 43.7843 547.284L12.7157 516.216C5.21427 508.714 1 498.54 1 487.931Z" stroke="white"/>
</svg>
