<svg width="115" height="108" viewBox="0 0 115 108" fill="none" xmlns="http://www.w3.org/2000/svg">
<path d="M1 97.0147V20.5C1 17.1863 3.68629 14.5 7 14.5H42.0147C43.606 14.5 45.1321 13.8679 46.2574 12.7426L56.2426 2.75736C57.3679 1.63214 58.894 1 60.4853 1H104.015C105.606 1 107.132 1.63214 108.257 2.75736L112.743 7.24264C113.868 8.36786 114.5 9.89398 114.5 11.4853V73.0147C114.5 74.606 113.868 76.1321 112.743 77.2574L106.5 83.5C105.119 84.8807 102.881 84.8807 101.5 83.5C100.119 82.1193 97.8807 82.1193 96.5 83.5L92.25 87.75C90.7312 89.2688 90.7312 91.7312 92.25 93.25C93.7688 94.7688 93.7688 97.2312 92.25 98.75L85.2574 105.743C84.1321 106.868 82.606 107.5 81.0147 107.5H11.4853C9.89398 107.5 8.36786 106.868 7.24264 105.743L2.75736 101.257C1.63214 100.132 1 98.606 1 97.0147Z" stroke="#888789" stroke-width="0.25"/>
</svg>
