<svg width="1445" height="690" viewBox="0 0 1445 690" fill="none" xmlns="http://www.w3.org/2000/svg">
<path d="M1444 573.044V41C1444 18.9086 1426.09 1 1404 1H1120.48C1112 1 1103.73 3.69878 1096.88 8.70614L1024.93 61.2939C1018.08 66.3012 1009.81 69 1001.32 69H105.129C94.5229 69 84.3513 73.212 76.8503 80.71L12.7214 144.813C5.21655 152.315 1 162.491 1 173.103V649C1 671.091 18.9086 689 41 689H1328.01C1338.62 689 1348.79 684.788 1356.29 677.29L1432.28 601.334C1439.78 593.832 1444 583.656 1444 573.044Z" stroke="#888789" stroke-width="2"/>
</svg>
