<svg width="860" height="883" viewBox="0 0 860 883" fill="none" xmlns="http://www.w3.org/2000/svg">
<path d="M859 765.927V41C859 18.9086 841.091 1 819 1H535.481C526.995 1 518.729 3.69878 511.878 8.70614L439.927 61.2939C433.076 66.3012 424.81 69 416.324 69H105.629C95.023 69 84.8513 73.212 77.3503 80.71L13.2215 144.813C5.71649 152.315 1.5 162.491 1.5 173.103V841.882C1.5 863.974 19.4086 881.882 41.5001 881.882H743.013C753.619 881.882 763.791 877.67 771.292 870.172L847.279 794.217C854.783 786.715 859 776.538 859 765.927Z" stroke="#888789" stroke-width="2"/>
</svg>
